<svg width="100" height="102" viewBox="0 0 100 102" fill="none" xmlns="http://www.w3.org/2000/svg">
<mask id="path-1-inside-1" fill="white">
<path d="M100 50C100 43.4339 98.7067 36.9321 96.194 30.8658C93.6812 24.7995 89.9983 19.2876 85.3553 14.6447C80.7124 10.0017 75.2004 6.31876 69.1342 3.80602C63.0679 1.29329 56.5661 -2.87013e-07 50 0C43.4339 2.87013e-07 36.9321 1.29329 30.8658 3.80602C24.7995 6.31876 19.2876 10.0017 14.6447 14.6447C10.0017 19.2876 6.31876 24.7996 3.80602 30.8658C1.29329 36.9321 -5.74026e-07 43.4339 0 50H5.11138C5.11138 44.1051 6.27246 38.268 8.52832 32.8219C10.7842 27.3757 14.0907 22.4272 18.2589 18.259C22.4272 14.0907 27.3757 10.7842 32.8219 8.52832C38.268 6.27246 44.1051 5.11138 50 5.11138C55.8949 5.11138 61.732 6.27246 67.1781 8.52832C72.6243 10.7842 77.5728 14.0907 81.7411 18.2589C85.9093 22.4272 89.2158 27.3757 91.4717 32.8219C93.7275 38.268 94.8886 44.1051 94.8886 50H100Z"/>
</mask>
<path d="M100 50C100 43.4339 98.7067 36.9321 96.194 30.8658C93.6812 24.7995 89.9983 19.2876 85.3553 14.6447C80.7124 10.0017 75.2004 6.31876 69.1342 3.80602C63.0679 1.29329 56.5661 -2.87013e-07 50 0C43.4339 2.87013e-07 36.9321 1.29329 30.8658 3.80602C24.7995 6.31876 19.2876 10.0017 14.6447 14.6447C10.0017 19.2876 6.31876 24.7996 3.80602 30.8658C1.29329 36.9321 -5.74026e-07 43.4339 0 50H5.11138C5.11138 44.1051 6.27246 38.268 8.52832 32.8219C10.7842 27.3757 14.0907 22.4272 18.2589 18.259C22.4272 14.0907 27.3757 10.7842 32.8219 8.52832C38.268 6.27246 44.1051 5.11138 50 5.11138C55.8949 5.11138 61.732 6.27246 67.1781 8.52832C72.6243 10.7842 77.5728 14.0907 81.7411 18.2589C85.9093 22.4272 89.2158 27.3757 91.4717 32.8219C93.7275 38.268 94.8886 44.1051 94.8886 50H100Z" stroke="white" stroke-width="2" mask="url(#path-1-inside-1)"/>
<mask id="path-2-inside-2" fill="white">
<path d="M100 52C100 65.2608 94.7322 77.9785 85.3553 87.3553C75.9785 96.7322 63.2608 102 50 102C36.7392 102 24.0215 96.7322 14.6447 87.3553C5.26785 77.9785 2.00233e-06 65.2608 0 52H4.8302C4.8302 63.9798 9.58915 75.4689 18.0601 83.9399C26.5311 92.4109 38.0202 97.1698 50 97.1698C61.9798 97.1698 73.4689 92.4109 81.9399 83.9399C90.4109 75.4689 95.1698 63.9798 95.1698 52H100Z"/>
</mask>
<path d="M100 52C100 65.2608 94.7322 77.9785 85.3553 87.3553C75.9785 96.7322 63.2608 102 50 102C36.7392 102 24.0215 96.7322 14.6447 87.3553C5.26785 77.9785 2.00233e-06 65.2608 0 52H4.8302C4.8302 63.9798 9.58915 75.4689 18.0601 83.9399C26.5311 92.4109 38.0202 97.1698 50 97.1698C61.9798 97.1698 73.4689 92.4109 81.9399 83.9399C90.4109 75.4689 95.1698 63.9798 95.1698 52H100Z" stroke="white" stroke-width="2" mask="url(#path-2-inside-2)"/>
</svg>
