<svg width="114" height="114" viewBox="0 0 114 114" fill="none" xmlns="http://www.w3.org/2000/svg">
<path d="M52.9776 36.5537C44.3618 36.5537 37.3762 43.5416 37.3762 52.1574C37.3762 60.7751 44.3618 67.761 52.9776 67.761C61.5953 67.761 68.5801 60.7755 68.5801 52.1574C68.5805 43.5416 61.5961 36.5537 52.9776 36.5537ZM60.5172 55.8495H55.9344V60.4323C55.9344 62.0656 54.6109 63.3891 52.9776 63.3891C51.3444 63.3891 50.0208 62.0656 50.0208 60.4323V55.8495H45.438C43.8047 55.8495 42.4812 54.5259 42.4812 52.8927C42.4812 51.2594 43.8047 49.9359 45.438 49.9359H50.0208V45.3519C50.0208 43.7187 51.3444 42.3951 52.9776 42.3951C54.6109 42.3951 55.9344 43.7187 55.9344 45.3519V49.9359H60.5172C62.1505 49.9359 63.474 51.2594 63.474 52.8927C63.474 54.5259 62.1512 55.8495 60.5172 55.8495Z" fill="#191E22"/>
<path d="M56.9998 0C25.5204 0 0.000976562 25.5202 0.000976562 56.9985C0.000976562 88.4768 25.5204 114 56.9995 114C88.4785 114 114 88.4779 114 56.9985C114 25.5191 88.4789 0 56.9998 0ZM85.6676 84.0771C84.7666 84.98 83.5852 85.4303 82.4034 85.4303C81.2216 85.4303 80.0409 84.98 79.138 84.0771L66.1628 71.1011C62.4248 73.7091 57.8811 75.2416 52.9779 75.2416C40.2296 75.2416 29.8958 64.9071 29.8958 52.1588C29.8958 39.4104 40.2296 29.0767 52.9779 29.0767C65.7262 29.0767 76.0608 39.4104 76.0608 52.1576C76.0608 56.6626 74.7657 60.8631 72.5343 64.415L85.6672 77.5486C87.4715 79.351 87.4715 82.2751 85.6676 84.0771Z" fill="#191E22"/>
</svg>
