<svg width="13" height="13" viewBox="0 0 13 13" fill="none" xmlns="http://www.w3.org/2000/svg">
<g clip-path="url(#clip0)">
<mask id="path-1-inside-1" fill="white">
<path d="M5.61235 8.48049V5.23293L6.37405 4.99637V8.48049C6.37405 8.69082 6.20353 8.86134 5.9932 8.86134C5.78287 8.86134 5.61235 8.69082 5.61235 8.48049Z"/>
</mask>
<path d="M5.61235 8.48049V5.23293L6.37405 4.99637V8.48049C6.37405 8.69082 6.20353 8.86134 5.9932 8.86134C5.78287 8.86134 5.61235 8.69082 5.61235 8.48049Z" fill="#D03839"/>
<path d="M5.61235 5.23293H4.61236V4.49639L5.31576 4.27794L5.61235 5.23293ZM6.37405 4.99637L6.07746 4.04137L7.37404 3.6387V4.99637H6.37405ZM4.61236 8.48049V5.23293H6.61234V8.48049H4.61236ZM5.31576 4.27794L6.07746 4.04137L6.67064 5.95136L5.90894 6.18792L5.31576 4.27794ZM7.37404 4.99637V8.48049H5.37406V4.99637H7.37404ZM7.37404 8.48049C7.37404 9.24309 6.75582 9.86133 5.9932 9.86133V7.86135C5.65125 7.86135 5.37406 8.13854 5.37406 8.48049H7.37404ZM5.9932 9.86133C5.23058 9.86133 4.61236 9.24309 4.61236 8.48049H6.61234C6.61234 8.13854 6.33515 7.86135 5.9932 7.86135V9.86133Z" fill="#1D68D9" mask="url(#path-1-inside-1)"/>
<path d="M2.5479 5.23166V4.86339L2.8996 4.75416L6.63575 3.59385V0.499995H0.501017V12.5L6.63572 12.4999V11.9491L2.92001 10.966L2.5479 10.8676V10.4827V5.23166ZM5.63624 2.28513C5.63624 2.771 5.24133 3.16598 4.75539 3.16598C4.26946 3.16598 3.87454 2.771 3.87454 2.28513C3.87454 1.79922 4.26948 1.40428 4.75539 1.40428C5.24133 1.40428 5.63624 1.79927 5.63624 2.28513ZM3.26224 2.28513C3.26224 2.771 2.86733 3.16598 2.38139 3.16598C1.89546 3.16598 1.50054 2.771 1.50054 2.28513C1.50054 1.79922 1.89548 1.40428 2.38139 1.40428C2.86733 1.40428 3.26224 1.79927 3.26224 2.28513Z" fill="#1D68D9" stroke="#1D68D9" stroke-width="0.99999"/>
<mask id="path-4-inside-2" fill="white">
<path d="M13.0009 2.99609C13.0009 3.20642 12.8304 3.37694 12.6201 3.37694H7.89745V2.61523H12.6201C12.8304 2.61523 13.0009 2.78576 13.0009 2.99609Z"/>
</mask>
<path d="M13.0009 2.99609C13.0009 3.20642 12.8304 3.37694 12.6201 3.37694H7.89745V2.61523H12.6201C12.8304 2.61523 13.0009 2.78576 13.0009 2.99609Z" fill="#D03839"/>
<path d="M7.89745 3.37694V4.37693H6.89746V3.37694H7.89745ZM7.89745 2.61523H6.89746V1.61524H7.89745V2.61523ZM14.0009 2.99609C14.0009 3.7587 13.3827 4.37693 12.6201 4.37693V2.37695C12.2781 2.37695 12.0009 2.65414 12.0009 2.99609H14.0009ZM12.6201 4.37693H7.89745V2.37695H12.6201V4.37693ZM6.89746 3.37694V2.61523H8.89744V3.37694H6.89746ZM7.89745 1.61524H12.6201V3.61522H7.89745V1.61524ZM12.6201 1.61524C13.3827 1.61524 14.0009 2.23347 14.0009 2.99609H12.0009C12.0009 3.33804 12.2781 3.61522 12.6201 3.61522V1.61524Z" fill="#1D68D9" mask="url(#path-4-inside-2)"/>
</g>
<defs>
<clipPath id="clip0">
<rect width="13" height="13" fill="white" transform="matrix(-1 0 0 1 13.001 0)"/>
</clipPath>
</defs>
</svg>
