<svg width="24" height="24" viewBox="0 0 24 24" fill="none" xmlns="http://www.w3.org/2000/svg">
<path d="M7.46495 20.485C4.19997 18.935 2.85495 16.76 2.49997 13H-3.05176e-05C0.509969 19.16 5.65994 24 11.95 24C12.175 24 12.39 23.98 12.61 23.965L9.79995 19.15L7.46495 20.485Z" fill="#BCCBD7"/>
<path d="M11.9499 0C11.7249 0 11.5099 0.0200156 11.2899 0.0350156L14.0999 4.85003L16.4299 3.52005C19.6999 5.06505 21.0449 7.24003 21.3999 11.0001H23.8999C23.3899 4.83998 18.2399 0 11.9499 0Z" fill="#BCCBD7"/>
<path fill-rule="evenodd" clip-rule="evenodd" d="M9.03364 15.0899C9.38802 15.0899 9.66364 14.9981 9.86052 14.8143C10.0661 14.6262 10.1667 14.3549 10.1667 14.0006C10.1667 13.8081 10.1361 13.6418 10.0793 13.5018C10.018 13.3618 9.93488 13.2437 9.82549 13.1518C9.7161 13.0556 9.58485 12.99 9.43174 12.9462C9.27863 12.9025 9.10361 12.8806 8.91113 12.8806H8.23737V11.9837H8.91113C9.10361 11.9837 9.27424 11.9575 9.41861 11.905C9.55864 11.8525 9.68111 11.7825 9.77738 11.6906C9.87364 11.5987 9.94365 11.4893 9.99177 11.3625C10.0399 11.2356 10.0618 11.0956 10.0618 10.9381C10.0618 10.6143 9.97864 10.3606 9.80802 10.1812C9.63739 10.0018 9.37924 9.90997 9.02925 9.90997C8.88053 9.90997 8.7405 9.93622 8.61364 9.97998C8.48674 10.0237 8.373 10.0893 8.28113 10.1725C8.18925 10.2512 8.11489 10.3518 8.06239 10.47C8.00989 10.5837 7.98364 10.7149 7.98364 10.8637H6.84616C6.84616 10.5969 6.89866 10.3475 7.00805 10.12C7.11744 9.89246 7.2662 9.69558 7.45869 9.52935C7.65121 9.36311 7.87873 9.23186 8.14557 9.13999C8.41242 9.04811 8.70556 9 9.02056 9C9.34429 9 9.64178 9.03938 9.92179 9.12686C10.193 9.21 10.4205 9.33247 10.613 9.49436C10.8055 9.65625 10.9543 9.85747 11.0593 10.0981C11.1643 10.3387 11.2168 10.6187 11.2168 10.9381C11.2168 11.0737 11.1949 11.2137 11.1512 11.3537C11.1074 11.4937 11.0418 11.625 10.9543 11.7562C10.8668 11.8831 10.7574 12.0056 10.6262 12.1193C10.4949 12.233 10.3418 12.3293 10.1668 12.4081C10.3724 12.4824 10.5518 12.5743 10.6962 12.6837C10.8405 12.7974 10.9587 12.9199 11.0505 13.0599C11.138 13.1999 11.2037 13.3487 11.2474 13.5062C11.2868 13.6637 11.3087 13.8256 11.3087 13.9962C11.3087 14.3156 11.2474 14.5999 11.1336 14.8493C11.0155 15.0987 10.858 15.3087 10.6524 15.4793C10.4468 15.6499 10.2062 15.7812 9.92614 15.8687C9.64613 15.9562 9.34425 15.9999 9.02052 15.9999C8.72303 15.9999 8.44302 15.9605 8.17178 15.8731C7.90051 15.79 7.66426 15.6718 7.45864 15.5099C7.25299 15.3524 7.09114 15.1512 6.96863 14.9106C6.84612 14.6699 6.78488 14.3943 6.78488 14.0793H7.92241C7.92241 14.2281 7.94866 14.3637 8.00116 14.4906C8.05366 14.6131 8.12802 14.7225 8.22428 14.81C8.3205 14.8975 8.43863 14.9675 8.57427 15.0156C8.71425 15.0681 8.86741 15.0899 9.03364 15.0899ZM16.5305 9.2295C16.9155 9.3825 17.248 9.59925 17.5237 9.87975C17.7993 10.1602 18.0137 10.5002 18.1668 10.8998C18.3199 11.2993 18.3987 11.7413 18.3987 12.2343V12.57C18.3987 13.063 18.3243 13.5093 18.1712 13.9045C18.0224 14.2998 17.8037 14.6398 17.5237 14.9203C17.2436 15.2008 16.9068 15.4175 16.5086 15.5705C16.1105 15.7235 15.673 15.8 15.1874 15.8H13.1793V9H15.2487C15.7168 9 16.1412 9.0765 16.5305 9.2295ZM17.178 12.5742H17.1823V12.2257C17.1823 11.4862 17.0161 10.9252 16.688 10.5342C16.3555 10.1475 15.8786 9.95198 15.2486 9.95198H14.3955V14.8565H15.1874C15.5199 14.8565 15.8086 14.8012 16.058 14.6992C16.3074 14.593 16.513 14.4442 16.6793 14.2487C16.8455 14.0532 16.968 13.8152 17.0512 13.5305C17.1386 13.25 17.178 12.927 17.178 12.5742Z" fill="#BCCBD7"/>
<path d="M9.86052 14.8143L9.7255 14.6668L9.72405 14.6681L9.86052 14.8143ZM10.0793 13.5018L10.2646 13.4265L10.2625 13.4216L10.0793 13.5018ZM9.82549 13.1518L9.69336 13.302L9.69686 13.305L9.82549 13.1518ZM9.43174 12.9462L9.4867 12.7539V12.7539L9.43174 12.9462ZM8.23737 12.8806H8.03737V13.0806H8.23737V12.8806ZM8.23737 11.9837V11.7837H8.03737V11.9837H8.23737ZM9.41861 11.905L9.48697 12.0929L9.48883 12.0922L9.41861 11.905ZM9.77738 11.6906L9.63929 11.5459L9.63929 11.5459L9.77738 11.6906ZM9.99177 11.3625L9.80477 11.2915L9.80476 11.2915L9.99177 11.3625ZM9.80802 10.1812L9.95292 10.0434V10.0434L9.80802 10.1812ZM8.61364 9.97998L8.67879 10.1691L8.67887 10.1691L8.61364 9.97998ZM8.28113 10.1725L8.41133 10.3244L8.41532 10.3208L8.28113 10.1725ZM8.06239 10.47L8.244 10.5538L8.24516 10.5512L8.06239 10.47ZM7.98364 10.8637V11.0637H8.18364V10.8637H7.98364ZM6.84616 10.8637H6.64616V11.0637H6.84616V10.8637ZM7.00805 10.12L6.8278 10.0333H6.8278L7.00805 10.12ZM7.45869 9.52935L7.32798 9.37797L7.32796 9.37798L7.45869 9.52935ZM8.14557 9.13999L8.08046 8.95088L8.14557 9.13999ZM9.92179 9.12686L9.86215 9.31776L9.86318 9.31808L9.92179 9.12686ZM10.613 9.49436L10.7418 9.3413V9.3413L10.613 9.49436ZM11.0593 10.0981L11.2426 10.0181L11.0593 10.0981ZM11.1512 11.3537L10.9603 11.294L11.1512 11.3537ZM10.9543 11.7562L11.1189 11.8698L11.1207 11.8671L10.9543 11.7562ZM10.6262 12.1193L10.7571 12.2705L10.6262 12.1193ZM10.1668 12.4081L10.0847 12.2257L9.63448 12.4283L10.0988 12.5961L10.1668 12.4081ZM10.6962 12.6837L10.82 12.5266L10.8169 12.5243L10.6962 12.6837ZM11.0505 13.0599L11.2202 12.9539L11.2177 12.9502L11.0505 13.0599ZM11.2474 13.5062L11.4415 13.4576L11.4401 13.4526L11.2474 13.5062ZM11.1336 14.8493L11.3144 14.9349L11.3156 14.9323L11.1336 14.8493ZM10.6524 15.4793L10.7801 15.6332L10.7801 15.6332L10.6524 15.4793ZM9.92614 15.8687L9.98578 16.0596H9.98578L9.92614 15.8687ZM8.17178 15.8731L8.23318 15.6827L8.23036 15.6818L8.17178 15.8731ZM7.45864 15.5099L7.58238 15.3528L7.58025 15.3512L7.45864 15.5099ZM6.96863 14.9106L7.14686 14.8198H7.14686L6.96863 14.9106ZM6.78488 14.0793V13.8793H6.58488V14.0793H6.78488ZM7.92241 14.0793H8.12241V13.8793H7.92241V14.0793ZM8.00116 14.4906L7.81634 14.5671L7.81732 14.5694L8.00116 14.4906ZM8.22428 14.81L8.35883 14.662L8.35879 14.662L8.22428 14.81ZM8.57427 15.0156L8.64451 14.8283L8.64113 14.8271L8.57427 15.0156ZM17.5237 9.87975L17.6663 9.73957V9.73957L17.5237 9.87975ZM16.5305 9.2295L16.6044 9.04364L16.6037 9.04335L16.5305 9.2295ZM18.1668 10.8998L18.3536 10.8282L18.3536 10.8282L18.1668 10.8998ZM18.1712 13.9045L17.9847 13.8323L17.984 13.8341L18.1712 13.9045ZM16.5086 15.5705L16.4369 15.3838L16.4369 15.3838L16.5086 15.5705ZM13.1793 15.8H12.9793V16H13.1793V15.8ZM13.1793 9V8.8H12.9793V9H13.1793ZM17.1823 12.5742V12.7742H17.3823V12.5742H17.1823ZM17.178 12.5742V12.3742H16.978V12.5742H17.178ZM16.688 10.5342L16.8412 10.4056L16.8396 10.4038L16.688 10.5342ZM14.3955 9.95198V9.75198H14.1955V9.95198H14.3955ZM14.3955 14.8565H14.1955V15.0565H14.3955V14.8565ZM16.058 14.6992L16.1337 14.8844L16.1364 14.8832L16.058 14.6992ZM16.6793 14.2487L16.8316 14.3783V14.3783L16.6793 14.2487ZM17.0512 13.5305L16.8602 13.4709L16.8592 13.4744L17.0512 13.5305ZM9.72405 14.6681C9.57469 14.8075 9.3538 14.8899 9.03364 14.8899V15.2899C9.42224 15.2899 9.75259 15.1886 9.99698 14.9605L9.72405 14.6681ZM9.96674 14.0006C9.96674 14.3162 9.87842 14.5268 9.7255 14.6668L9.99553 14.9619C10.2538 14.7255 10.3667 14.3937 10.3667 14.0006H9.96674ZM9.89397 13.5771C9.93945 13.689 9.96674 13.829 9.96674 14.0006H10.3667C10.3667 13.7872 10.3328 13.5946 10.2645 13.4265L9.89397 13.5771ZM9.69686 13.305C9.77893 13.3739 9.84497 13.4654 9.89604 13.582L10.2625 13.4216C10.191 13.2583 10.0908 13.1135 9.95412 12.9987L9.69686 13.305ZM9.37677 13.1385C9.50774 13.176 9.61076 13.2293 9.69339 13.302L9.95758 13.0017C9.82144 12.8819 9.66196 12.804 9.4867 12.7539L9.37677 13.1385ZM8.91113 13.0806C9.08901 13.0806 9.245 13.1009 9.37677 13.1385L9.4867 12.7539C9.31225 12.7041 9.11822 12.6806 8.91113 12.6806V13.0806ZM8.23737 13.0806H8.91113V12.6806H8.23737V13.0806ZM8.03737 11.9837V12.8806H8.43737V11.9837H8.03737ZM8.91113 11.7837H8.23737V12.1837H8.91113V11.7837ZM9.35027 11.717C9.23277 11.7597 9.08626 11.7837 8.91113 11.7837V12.1837C9.12097 12.1837 9.31571 12.1552 9.48696 12.0929L9.35027 11.717ZM9.63929 11.5459C9.56745 11.6145 9.47039 11.672 9.3484 11.7177L9.48883 12.0922C9.64689 12.033 9.79478 11.9504 9.91546 11.8353L9.63929 11.5459ZM9.80476 11.2915C9.76633 11.3929 9.71216 11.4763 9.63929 11.5459L9.91546 11.8353C10.0351 11.7211 10.121 11.5858 10.1788 11.4334L9.80476 11.2915ZM9.86178 10.9381C9.86178 11.077 9.84251 11.192 9.80477 11.2915L10.1788 11.4334C10.2373 11.2791 10.2618 11.1141 10.2618 10.9381H9.86178ZM9.66311 10.3191C9.78765 10.45 9.86178 10.6476 9.86178 10.9381H10.2618C10.2618 10.581 10.1696 10.2712 9.95292 10.0434L9.66311 10.3191ZM9.02925 10.11C9.34586 10.11 9.54281 10.1926 9.66311 10.3191L9.95292 10.0434C9.73198 9.8111 9.41262 9.70997 9.02925 9.70997V10.11ZM8.67887 10.1691C8.78616 10.132 8.90418 10.11 9.02925 10.11V9.70997C8.85688 9.70997 8.69485 9.7404 8.54842 9.79092L8.67887 10.1691ZM8.41532 10.3208C8.48534 10.2574 8.57498 10.2048 8.67879 10.1691L8.54849 9.79089C8.3985 9.84257 8.26066 9.92126 8.14693 10.0242L8.41532 10.3208ZM8.24516 10.5512C8.28621 10.4588 8.34312 10.3828 8.41129 10.3243L8.15097 10.0206C8.03539 10.1197 7.94358 10.2449 7.87963 10.3887L8.24516 10.5512ZM8.18364 10.8637C8.18364 10.7385 8.20567 10.6368 8.24398 10.5538L7.88081 10.3861C7.81411 10.5306 7.78364 10.6914 7.78364 10.8637H8.18364ZM6.84616 11.0637H7.98364V10.6637H6.84616V11.0637ZM6.8278 10.0333C6.70408 10.2906 6.64616 10.5701 6.64616 10.8637H7.04616C7.04616 10.6236 7.09323 10.4043 7.1883 10.2066L6.8278 10.0333ZM7.32796 9.37798C7.11415 9.56264 6.94876 9.78173 6.8278 10.0333L7.1883 10.2066C7.28611 10.0032 7.41825 9.82853 7.58941 9.68071L7.32796 9.37798ZM8.08046 8.95088C7.79068 9.05065 7.54065 9.19433 7.32798 9.37797L7.58939 9.68073C7.76177 9.53189 7.96677 9.41307 8.21068 9.32909L8.08046 8.95088ZM9.02056 8.8C8.68509 8.8 8.3698 8.85126 8.08046 8.95088L8.21068 9.32909C8.45504 9.24496 8.72602 9.2 9.02056 9.2V8.8ZM9.98144 8.93596C9.67877 8.8414 9.36069 8.8 9.02056 8.8V9.2C9.3279 9.2 9.60479 9.23735 9.86215 9.31776L9.98144 8.93596ZM10.7418 9.3413C10.527 9.16066 10.2751 9.02597 9.9804 8.93564L9.86318 9.31808C10.111 9.39403 10.3141 9.50428 10.4843 9.64742L10.7418 9.3413ZM11.2426 10.0181C11.1258 9.7505 10.9588 9.52388 10.7418 9.3413L10.4843 9.64742C10.6522 9.78862 10.7827 9.96444 10.876 10.1781L11.2426 10.0181ZM11.4168 10.9381C11.4168 10.597 11.3607 10.2888 11.2426 10.0181L10.876 10.1781C10.9678 10.3887 11.0168 10.6404 11.0168 10.9381H11.4168ZM11.342 11.4134C11.3915 11.2553 11.4168 11.0952 11.4168 10.9381H11.0168C11.0168 11.0522 10.9984 11.1722 10.9603 11.294L11.342 11.4134ZM11.1207 11.8671C11.2169 11.7228 11.2917 11.5744 11.342 11.4134L10.9603 11.294C10.9231 11.413 10.8666 11.5271 10.7879 11.6453L11.1207 11.8671ZM10.7571 12.2705C10.9005 12.1462 11.0214 12.0112 11.1189 11.8697L10.7896 11.6427C10.7122 11.7549 10.6143 11.8649 10.4952 11.9682L10.7571 12.2705ZM10.2488 12.5904C10.4398 12.5045 10.6097 12.3982 10.7571 12.2705L10.4952 11.9682C10.3801 12.0679 10.2438 12.1541 10.0847 12.2257L10.2488 12.5904ZM10.8169 12.5243C10.6526 12.3998 10.4542 12.2993 10.2348 12.22L10.0988 12.5961C10.2907 12.6655 10.4509 12.7488 10.5754 12.8431L10.8169 12.5243ZM11.2177 12.9502C11.1118 12.7887 10.9776 12.6508 10.8199 12.5266L10.5724 12.8408C10.7034 12.944 10.8056 13.0512 10.8833 13.1697L11.2177 12.9502ZM11.4401 13.4526C11.3912 13.2764 11.3177 13.11 11.2201 12.9539L10.8809 13.1659C10.9583 13.2898 11.0161 13.4209 11.0547 13.5597L11.4401 13.4526ZM11.5087 13.9962C11.5087 13.8081 11.4845 13.6299 11.4414 13.4577L11.0534 13.5547C11.0891 13.6975 11.1087 13.843 11.1087 13.9962H11.5087ZM11.3156 14.9323C11.4422 14.6547 11.5087 14.3417 11.5087 13.9962H11.1087C11.1087 14.2895 11.0525 14.5452 10.9517 14.7663L11.3156 14.9323ZM10.7801 15.6332C11.0103 15.4422 11.185 15.2081 11.3144 14.9349L10.9529 14.7637C10.846 14.9893 10.7058 15.1751 10.5247 15.3254L10.7801 15.6332ZM9.98578 16.0596C10.2897 15.9646 10.5536 15.8211 10.7801 15.6332L10.5247 15.3254C10.3399 15.4787 10.1226 15.5977 9.8665 15.6778L9.98578 16.0596ZM9.02052 16.1999C9.36241 16.1999 9.68459 16.1537 9.98578 16.0596L9.8665 15.6778C9.60767 15.7586 9.32609 15.7999 9.02052 15.7999V16.1999ZM8.11039 16.0634C8.40389 16.1581 8.70491 16.1999 9.02052 16.1999V15.7999C8.74115 15.7999 8.48214 15.763 8.23318 15.6827L8.11039 16.0634ZM7.33492 15.6671C7.56262 15.8464 7.82177 15.975 8.1132 16.0643L8.23036 15.6818C7.97924 15.6049 7.76589 15.4973 7.58237 15.3528L7.33492 15.6671ZM6.7904 15.0013C6.92511 15.2659 7.1054 15.4913 7.33704 15.6687L7.58025 15.3512C7.40059 15.2136 7.25718 15.0365 7.14686 14.8198L6.7904 15.0013ZM6.58488 14.0793C6.58488 14.4208 6.65146 14.7284 6.7904 15.0013L7.14686 14.8198C7.04077 14.6115 6.98488 14.3678 6.98488 14.0793H6.58488ZM7.92241 13.8793H6.78488V14.2793H7.92241V13.8793ZM8.18596 14.4141C8.14416 14.3131 8.12241 14.2036 8.12241 14.0793H7.72241C7.72241 14.2525 7.75316 14.4143 7.81636 14.5671L8.18596 14.4141ZM8.35879 14.662C8.28618 14.596 8.22758 14.5112 8.18499 14.4118L7.81732 14.5694C7.87974 14.715 7.96986 14.849 8.08977 14.958L8.35879 14.662ZM8.64113 14.8271C8.52863 14.7872 8.43397 14.7303 8.35883 14.662L8.08974 14.958C8.20704 15.0646 8.34863 15.1478 8.50741 15.2041L8.64113 14.8271ZM9.03364 14.8899C8.88458 14.8899 8.75643 14.8703 8.6445 14.8283L8.50404 15.2028C8.67208 15.2659 8.85023 15.2899 9.03364 15.2899V14.8899ZM17.6663 9.73957C17.3699 9.43788 17.0134 9.2062 16.6044 9.04364L16.4567 9.41536C16.8176 9.5588 17.1262 9.76061 17.381 10.0199L17.6663 9.73957ZM18.3536 10.8282C18.1915 10.4053 17.9628 10.0413 17.6663 9.73957L17.381 10.0199C17.6357 10.2792 17.8359 10.5952 17.9801 10.9714L18.3536 10.8282ZM18.5987 12.2343C18.5987 11.7196 18.5164 11.253 18.3536 10.8282L17.9801 10.9714C18.1235 11.3455 18.1987 11.763 18.1987 12.2343H18.5987ZM18.5987 12.57V12.2343H18.1987V12.57H18.5987ZM18.3577 13.9768C18.5213 13.5544 18.5987 13.083 18.5987 12.57H18.1987C18.1987 13.0431 18.1273 13.4641 17.9847 13.8323L18.3577 13.9768ZM17.6652 15.0616C17.966 14.7602 18.1999 14.3959 18.3583 13.975L17.984 13.8341C17.8449 14.2037 17.6414 14.5193 17.3821 14.779L17.6652 15.0616ZM16.5804 15.7572C17.0031 15.5948 17.3642 15.3631 17.6652 15.0616L17.3821 14.779C17.1231 15.0384 16.8105 15.2402 16.4369 15.3838L16.5804 15.7572ZM15.1874 16C15.6944 16 16.1567 15.92 16.5804 15.7572L16.4369 15.3838C16.0644 15.527 15.6516 15.6 15.1874 15.6V16ZM13.1793 16H15.1874V15.6H13.1793V16ZM12.9793 9V15.8H13.3793V9H12.9793ZM15.2487 8.8H13.1793V9.2H15.2487V8.8ZM16.6037 9.04335C16.1886 8.88026 15.7391 8.8 15.2487 8.8V9.2C15.6945 9.2 16.0937 9.27274 16.4574 9.41564L16.6037 9.04335ZM17.1823 12.3742H17.178V12.7742H17.1823V12.3742ZM16.9823 12.2257V12.5742H17.3823V12.2257H16.9823ZM16.5348 10.6628C16.822 11.0051 16.9823 11.5135 16.9823 12.2257H17.3823C17.3823 11.4589 17.2101 10.8453 16.8412 10.4057L16.5348 10.6628ZM15.2486 10.152C15.8341 10.152 16.25 10.3316 16.5363 10.6646L16.8396 10.4038C16.461 9.96344 15.9231 9.75198 15.2486 9.75198V10.152ZM14.3955 10.152H15.2486V9.75198H14.3955V10.152ZM14.5955 14.8565V9.95198H14.1955V14.8565H14.5955ZM15.1874 14.6565H14.3955V15.0565H15.1874V14.6565ZM15.9823 14.5141C15.7601 14.605 15.4975 14.6565 15.1874 14.6565V15.0565C15.5422 15.0565 15.8572 14.9975 16.1337 14.8844L15.9823 14.5141ZM16.5269 14.1192C16.382 14.2895 16.2023 14.4203 15.9796 14.5152L16.1364 14.8832C16.4125 14.7656 16.644 14.5989 16.8316 14.3783L16.5269 14.1192ZM16.8592 13.4744C16.7825 13.7369 16.672 13.9485 16.5269 14.1192L16.8316 14.3783C17.0191 14.1579 17.1535 13.8936 17.2431 13.5865L16.8592 13.4744ZM16.978 12.5742C16.978 12.9131 16.9401 13.2149 16.8602 13.4709L17.2421 13.59C17.3372 13.285 17.378 12.9408 17.378 12.5742H16.978Z" fill="#BCCBD7"/>
</svg>
