<svg height="496pt" viewBox="0 0 496 496" width="496pt" xmlns="http://www.w3.org/2000/svg"><path d="m392 304c0-13.230469-10.769531-24-24-24s-24 10.769531-24 24 10.769531 24 24 24 24-10.769531 24-24zm-32 0c0-4.414062 3.59375-8 8-8s8 3.585938 8 8-3.59375 8-8 8-8-3.585938-8-8zm0 0"/><path d="m488 416h-58.167969c39.40625-21.847656 66.167969-63.839844 66.167969-112 0-65.152344-48.960938-118.976562-112-126.886719v-137.113281c0-22.054688-17.945312-40-40-40h-304c-22.054688 0-40 17.945312-40 40v192c0 22.054688 17.945312 40 40 40h120v16h-8c-30.878906 0-56 25.128906-56 56 0 4.425781 3.585938 8 8 8h145.425781c11.070313 27.257812 31.230469 49.855469 56.742188 64h-122.167969c-4.414062 0-8 3.574219-8 8v64c0 4.425781 3.585938 8 8 8h304c4.414062 0 8-3.574219 8-8v-64c0-4.425781-3.585938-8-8-8zm-38.832031-188.953125-46.390625 33.136719c-1.546875-1.222656-3.152344-2.359375-4.824219-3.421875l29.640625-47.425781c7.917969 5.007812 15.160156 10.953124 21.574219 17.710937zm-121.167969 76.953125c0-22.054688 17.945312-40 40-40s40 17.945312 40 40-17.945312 40-40 40-40-17.945312-40-40zm-312-72v-192c0-13.230469 10.769531-24 24-24h304c13.230469 0 24 10.769531 24 24v136c-5.433594 0-10.742188.449219-16 1.113281v-137.113281c0-4.414062-3.585938-8-8-8h-304c-4.414062 0-8 3.585938-8 8v192c0 4.414062 3.585938 8 8 8h217.320312c-2.976562 5.128906-5.640624 10.457031-7.894531 16h-209.425781c-13.230469 0-24-10.769531-24-24zm252.238281-8h-220.238281v-176h288v132.214844c-27.089844 7.007812-50.726562 22.585937-67.761719 43.785156zm-27.246093 64.761719c-2.960938-.480469-5.960938-.761719-8.992188-.761719h-8v-16h20.214844c-1.414063 5.464844-2.535156 11.039062-3.222656 16.761719zm-64.992188-16.761719h32v16h-32zm-63.191406 64c3.710937-18.230469 19.878906-32 39.191406-32h80c2.734375 0 5.40625.359375 8.046875.894531.074219 10.746094 1.585937 21.136719 4.167969 31.105469zm255.191406-144c16.199219 0 31.558594 3.527344 45.480469 9.742188l-30.265625 48.417968c-4.847656-1.375-9.933594-2.160156-15.214844-2.160156-30.878906 0-56 25.128906-56 56 0 10.257812 2.824219 19.855469 7.65625 28.128906l-45.632812 32.589844c-11.351563-17.511719-18.023438-38.335938-18.023438-60.71875 0-61.761719 50.238281-112 112-112zm-84.320312 185.480469 45.9375-32.816407c.941406.894532 1.886718 1.785157 2.886718 2.609376l-29.734375 47.582031c-7.007812-5.039063-13.417969-10.871094-19.089843-17.375zm32.695312 25.816406 29.824219-47.710937c6.703125 2.839843 14.074219 4.414062 21.800781 4.414062 30.878906 0 56-25.128906 56-56 0-11.929688-3.777344-22.96875-10.152344-32.0625l45.511719-32.503906c12.953125 18.269531 20.640625 40.519531 20.640625 64.566406 0 61.761719-50.238281 112-112 112-18.625 0-36.160156-4.632812-51.625-12.703125zm163.625 76.703125h-288v-48h288zm0 0"/><path d="m448 448h16v16h-16zm0 0"/><path d="m416 448h16v16h-16zm0 0"/><path d="m384 448h16v16h-16zm0 0"/><path d="m288 168c17.648438 0 32-14.351562 32-32s-14.351562-32-32-32c-14.121094 0-25.992188 9.257812-30.230469 21.96875l-130.402343-36.226562c-2.917969-14.652344-15.863282-25.742188-31.367188-25.742188-17.648438 0-32 14.351562-32 32s14.351562 32 32 32c14.121094 0 25.992188-9.257812 30.230469-21.96875l130.402343 36.226562c2.917969 14.652344 15.863282 25.742188 31.367188 25.742188zm0-48c8.824219 0 16 7.175781 16 16s-7.175781 16-16 16-16-7.175781-16-16 7.175781-16 16-16zm-192-8c-8.824219 0-16-7.175781-16-16s7.175781-16 16-16 16 7.175781 16 16-7.175781 16-16 16zm0 0"/></svg>