<svg width="50" height="36" viewBox="0 0 50 36" fill="none" xmlns="http://www.w3.org/2000/svg">
<path d="M4.40332 17.9847H8.80624V13.5814H4.40332V17.9847ZM5.87083 15.0493H7.33873V16.5168H5.87083V15.0493Z" fill="#BCCBD7"/>
<path d="M50 18.8652V13.4838H11.7416V11.7226H13.2095V6.34082H0V11.7226H1.4679V29.8245H0V35.2059H13.2095V29.8245H11.7416V18.8652H50ZM48.5321 14.9514V17.3977H43.2915L45.6764 14.9514H48.5321ZM43.6264 14.9514L41.2415 17.3977H36.3716L38.7566 14.9514H43.6264ZM36.7069 14.9514L34.3216 17.3977H29.4537L31.839 14.9514H36.7069ZM29.789 14.9514L27.4036 17.3977H22.5338L24.9191 14.9514H29.789ZM22.8691 14.9514L20.4842 17.3977H15.6162L18.0012 14.9514H22.8691ZM15.9515 14.9514L13.5662 17.3977H11.7416V14.9514H15.9515ZM11.7416 33.7384H1.4679V31.292H11.7416V33.7384ZM2.93541 29.8245V11.7226H10.2741V29.8245H2.93541ZM1.4679 10.2547V7.80872H11.7416V10.2547H1.4679Z" fill="#BCCBD7"/>
<path d="M44.2268 9.61877H45.6947V11.0867H44.2268V9.61877Z" fill="#BCCBD7"/>
<path d="M44.2268 3.74792H45.6947V5.21582H44.2268V3.74792Z" fill="#BCCBD7"/>
<path d="M44.2268 6.68335H45.6947V8.15125H44.2268V6.68335Z" fill="#BCCBD7"/>
<path d="M40.2153 6.68335H41.6828V8.15125H40.2153V6.68335Z" fill="#BCCBD7"/>
<path d="M40.2153 0.8125H41.6828V2.2804H40.2153V0.8125Z" fill="#BCCBD7"/>
<path d="M40.2153 3.74792H41.6828V5.21582H40.2153V3.74792Z" fill="#BCCBD7"/>
<path d="M7.24066 20.1862H8.70856V25.0785H7.24066V20.1862Z" fill="#BCCBD7"/>
<path d="M7.24066 26.5464H8.70856V28.0139H7.24066V26.5464Z" fill="#BCCBD7"/>
</svg>
