<?xml version="1.0" encoding="utf-8"?>
<!-- Generator: Adobe Illustrator 23.0.3, SVG Export Plug-In . SVG Version: 6.00 Build 0)  -->
<svg version="1.1" id="Слой_1" xmlns="http://www.w3.org/2000/svg" xmlns:xlink="http://www.w3.org/1999/xlink" x="0px" y="0px"
	 viewBox="0 0 300 300" style="enable-background:new 0 0 300 300;" xml:space="preserve">
<style type="text/css">
	.st0{fill:#494948;}
	.st1{fill:#FFFFFF;}
</style>
<path class="st0" d="M86.2,79.4c5.2,7.7,8.2,17,8.2,27c0,11.9-4.3,22.8-11.4,31.3h22l19-49.6h27.1L132,137.7h24.7l19-49.6h27.1
	l-19,49.6H209l19-49.6h27.1l-19,49.6H300V79.4H86.2z"/>
<path class="st0" d="M70.7,148.1v139.4H21.1v-138c-4.6-2.5-8.7-5.7-12.3-9.5v159h73.4V138.1C79,142,75.1,145.4,70.7,148.1z"/>
<path class="st1" d="M318.2,279.2"/>
<path class="st0" d="M8.8,37.2v35.7c3.5-3.8,7.7-7,12.3-9.5V49.5h49.6v15.2c4.3,2.7,8.2,6.1,11.5,10V37.2H8.8z"/>
<path class="st0" d="M45.5,65.3c-22.7,0-41.1,18.4-41.1,41.1c0,22.7,18.4,41.1,41.1,41.1s41.1-18.4,41.1-41.1
	C86.7,83.7,68.3,65.3,45.5,65.3z M45.5,137.7c-17.3,0-31.3-14-31.3-31.3c0-17.3,14-31.3,31.3-31.3c17.3,0,31.3,14,31.3,31.3
	C76.9,123.7,62.9,137.7,45.5,137.7z"/>
</svg>
