<svg width="12" height="12" viewBox="0 0 12 12" fill="none" xmlns="http://www.w3.org/2000/svg">
<g clip-path="url(#clip0)">
<mask id="path-1-inside-1" fill="white">
<path d="M7.62888 6.62037C7.62888 6.47005 7.75081 6.34827 7.90125 6.34827H8.85174C9.00201 6.34827 9.12396 6.47005 9.12396 6.62037V7.57073C9.12396 7.72125 9.00201 7.84308 8.85174 7.84308H7.90125C7.75081 7.84308 7.62888 7.72125 7.62888 7.57073V6.62037Z"/>
</mask>
<path d="M7.62888 6.62037C7.62888 6.47005 7.75081 6.34827 7.90125 6.34827H8.85174C9.00201 6.34827 9.12396 6.47005 9.12396 6.62037V7.57073C9.12396 7.72125 9.00201 7.84308 8.85174 7.84308H7.90125C7.75081 7.84308 7.62888 7.72125 7.62888 7.57073V6.62037Z" fill="#1D68D9" stroke="#1D68D9" stroke-width="2" mask="url(#path-1-inside-1)"/>
<mask id="path-2-inside-2" fill="white">
<path d="M5.25348 6.62037C5.25348 6.47005 5.37543 6.34827 5.52558 6.34827H6.47619C6.62646 6.34827 6.74841 6.47005 6.74841 6.62037V7.57073C6.74841 7.72125 6.62646 7.84308 6.47619 7.84308H5.52558C5.37543 7.84308 5.25348 7.72125 5.25348 7.57073V6.62037Z"/>
</mask>
<path d="M5.25348 6.62037C5.25348 6.47005 5.37543 6.34827 5.52558 6.34827H6.47619C6.62646 6.34827 6.74841 6.47005 6.74841 6.62037V7.57073C6.74841 7.72125 6.62646 7.84308 6.47619 7.84308H5.52558C5.37543 7.84308 5.25348 7.72125 5.25348 7.57073V6.62037Z" fill="#1D68D9" stroke="#1D68D9" stroke-width="2" mask="url(#path-2-inside-2)"/>
<mask id="path-3-inside-3" fill="white">
<path d="M2.87799 6.62037C2.87799 6.47005 2.99995 6.34827 3.15022 6.34827H4.1007C4.25115 6.34827 4.37308 6.47005 4.37308 6.62037V7.57073C4.37308 7.72125 4.25115 7.84308 4.1007 7.84308H3.15022C2.99995 7.84308 2.87799 7.72125 2.87799 7.57073V6.62037Z"/>
</mask>
<path d="M2.87799 6.62037C2.87799 6.47005 2.99995 6.34827 3.15022 6.34827H4.1007C4.25115 6.34827 4.37308 6.47005 4.37308 6.62037V7.57073C4.37308 7.72125 4.25115 7.84308 4.1007 7.84308H3.15022C2.99995 7.84308 2.87799 7.72125 2.87799 7.57073V6.62037Z" fill="#1D68D9" stroke="#1D68D9" stroke-width="2" mask="url(#path-3-inside-3)"/>
<mask id="path-4-inside-4" fill="white">
<path d="M7.62888 8.99601C7.62888 8.84544 7.75081 8.72375 7.90125 8.72375H8.85174C9.00201 8.72375 9.12396 8.84544 9.12396 8.99601V9.94619C9.12396 10.0966 9.00201 10.2184 8.85174 10.2184H7.90125C7.75081 10.2184 7.62888 10.0966 7.62888 9.94619V8.99601Z"/>
</mask>
<path d="M7.62888 8.99601C7.62888 8.84544 7.75081 8.72375 7.90125 8.72375H8.85174C9.00201 8.72375 9.12396 8.84544 9.12396 8.99601V9.94619C9.12396 10.0966 9.00201 10.2184 8.85174 10.2184H7.90125C7.75081 10.2184 7.62888 10.0966 7.62888 9.94619V8.99601Z" fill="#1D68D9" stroke="#1D68D9" stroke-width="2" mask="url(#path-4-inside-4)"/>
<mask id="path-5-inside-5" fill="white">
<path d="M5.25348 8.99601C5.25348 8.84544 5.37543 8.72375 5.52558 8.72375H6.47619C6.62646 8.72375 6.74841 8.84544 6.74841 8.99601V9.94619C6.74841 10.0966 6.62646 10.2184 6.47619 10.2184H5.52558C5.37543 10.2184 5.25348 10.0966 5.25348 9.94619V8.99601Z"/>
</mask>
<path d="M5.25348 8.99601C5.25348 8.84544 5.37543 8.72375 5.52558 8.72375H6.47619C6.62646 8.72375 6.74841 8.84544 6.74841 8.99601V9.94619C6.74841 10.0966 6.62646 10.2184 6.47619 10.2184H5.52558C5.37543 10.2184 5.25348 10.0966 5.25348 9.94619V8.99601Z" fill="#1D68D9" stroke="#1D68D9" stroke-width="2" mask="url(#path-5-inside-5)"/>
<mask id="path-6-inside-6" fill="white">
<path d="M2.87799 8.99601C2.87799 8.84544 2.99995 8.72375 3.1501 8.72375H4.1007C4.25115 8.72375 4.37308 8.84544 4.37308 8.99601V9.94619C4.37308 10.0966 4.25115 10.2184 4.1007 10.2184H3.1501C2.99995 10.2184 2.87799 10.0966 2.87799 9.94619V8.99601Z"/>
</mask>
<path d="M2.87799 8.99601C2.87799 8.84544 2.99995 8.72375 3.1501 8.72375H4.1007C4.25115 8.72375 4.37308 8.84544 4.37308 8.99601V9.94619C4.37308 10.0966 4.25115 10.2184 4.1007 10.2184H3.1501C2.99995 10.2184 2.87799 10.0966 2.87799 9.94619V8.99601Z" fill="#1D68D9" stroke="#1D68D9" stroke-width="2" mask="url(#path-6-inside-6)"/>
<mask id="path-7-inside-7" fill="white">
<path d="M1.17842 1.33614V2.78774C1.17842 3.44385 1.71068 3.97257 2.36669 3.97257H3.11628C3.77234 3.97257 4.31166 3.44385 4.31166 2.78774V1.33093H7.69028V2.78774C7.69028 3.44385 8.22957 3.97257 8.88553 3.97257H9.63527C10.2913 3.97257 10.8235 3.44385 10.8235 2.78774V1.33614C11.3968 1.35343 11.868 1.82784 11.868 2.41097V10.918C11.868 11.5121 11.3864 12 10.7923 12H1.20959C0.616388 12 0.133981 11.5111 0.133981 10.918V2.41097C0.133981 1.82784 0.60508 1.35343 1.17842 1.33614ZM1.52658 10.3883C1.52658 10.645 1.73475 10.8533 1.99158 10.8533H10.0308C10.2877 10.8533 10.4958 10.645 10.4958 10.3883V5.99406C10.4958 5.73722 10.2877 5.52894 10.0308 5.52894H1.99161C1.73477 5.52894 1.5266 5.73722 1.5266 5.99406L1.52658 10.3883Z"/>
</mask>
<path d="M1.17842 1.33614V2.78774C1.17842 3.44385 1.71068 3.97257 2.36669 3.97257H3.11628C3.77234 3.97257 4.31166 3.44385 4.31166 2.78774V1.33093H7.69028V2.78774C7.69028 3.44385 8.22957 3.97257 8.88553 3.97257H9.63527C10.2913 3.97257 10.8235 3.44385 10.8235 2.78774V1.33614C11.3968 1.35343 11.868 1.82784 11.868 2.41097V10.918C11.868 11.5121 11.3864 12 10.7923 12H1.20959C0.616388 12 0.133981 11.5111 0.133981 10.918V2.41097C0.133981 1.82784 0.60508 1.35343 1.17842 1.33614ZM1.52658 10.3883C1.52658 10.645 1.73475 10.8533 1.99158 10.8533H10.0308C10.2877 10.8533 10.4958 10.645 10.4958 10.3883V5.99406C10.4958 5.73722 10.2877 5.52894 10.0308 5.52894H1.99161C1.73477 5.52894 1.5266 5.73722 1.5266 5.99406L1.52658 10.3883Z" fill="#1D68D9" stroke="#1D68D9" stroke-width="2" mask="url(#path-7-inside-7)"/>
<mask id="path-8-inside-8" fill="white">
<path d="M9.63791 3.19437H8.89645C8.6714 3.19437 8.48893 3.01217 8.48893 2.78712V0.407406C8.48893 0.182328 8.6714 0 8.89645 0H9.63791C9.86299 0 10.0454 0.182328 10.0454 0.407406V2.78712C10.0454 3.01217 9.86299 3.19437 9.63791 3.19437Z"/>
</mask>
<path d="M9.63791 3.19437H8.89645C8.6714 3.19437 8.48893 3.01217 8.48893 2.78712V0.407406C8.48893 0.182328 8.6714 0 8.89645 0H9.63791C9.86299 0 10.0454 0.182328 10.0454 0.407406V2.78712C10.0454 3.01217 9.86299 3.19437 9.63791 3.19437Z" fill="#1D68D9" stroke="#1D68D9" stroke-width="2" mask="url(#path-8-inside-8)"/>
<mask id="path-9-inside-9" fill="white">
<path d="M3.12582 3.19437H2.38437C2.15946 3.19437 1.97699 3.01217 1.97699 2.78712V0.407406C1.97696 0.182328 2.15944 0 2.38437 0H3.12582C3.35085 0 3.53333 0.182328 3.53333 0.407406V2.78712C3.53333 3.01217 3.35085 3.19437 3.12582 3.19437Z"/>
</mask>
<path d="M3.12582 3.19437H2.38437C2.15946 3.19437 1.97699 3.01217 1.97699 2.78712V0.407406C1.97696 0.182328 2.15944 0 2.38437 0H3.12582C3.35085 0 3.53333 0.182328 3.53333 0.407406V2.78712C3.53333 3.01217 3.35085 3.19437 3.12582 3.19437Z" fill="#1D68D9" stroke="#1D68D9" stroke-width="2" mask="url(#path-9-inside-9)"/>
</g>
<defs>
<clipPath id="clip0">
<rect width="12" height="12" fill="white" transform="matrix(-1 0 0 1 12.001 0)"/>
</clipPath>
</defs>
</svg>
