<svg width="31" height="31" viewBox="0 0 31 31" fill="none" xmlns="http://www.w3.org/2000/svg">
<g clip-path="url(#clip0)">
<path  d="M22.7541 17.0428L19.3393 20.4576C17.6861 19.3559 16.0821 18.0309 14.5632 16.5121C13.0145 14.9634 11.6695 13.3291 10.5572 11.6458L13.957 8.24574L5.65073 -0.0605469L1.38524 4.20518L1.36041 4.23096C-0.252603 5.97665 -0.368257 8.92406 1.03473 12.5306C2.35116 15.9144 4.87757 19.5796 8.149 22.8508C11.4592 26.1613 15.1628 28.7023 18.5768 30.0062C20.2085 30.6294 21.7002 30.9395 23.0043 30.9395C24.619 30.9395 25.9458 30.4637 26.8916 29.5178L31.0604 25.3491L22.7541 17.0428ZM28.4907 25.3491L26.6156 27.2239L20.8793 21.4876L22.7541 19.6125L28.4907 25.3491ZM11.3873 8.24574L9.53284 10.1002L3.79648 4.36388L5.65073 2.50939L11.3873 8.24574ZM19.2251 28.3088C16.0447 27.0941 12.5675 24.6996 9.43397 21.5661C6.33685 18.469 3.95541 15.0261 2.72815 11.8717C1.66716 9.14449 1.60047 6.90709 2.52878 5.66587L8.2481 11.3852L8.24432 11.3887L8.62629 12.0013C9.88193 14.0157 11.4469 15.9655 13.2785 17.797C15.0783 19.5971 16.9962 21.142 18.9784 22.3889L19.5922 22.7747L19.5945 22.7725L25.3084 28.4864C24.0769 29.3849 21.8946 29.3282 19.2251 28.3088Z" fill="#8B9298"/>
</g>
<defs>
<clipPath id="clip0">
<rect width="31" height="31" fill="white"/>
</clipPath>
</defs>
</svg>
