<svg width="22" height="22" viewBox="0 0 22 22" fill="none" xmlns="http://www.w3.org/2000/svg">
<g clip-path="url(#clip0)">
<path d="M12.8334 8.42555V6.24095L11.0001 5.17139L9.16675 6.24095V8.42555L11.0001 9.49512L12.8334 8.42555Z" fill="#1D68D9"/>
<path d="M4.7666 13.9411V16.1257L6.59994 17.1953L8.43327 16.1257V13.9411L6.59994 12.8716L4.7666 13.9411Z" fill="#1D68D9"/>
<path d="M11.3666 2.83844V0H10.6332V2.83844L6.96655 4.97721V9.68945L10.9999 12.042L15.0332 9.68945V4.97721L11.3666 2.83844ZM13.5666 8.84691L10.9999 10.344L8.43322 8.84691V5.81976L10.9999 4.32266L13.5666 5.81976V8.84691Z" fill="#1D68D9"/>
<path d="M10.6333 12.6772L6.60002 10.3247L2.97882 12.437L0.550016 11.0484L0.18335 11.685L2.56668 13.0461V17.3895L6.23335 19.5283V22H6.96668V19.5283L10.6333 17.3895V12.6772ZM9.16668 16.5469L6.60002 18.044L4.03335 16.5469V13.5201L6.60002 12.0227L9.16668 13.5198V16.5469Z" fill="#1D68D9"/>
<path d="M19.4334 13.0461L21.8167 11.685L21.45 11.0484L19.0201 12.437L15.4 10.3247L11.3667 12.6772V17.3895L15.0334 19.5283V22H15.7667V19.5283L19.4334 17.3895V13.0461ZM17.9667 16.5469L15.4 18.044L12.8334 16.5469V13.5198L15.4 12.0227L17.9667 13.5198V16.5469Z" fill="#1D68D9"/>
<path d="M13.5667 13.9411V16.1257L15.4 17.1953L17.2333 16.1257V13.9411L15.4 12.8716L13.5667 13.9411Z" fill="#1D68D9"/>
</g>
<defs>
<clipPath id="clip0">
<rect width="22" height="22" fill="white"/>
</clipPath>
</defs>
</svg>
