<?xml version="1.0" encoding="utf-8"?>
<!-- Generator: Adobe Illustrator 23.0.3, SVG Export Plug-In . SVG Version: 6.00 Build 0)  -->
<svg version="1.1" id="Слой_1" xmlns="http://www.w3.org/2000/svg" xmlns:xlink="http://www.w3.org/1999/xlink" x="0px" y="0px"
	 viewBox="0 0 300 300" style="enable-background:new 0 0 300 300;" xml:space="preserve">
<style type="text/css">
	.st0{fill:#494948;}
</style>
<path class="st0" d="M84.2,234.1l-8.4-5.4c9.5-15,23.2-36.6,32-50.6l8.5,5.3C107.5,197.4,93.8,219,84.2,234.1z"/>
<path class="st0" d="M256.4,250.7H99.8c-10.3,0-19.9-5.3-25.7-14.2l-1.7-2.6l2-3.3c0.3-0.6,0.7-1.1,1-1.7l3.3-5.5l15.7,15.4h167
	l13.8-14.7v-38.2H101.1l4.5-7.6c5.9-9.9,7.1-12.1,7.3-12.5c0.4-1,0.5-5.2-1.9-8.1c-0.6-0.8-2.6-3.1-8.1-1.8
	c-6.1,1.5-15.3,8.3-25.8,19l-8.6,8.8V79.2c0-18,14-32.7,31.2-32.7h156.6c17.2,0,31.2,14.6,31.2,32.7V218
	C287.6,236.1,273.6,250.7,256.4,250.7z M118.7,175.8h158.9V79.2c0-12.5-9.5-22.7-21.2-22.7H99.8c-11.7,0-21.2,10.2-21.2,22.7v80.5
	c8.5-7.5,15.8-12,22-13.6c10.3-2.6,16,2.3,18.5,5.5c4.7,5.9,5.1,14.4,2.8,18.7C121.7,170.7,121.3,171.4,118.7,175.8z"/>
<path class="st0" d="M21.4,278.9c-0.5,0-0.9,0-1.3,0c-11.5-0.6-14.3-0.1-14.4-0.1c0.2,0,0.2-0.1,0.2-0.1L3.6,271
	c1.9-0.6,8.1-0.6,16.9-0.2c4.3,0.2,15.7-1.5,28.1-9.4c4.3-2.8,8.4-6.2,11.9-10.2l7.3-9.6l8.8-14.5l6.8,4.2l-9.2,15l-7.7,10.1
	c-4.1,4.5-8.7,8.5-13.7,11.7C40.5,276.1,28.5,278.9,21.4,278.9z"/>
<path class="st0" d="M81,234.8l-6.9-4.1c9.2-15.3,22.4-37.2,30.8-51.3l6.9,4.1C103.4,197.6,90.2,219.6,81,234.8z"/>
<rect x="63.6" y="173.2" transform="matrix(0.502 -0.8649 0.8649 0.502 -118.2239 149.0044)" class="st0" width="13.3" height="8"/>
<path class="st0" d="M11.7,152.3l-7.9-1.4c0.1-0.5,2.1-11.8,13.3-23.1c10.8-10.8,50-31.2,51.7-32.1l3.7,7.1
	c-0.4,0.2-39.8,20.7-49.7,30.6C13.5,142.9,11.7,152.2,11.7,152.3z"/>
<rect x="75.8" y="89.8" class="st0" width="204.4" height="10"/>
<circle class="st0" cx="141.7" cy="205.9" r="11.1"/>
<circle class="st0" cx="177.7" cy="205.9" r="11.1"/>
<circle class="st0" cx="213.7" cy="205.9" r="11.1"/>
</svg>
