<?xml version="1.0" encoding="utf-8"?>
<!-- Generator: Adobe Illustrator 23.0.3, SVG Export Plug-In . SVG Version: 6.00 Build 0)  -->
<svg version="1.1" id="Слой_1" xmlns="http://www.w3.org/2000/svg" xmlns:xlink="http://www.w3.org/1999/xlink" x="0px" y="0px"
	 viewBox="0 0 569 569" style="enable-background:new 0 0 569 569;" xml:space="preserve">
<path d="M39.5,91l32.8,57.3c1.1,1.9,3,3.3,5.1,3.9l30.6,7.6l104.8,104.8l11.6-11.6L117.9,146.6c-1-1.1-2.4-1.8-3.8-2.2l-29.4-7.4
	L56.8,88.2l23.9-23.9l48.9,27.9l7.4,29.4c0.4,1.4,1.1,2.8,2.2,3.8l106.5,106.5l11.6-11.6L152.4,115.5l-7.6-30.5
	c-0.5-2.2-1.9-4-3.9-5.1L83.5,47c-3.2-1.8-7.2-1.3-9.8,1.3L40.9,81.1C38.3,83.7,37.7,87.7,39.5,91z"/>
<path d="M380,207.3L199.8,387.4l-11.6-11.6l180.2-180.2L380,207.3z"/>
<path d="M168.3,393.8c-1.5-2.5-4.1-4-7-4h-49.1c-2.9,0-5.5,1.5-7,4l-24.6,40.9c-1.6,2.6-1.6,5.8,0,8.4l24.6,40.9c1.5,2.5,4.1,4,7,4
	h49.1c2.9,0,5.5-1.5,7-4l24.6-40.9c1.6-2.6,1.6-5.8,0-8.4L168.3,393.8z M156.6,471.7h-39.9L97.1,439l19.7-32.8h39.9l19.7,32.8
	L156.6,471.7z"/>
<path d="M431.5,242.4c54.1,0.2,98.1-43.5,98.3-97.6c0-8.2-1-16.4-3-24.4c-1.1-4.4-5.5-7.1-9.9-6c-1.4,0.4-2.8,1.1-3.8,2.2l-51,50.9
	l-40.4-13.5l-13.5-40.4l51-51c3.2-3.2,3.2-8.4,0-11.6c-1.1-1.1-2.4-1.8-3.8-2.2c-52.4-13.3-105.7,18.5-119,70.9c-2,8-3,16.1-3,24.3
	c0,6.4,0.7,12.9,2,19.2L155.9,342.7c-6.3-1.3-12.7-2-19.2-2c-54.3,0-98.3,44-98.3,98.3c0,54.3,44,98.3,98.3,98.3
	c54.3,0,98.3-44,98.3-98.3c0-6.4-0.7-12.9-2-19.2l42.9-42.9l18.8,18.8c3.2,3.2,8.4,3.2,11.6,0l4.1-4.1c3.6-3.6,9.4-3.6,13,0
	c3.6,3.6,3.6,9.4,0,13c0,0,0,0,0,0l-4.1,4.1c-3.2,3.2-3.2,8.4,0,11.6l97.7,97.7c25.7,25.9,67.5,26.1,93.5,0.4
	c25.9-25.7,26.1-67.5,0.4-93.5c-0.1-0.1-0.3-0.3-0.4-0.4l-97.7-97.7c-3.2-3.2-8.4-3.2-11.6,0l-4.1,4.1c-3.6,3.6-9.4,3.6-13,0
	c-3.6-3.6-3.6-9.4,0-13c0,0,0,0,0,0l4.1-4.1c3.2-3.2,3.2-8.4,0-11.6l-18.8-18.8l42.9-42.9C418.6,241.8,425.1,242.4,431.5,242.4z
	 M463.7,520.9c-5.9,0-11.8-1.1-17.4-3.2l64-64c9.7,25.7-3.3,54.3-29,64C475.6,519.8,469.7,520.9,463.7,520.9z M370.9,308
	c-9.1,10.8-7.6,26.9,3.2,36c9.5,8,23.4,8,32.9,0l91.9,92c1,1,1.9,2.1,2.8,3.1l-70,70c-1.1-0.9-2.1-1.8-3.1-2.8l-92-92
	c9.1-10.8,7.6-26.9-3.2-36c-9.5-8-23.4-8-32.9,0l-13.1-13.1l70.4-70.3L370.9,308z M404,225.7L218.2,411.4c-2,2-2.9,5-2.2,7.8
	c11.2,44.1-15.4,89-59.5,100.2c-44.1,11.2-89-15.4-100.2-59.5c-11.2-44.1,15.4-89,59.6-100.2c13.3-3.4,27.3-3.4,40.7,0
	c2.8,0.7,5.7-0.1,7.8-2.2L350,171.7c2-2,2.9-5,2.2-7.8c-11.2-43.6,15.1-88,58.7-99.2c8.2-2.1,16.8-2.9,25.3-2.4L393,105.6
	c-2.2,2.2-3,5.4-2,8.4l16.4,49.1c0.8,2.4,2.7,4.4,5.2,5.2l49.1,16.4c2.9,1,6.2,0.2,8.4-2l43.2-43.2c0.1,1.6,0.1,3.1,0.1,4.6
	c0.2,45-36.1,81.7-81.1,81.9c-7,0-13.9-0.8-20.6-2.5C408.9,222.8,406,223.6,404,225.7L404,225.7L404,225.7z"/>
<path d="M461.9,457.7l-11.6,11.6l-81.9-81.9l11.6-11.6L461.9,457.7z"/>
</svg>
