<svg width="60" height="60" viewBox="0 0 60 60" fill="none" xmlns="http://www.w3.org/2000/svg">
<path d="M58.5352 14.4079H51.3531C50.5453 14.4079 49.8882 15.065 49.8882 15.8728V15.8822H48.0851C47.3946 15.8822 46.8158 16.3629 46.6617 17.0067C46.2826 16.978 45.8585 16.9458 45.4009 16.9112C43.9765 15.2674 42.2892 13.8559 40.4057 12.7488C39.9872 12.5027 39.4485 12.6426 39.2026 13.0612C38.9566 13.4797 39.0966 14.0183 39.515 14.2643C40.6932 14.9566 41.7868 15.7801 42.7772 16.7124C38.7887 16.4103 34.1737 16.0616 34.1237 16.0616C32.9084 16.0616 31.7126 16.6848 30.9512 17.6262L30.8188 17.7542L30.4624 17.3934C29.5557 16.4512 27.981 15.8185 26.5413 15.8185C26.284 15.8185 26.0355 15.8397 25.8027 15.8815L17.0822 17.4467C20.4055 13.9483 25.0983 11.7629 30.2931 11.7629C32.0631 11.7629 33.8122 12.0158 35.4918 12.5148C35.9576 12.6533 36.4464 12.3879 36.5845 11.9225C36.7228 11.4572 36.4576 10.9679 35.9923 10.8297C34.1501 10.2825 32.2325 10.0051 30.293 10.0051C23.7977 10.0051 18.0177 13.1205 14.365 17.9345L13.6141 18.0692V17.3471C13.6141 16.5394 12.9571 15.8823 12.1493 15.8823H10.9945C15.1839 10.1673 21.8441 6.37311 29.3895 6.09115L27.9014 7.57932C27.5582 7.92256 27.5582 8.47908 27.9014 8.82221C28.073 8.99377 28.298 9.07955 28.5229 9.07955C28.7477 9.07955 28.9727 8.99377 29.1443 8.82209L32.148 5.81822C32.3129 5.65346 32.4055 5.42998 32.4055 5.19678C32.4055 4.96357 32.3129 4.74021 32.148 4.57521L29.1443 1.57158C28.8011 1.22846 28.2445 1.22834 27.9014 1.5717C27.5582 1.91494 27.5582 2.47146 27.9014 2.81471L29.4178 4.331C22.8877 4.54826 16.7798 7.19236 12.1371 11.8351C11.2139 12.7584 10.3721 13.7412 9.61055 14.7722C9.35262 14.546 9.01594 14.4078 8.6468 14.4078H1.46484C0.65707 14.4078 0 15.0649 0 15.8727V36.3228C0 37.1306 0.65707 37.7877 1.46484 37.7877H8.64691C9.45469 37.7877 10.1118 37.1306 10.1118 36.3228V36.3135H11.3343C13.9857 44.2446 21.4814 49.9772 30.293 49.9772C39.1045 49.9772 46.6008 44.2447 49.252 36.3135H49.8882V36.3228C49.8882 37.1306 50.5453 37.7877 51.3531 37.7877H52.9092C52.2955 39.57 51.4705 41.2812 50.442 42.8849C50.1799 43.2934 50.2988 43.8371 50.7074 44.0992C50.8542 44.1934 51.0186 44.2384 51.1811 44.2384C51.4705 44.2384 51.7539 44.0955 51.9218 43.8338C53.1362 41.9403 54.0871 39.9081 54.7616 37.7877H58.5352C59.3429 37.7877 60 37.1306 60 36.3228V15.8728C60 15.0651 59.3429 14.4079 58.5352 14.4079ZM11.8563 34.5558H10.1118V30.4688C10.1118 29.9833 9.71824 29.5899 9.23285 29.5899C8.74746 29.5899 8.35395 29.9833 8.35395 30.4688V36.03H1.75781V16.1658H8.35395V26.3673C8.35395 26.8528 8.74746 27.2462 9.23285 27.2462C9.71824 27.2462 10.1118 26.8528 10.1118 26.3673V17.64H11.8563V34.5558ZM32.7834 18.2873C33.1781 17.999 33.6571 17.8194 34.1238 17.8194C34.1579 17.8194 42.8211 18.4775 46.6203 18.7663V32.626L45.5602 32.9499C45.4039 32.6032 45.1855 32.2841 44.9092 32.0078L43.7189 30.8176C43.6978 30.794 43.6761 30.7703 43.6506 30.7441L42.3086 29.3856C42.3495 29.3666 42.3909 29.3494 42.4315 29.3294C42.8673 29.1158 43.0475 28.5894 42.8339 28.1535C42.6203 27.7176 42.0938 27.5375 41.6579 27.751C41.0109 28.0681 40.3144 28.2289 39.5877 28.2289C37.1902 28.2289 35.1785 26.4349 34.9084 24.056C34.8703 23.7207 34.6437 23.4368 34.325 23.3254C34.0063 23.2139 33.6523 23.2951 33.4137 23.5336L28.374 28.5731C28.0779 28.8692 27.6816 29.0325 27.2582 29.0325C26.8348 29.0325 26.4384 28.8692 26.1422 28.5731L25.3187 27.7497C24.705 27.1359 24.7034 26.1382 25.3139 25.5225C25.3138 25.5225 32.7592 18.3179 32.7834 18.2873ZM13.6148 19.8547L26.1132 17.6115C26.2438 17.5882 26.3878 17.5762 26.5413 17.5762C27.4883 17.5762 28.6307 18.0227 29.1983 18.6146C29.2014 18.6178 29.2044 18.621 29.2075 18.624L29.5552 18.976L24.0863 24.2644C24.0827 24.2678 24.0791 24.2713 24.0757 24.2748C22.7752 25.5754 22.7752 27.6919 24.0758 28.9926L24.8994 29.8161C25.5275 30.4442 26.3653 30.7903 27.2583 30.7903C28.1513 30.7903 28.989 30.4444 29.6171 29.8161L33.5609 25.8725C34.5067 28.3025 36.8664 29.9867 39.5879 29.9867C39.8562 29.9867 40.1214 29.9694 40.3834 29.9375L42.3961 31.9751L42.4235 32.0056C42.4347 32.0182 42.4463 32.0305 42.4582 32.0424L43.6665 33.2508C43.9352 33.5195 44.0832 33.8791 44.0832 34.2635C44.0832 34.6479 43.9352 35.0076 43.6666 35.2761L43.5416 35.401C43.2729 35.6697 42.9132 35.8179 42.5287 35.8179C42.1443 35.8179 41.7845 35.6697 41.5159 35.4012L40.7713 34.6563C40.7712 34.6562 40.7712 34.6562 40.7712 34.6562L40.6996 34.5845L40.693 34.5779L36.2811 30.1662C35.9379 29.823 35.3814 29.823 35.0382 30.1662C34.695 30.5095 34.695 31.0659 35.0382 31.4092L39.4386 35.8096C39.9714 36.368 39.9619 37.2647 39.417 37.8096L39.2918 37.9346C39.0231 38.2033 38.6633 38.3515 38.2789 38.3515C37.8946 38.3515 37.5349 38.2035 37.2661 37.9345L36.4448 37.1133L32.0066 32.6751C31.6634 32.3318 31.1068 32.3319 30.7636 32.675C30.4204 33.0183 30.4204 33.5748 30.7635 33.918L35.19 38.3446C35.7211 38.9031 35.7109 39.7988 35.1668 40.3431L35.0418 40.468C34.773 40.7367 34.4133 40.8847 34.0289 40.8848C33.6445 40.8848 33.2848 40.7367 33.0161 40.4681L32.1929 39.6449C32.1928 39.6446 32.1926 39.6445 32.1925 39.6443L28.5564 36.0083C28.2131 35.6652 27.6566 35.6651 27.3135 36.0084C26.9702 36.3517 26.9702 36.9081 27.3135 37.2513L30.9383 40.8762C31.4714 41.4347 31.462 42.3315 30.9165 42.8771L30.792 43.0017C30.5232 43.2704 30.1636 43.4184 29.7791 43.4184C29.7752 43.4184 29.7714 43.4179 29.7675 43.4179C30.0912 42.8223 30.2249 42.1503 30.1448 41.49C30.0455 40.6706 29.6345 39.9711 28.9877 39.5205C28.5327 39.2033 27.9918 39.0356 27.4237 39.0356C27.3252 39.0356 27.227 39.0408 27.1296 39.0506C27.1261 38.9713 27.1204 38.8919 27.1107 38.8128C27.0114 37.9936 26.6003 37.2941 25.9534 36.8431C25.4984 36.526 24.9575 36.3583 24.3895 36.3583C24.2912 36.3583 24.1934 36.3635 24.0961 36.3733C24.058 35.5001 23.6537 34.6779 22.9191 34.1659C22.464 33.8488 21.9233 33.6812 21.3553 33.6812C21.2569 33.6812 21.1589 33.6863 21.0616 33.6962C21.0234 32.823 20.6194 32.0008 19.8846 31.4888C19.4296 31.1717 18.8888 31.004 18.3207 31.004C17.3057 31.004 16.3351 31.5274 15.7245 32.4038L15.4693 32.7699L13.6148 31.3442V19.8547ZM19.374 37.2719L19.5953 36.9545C19.6099 36.9343 19.6255 36.9149 19.6398 36.8944L20.2228 36.0576C20.5018 35.676 20.9317 35.4392 21.3547 35.4392C21.5645 35.4392 21.7525 35.4961 21.9135 35.6082C22.4169 35.9591 22.4834 36.7708 22.0583 37.3807L21.232 38.5664C20.9539 38.9653 20.5118 39.2134 20.078 39.2134C19.8682 39.2134 19.6801 39.1564 19.5191 39.0443C19.0155 38.6933 18.9492 37.8817 19.374 37.2719ZM19.0238 34.7037L18.1977 35.8891C17.9195 36.2881 17.4773 36.5361 17.0434 36.5361C16.8336 36.5361 16.6455 36.4793 16.4845 36.367C16.2537 36.2061 16.1054 35.9437 16.0671 35.6279C16.0243 35.2752 16.1211 34.9083 16.3397 34.5946L17.166 33.4091C17.4441 33.0102 17.8862 32.7621 18.32 32.7621C18.5299 32.7621 18.7179 32.819 18.879 32.9312C19.3825 33.2821 19.4488 34.0938 19.0238 34.7037ZM22.4085 39.9487L22.6298 39.631C22.6445 39.611 22.6598 39.5918 22.6741 39.5713L23.2576 38.734C23.5366 38.3529 23.966 38.1163 24.3888 38.1163C24.5986 38.1163 24.7867 38.1732 24.9477 38.2854C25.1786 38.4463 25.3268 38.7088 25.3651 39.0246C25.4079 39.3774 25.3111 39.7444 25.0925 40.0578L24.2664 41.2433C23.9882 41.6423 23.546 41.8903 23.1121 41.8903C22.9023 41.8903 22.7142 41.8335 22.5532 41.7212C22.3223 41.5604 22.1742 41.2979 22.1359 40.982C22.0932 40.6292 22.19 40.2623 22.4085 39.9487ZM25.4432 42.6259L25.6658 42.3063C25.68 42.287 25.6949 42.2685 25.7086 42.2487L26.2934 41.4095C26.5724 41.0294 27.0012 40.7937 27.4232 40.7937C27.6329 40.7937 27.821 40.8505 27.9821 40.9629C28.2129 41.1235 28.361 41.3859 28.3993 41.7017C28.4421 42.0546 28.3453 42.4217 28.1269 42.7352L27.3006 43.9207C27.0226 44.3196 26.5804 44.5676 26.1465 44.5676C25.9368 44.5676 25.7487 44.5106 25.5877 44.3985C25.0843 44.0476 25.018 43.2358 25.4432 42.6259ZM30.293 48.2195C22.3392 48.2195 15.5609 43.0984 13.0778 35.9806C13.405 35.7118 13.6141 35.3044 13.6141 34.8487V33.5618L14.532 34.2675C14.3318 34.7685 14.2576 35.3079 14.3221 35.8397C14.4214 36.6589 14.8324 37.3584 15.4794 37.8092C15.9345 38.1265 16.4754 38.2942 17.0434 38.2942C17.1421 38.2942 17.2402 38.2877 17.3377 38.278C17.3754 39.1517 17.779 39.9745 18.514 40.4866C18.969 40.8037 19.5098 40.9714 20.0779 40.9714C20.1765 40.9714 20.2745 40.965 20.3721 40.9553C20.3755 41.0349 20.3814 41.1145 20.391 41.194C20.4904 42.0132 20.9013 42.7127 21.5482 43.1635C22.0032 43.4808 22.5442 43.6485 23.1122 43.6485C23.2109 43.6485 23.3089 43.642 23.4064 43.6323C23.4441 44.5059 23.8477 45.3286 24.5827 45.8409C25.0377 46.158 25.5785 46.3257 26.1465 46.3257C27.137 46.3257 28.0842 45.8264 28.697 44.9878C29.0392 45.1105 29.4034 45.1766 29.7786 45.1766C30.6326 45.1766 31.4337 44.8459 32.0347 44.2448L32.1594 44.1201C32.6201 43.6594 32.9094 43.0861 33.0262 42.484C33.3451 42.5886 33.6826 42.643 34.0287 42.643C34.8826 42.643 35.6836 42.3122 36.2842 41.7117L36.4093 41.5867C36.8699 41.126 37.159 40.5528 37.2759 39.9506C37.5949 40.0554 37.9324 40.1096 38.2786 40.1096C39.1325 40.1096 39.9338 39.7788 40.5341 39.1782L40.6593 39.0533C41.12 38.5924 41.4093 38.0192 41.5262 37.4171C41.8451 37.5217 42.1825 37.576 42.5285 37.576C43.3825 37.576 44.1836 37.2452 44.784 36.6447L44.9091 36.5198C45.4034 36.0256 45.7145 35.3955 45.8094 34.7122L46.6202 34.4645V34.8491C46.6202 35.4261 46.9566 35.9249 47.4427 36.1635C44.908 43.1853 38.1785 48.2195 30.293 48.2195ZM49.8882 34.5558H48.378V33.5892H49.8882V34.5558ZM49.8882 31.8314H48.378V30.3958H49.8882V31.8314ZM49.8882 28.638H48.378V27.2025H49.8882V28.638ZM49.8882 25.4447H48.378V24.0091H49.8882V25.4447ZM49.8882 22.2513H48.378V20.816H49.8882V22.2513ZM49.8882 19.0582H48.378V17.64H49.8882V19.0582ZM58.2422 36.03H51.6461V16.1658H58.2422V36.03Z" fill="white"/>
<path d="M29.2674 26.1004L27.8093 24.6423C27.4702 24.303 26.9216 24.2984 26.5768 24.6318L25.4466 25.7247C25.4368 25.7342 25.4272 25.7438 25.418 25.7537C24.9454 26.2551 24.9566 27.0588 25.4432 27.5455L26.3451 28.4472C26.5855 28.688 26.9084 28.8207 27.2541 28.8207C27.5999 28.8207 27.9229 28.6879 28.163 28.4476L29.2672 27.3434C29.432 27.1787 29.5247 26.9551 29.5247 26.7219C29.5247 26.4888 29.4321 26.2653 29.2674 26.1004ZM27.2542 26.8703L27.0261 26.6424L27.1774 26.4962L27.4029 26.7218L27.2542 26.8703Z" fill="white"/>
<path d="M31.2074 24.0766L29.8597 22.7289C29.5165 22.3858 28.96 22.3858 28.6168 22.7289C28.2736 23.0723 28.2736 23.6287 28.6168 23.9719L29.9645 25.3196C30.1361 25.4911 30.3611 25.5769 30.5859 25.5769C30.8108 25.5769 31.0358 25.4911 31.2074 25.3196C31.5506 24.9762 31.5506 24.4198 31.2074 24.0766Z" fill="white"/>
<path d="M54.9023 29.913C53.5453 29.913 52.4414 31.017 52.4414 32.3739C52.4414 33.7308 53.5453 34.8348 54.9023 34.8348C56.2594 34.8348 57.3633 33.7308 57.3633 32.3739C57.3633 31.017 56.2594 29.913 54.9023 29.913ZM54.9023 33.077C54.5146 33.077 54.1992 32.7617 54.1992 32.3739C54.1992 31.9861 54.5146 31.6708 54.9023 31.6708C55.2901 31.6708 55.6055 31.9861 55.6055 32.3739C55.6055 32.7617 55.2901 33.077 54.9023 33.077Z" fill="white"/>
<path d="M4.98047 29.913C3.62344 29.913 2.51953 31.017 2.51953 32.3739C2.51953 33.7308 3.62344 34.8348 4.98047 34.8348C6.3375 34.8348 7.44141 33.7308 7.44141 32.3739C7.44141 31.017 6.3375 29.913 4.98047 29.913ZM4.98047 33.077C4.5927 33.077 4.27734 32.7617 4.27734 32.3739C4.27734 31.9861 4.5927 31.6708 4.98047 31.6708C5.36824 31.6708 5.68359 31.9861 5.68359 32.3739C5.68359 32.7617 5.36824 33.077 4.98047 33.077Z" fill="white"/>
<path d="M49.3616 45.8687C49 45.545 48.4443 45.5756 48.1206 45.9374C43.6205 50.9647 37.1875 53.8631 30.4499 53.9075L31.9363 52.4209C32.2795 52.0777 32.2794 51.5211 31.9362 51.178C31.5928 50.8349 31.0364 50.8348 30.6932 51.1781L27.6896 54.182C27.3464 54.5252 27.3465 55.0816 27.6896 55.4249L30.6932 58.4285C30.8647 58.6001 31.0897 58.6859 31.3146 58.6859C31.5395 58.6859 31.7645 58.6 31.936 58.4285C32.2793 58.0852 32.2793 57.5287 31.936 57.1854L30.4164 55.6657C37.6655 55.6307 44.5897 52.5176 49.4304 47.1096C49.7541 46.7481 49.7232 46.1925 49.3616 45.8687Z" fill="white"/>
</svg>
