<svg width="63" height="63" viewBox="0 0 63 63" fill="none" xmlns="http://www.w3.org/2000/svg">
<path d="M52.4394 20.6507L47.7328 15.9442C47.5597 15.771 47.3251 15.6738 47.0802 15.6738H44.8748V14.7212C44.8748 14.2115 44.4618 13.7984 43.952 13.7984C43.4422 13.7984 43.0291 14.2115 43.0291 14.7212V15.6738H36.7017V14.7212C36.7017 14.2115 36.2886 13.7984 35.7788 13.7984C35.269 13.7984 34.856 14.2115 34.856 14.7212V15.6738H34.4421V10.4902C34.4421 9.98057 34.029 9.56738 33.5192 9.56738H10.459C9.94932 9.56738 9.53613 9.98057 9.53613 10.4902C9.53613 10.9999 9.94932 11.4131 10.459 11.4131H32.5963V32.5738H3.52837V11.4131H6.45996C6.96962 11.4131 7.38281 10.9999 7.38281 10.4902C7.38281 9.98057 6.96962 9.56738 6.45996 9.56738H2.60552C2.09586 9.56738 1.68267 9.98057 1.68267 10.4902V32.5743H0.922852C0.413191 32.5743 0 32.9875 0 33.4972V45.3921C0 45.9018 0.413191 46.315 0.922852 46.315H6.10608C6.10989 50.2404 9.30444 53.4329 13.2307 53.4329C17.157 53.4329 20.3515 50.2404 20.3553 46.315H25.061C25.5706 46.315 25.9838 45.9018 25.9838 45.3921C25.9838 44.8825 25.5706 44.4693 25.061 44.4693H20.1136C19.3006 41.4291 16.5236 39.1832 13.2307 39.1832C9.93776 39.1832 7.16071 41.4291 6.34774 44.4693H1.8457V42.2789H2.99016C4.66545 42.2789 6.02831 40.9159 6.02831 39.2406C6.02831 37.5653 4.66532 36.2024 2.99016 36.2024H1.8457V34.42H33.5192C34.029 34.42 34.4421 34.0068 34.4421 33.4972V33.4967V17.5195H46.698L51.1342 21.9557C51.4947 22.3161 52.079 22.3161 52.4394 21.9557C52.7998 21.5953 52.7998 21.011 52.4394 20.6507ZM13.2306 41.029C16.1414 41.029 18.5097 43.3973 18.5097 46.3081C18.5097 49.2189 16.1415 51.5872 13.2306 51.5872C10.3197 51.5872 7.95154 49.2189 7.95154 46.3081C7.95154 43.3973 10.3198 41.029 13.2306 41.029ZM2.99016 38.0481C3.64772 38.0481 4.18261 38.5831 4.18261 39.2406C4.18261 39.8982 3.6476 40.4332 2.99016 40.4332H1.8457V38.0481H2.99016Z" fill="white"/>
<path d="M62.7298 30.9409L54.8696 23.0806C54.509 22.7202 53.9248 22.7202 53.5644 23.0806C53.204 23.441 53.204 24.0254 53.5644 24.3857L61.1543 31.9756V36.2021H57.3174C55.6422 36.2021 54.2793 37.5651 54.2793 39.2404C54.2793 40.9157 55.6422 42.2787 57.3174 42.2787H61.1543V44.469H55.2581C54.4452 41.4289 51.668 39.1829 48.3751 39.1829C45.0823 39.1829 42.3051 41.4289 41.4921 44.469H38.739V34.0628H53.5675C54.0773 34.0628 54.4903 33.6496 54.4903 33.14V29.304C54.4903 29.0608 54.3943 28.8274 54.2232 28.6547L45.5693 19.9144C45.3961 19.7393 45.1599 19.6409 44.9136 19.6409H37.8161C37.3063 19.6409 36.8933 20.0541 36.8933 20.5637V44.469H29.0391C28.5294 44.469 28.1162 44.8822 28.1162 45.3919C28.1162 45.9015 28.5294 46.3147 29.0391 46.3147H41.2505C41.2543 50.2402 44.4488 53.4326 48.3751 53.4326C52.3014 53.4326 55.496 50.2402 55.4998 46.3147H62.0771C62.5869 46.3147 63 45.9015 63 45.3919V31.5934C63 31.3487 62.9028 31.1139 62.7298 30.9409ZM38.739 21.4865H44.5286L52.6446 29.6835V32.217H38.739V21.4865ZM48.3751 51.5869C45.4642 51.5869 43.0961 49.2186 43.0961 46.3078C43.0961 43.397 45.4642 41.0288 48.3751 41.0288C51.2861 41.0288 53.6542 43.397 53.6542 46.3078C53.6542 49.2186 51.2861 51.5869 48.3751 51.5869ZM57.7167 40.433H57.3174C56.66 40.433 56.125 39.898 56.125 39.2404C56.125 38.5828 56.66 38.0478 57.3174 38.0478H57.7167V40.433ZM61.1543 40.433H59.5624V38.0478H61.1543V40.433Z" fill="white"/>
<path d="M42.1732 35.5291H41.1155C40.6057 35.5291 40.1926 35.9422 40.1926 36.4519C40.1926 36.9616 40.6057 37.3748 41.1155 37.3748H42.1732C42.683 37.3748 43.0961 36.9616 43.0961 36.4519C43.0961 35.9422 42.683 35.5291 42.1732 35.5291Z" fill="white"/>
<path d="M31.2116 36.7791H29.1923C28.6826 36.7791 28.2694 37.1922 28.2694 37.7019C28.2694 38.2116 28.6826 38.6248 29.1923 38.6248H31.2116C31.7212 38.6248 32.1344 38.2116 32.1344 37.7019C32.1344 37.1922 31.7214 36.7791 31.2116 36.7791Z" fill="white"/>
<path d="M13.2306 42.7368C11.2615 42.7368 9.65955 44.3388 9.65955 46.3079C9.65955 48.2769 11.2615 49.8788 13.2306 49.8788C15.1996 49.8788 16.8016 48.2769 16.8016 46.3079C16.8017 44.3388 15.1997 42.7368 13.2306 42.7368ZM13.2306 48.0332C12.2792 48.0332 11.5053 47.2593 11.5053 46.308C11.5053 45.3566 12.2792 44.5826 13.2306 44.5826C14.1819 44.5826 14.9559 45.3566 14.9559 46.308C14.956 47.2593 14.182 48.0332 13.2306 48.0332Z" fill="white"/>
<path d="M48.3751 42.7368C46.406 42.7368 44.8042 44.3388 44.8042 46.3079C44.8042 48.2769 46.4061 49.8788 48.3751 49.8788C50.3441 49.8788 51.9462 48.2769 51.9462 46.3079C51.9462 44.3388 50.3441 42.7368 48.3751 42.7368ZM48.3751 48.0332C47.4239 48.0332 46.6499 47.2593 46.6499 46.308C46.6499 45.3566 47.4239 44.5826 48.3751 44.5826C49.3265 44.5826 50.1005 45.3566 50.1005 46.308C50.1005 47.2593 49.3265 48.0332 48.3751 48.0332Z" fill="white"/>
<path d="M29.9855 15.0884H6.1393C5.62964 15.0884 5.21645 15.5016 5.21645 16.0112C5.21645 16.5209 5.62964 16.9341 6.1393 16.9341H29.9856C30.4953 16.9341 30.9085 16.5209 30.9085 16.0112C30.9085 15.5016 30.4952 15.0884 29.9855 15.0884Z" fill="white"/>
<path d="M29.9855 19.6409H6.1393C5.62964 19.6409 5.21645 20.0541 5.21645 20.5637C5.21645 21.0734 5.62964 21.4866 6.1393 21.4866H29.9856C30.4953 21.4866 30.9085 21.0734 30.9085 20.5637C30.9085 20.0541 30.4952 19.6409 29.9855 19.6409Z" fill="white"/>
<path d="M29.9855 24.1934H6.1393C5.62964 24.1934 5.21645 24.6066 5.21645 25.1162C5.21645 25.6259 5.62964 26.0391 6.1393 26.0391H29.9856C30.4953 26.0391 30.9085 25.6259 30.9085 25.1162C30.9085 24.6066 30.4952 24.1934 29.9855 24.1934Z" fill="white"/>
<path d="M45.2965 24.242C44.9361 23.8816 44.3519 23.8816 43.9914 24.242L40.6071 27.6261C40.2467 27.9865 40.2467 28.5709 40.6071 28.9312C40.7873 29.1114 41.0235 29.2015 41.2597 29.2015C41.4958 29.2015 41.7321 29.1114 41.9123 28.9312L45.2966 25.547C45.6569 25.1867 45.6569 24.6024 45.2965 24.242Z" fill="white"/>
<path d="M46.8644 27.1936C46.5038 26.8333 45.9195 26.8332 45.5592 27.1936L44.2131 28.5397C43.8525 28.9001 43.8525 29.4844 44.2129 29.8448C44.3932 30.025 44.6293 30.1151 44.8656 30.1151C45.1017 30.1151 45.338 30.025 45.5181 29.8448L46.8642 28.4986C47.2248 28.1382 47.2248 27.554 46.8644 27.1936Z" fill="white"/>
</svg>
