<svg width="22" height="22" viewBox="0 0 22 22" fill="none" xmlns="http://www.w3.org/2000/svg">
<path d="M21.6332 5.16506V0.367287H16.8358L11 6.20312L4.79733 0L0 4.79777L6.20267 11.0004L0 17.2031L4.79733 22.0004L11.0004 15.7978L17.2027 22.0004L22 17.2031L15.7973 11.0004L21.6332 5.16506ZM19.861 2.13948V4.43048L17.5695 2.13948H19.861ZM5.60722 7.89911L6.75294 6.75338L5.5 5.50044L4.35428 6.64617L2.50588 4.79777L4.79733 2.50677L9.74662 7.45606L7.45561 9.74751L5.60722 7.89911ZM4.79733 19.4946L2.50588 17.2031L3.91123 15.7978L6.20267 18.0892L4.79733 19.4946ZM7.45561 16.8363L5.16417 14.5448L16.3166 3.39242L18.608 5.68387L7.45561 16.8363ZM19.4941 17.2031L17.2027 19.4946L15.3543 17.6462L16.5 16.5004L15.2471 15.2475L14.1013 16.3932L12.2534 14.5448L14.5444 12.2534L19.4941 17.2031Z" fill="#BCCBD7"/>
</svg>
