<svg width="31" height="31" viewBox="0 0 31 31" fill="none" xmlns="http://www.w3.org/2000/svg">
<g clip-path="url(#clip0)">
<path d="M28.5 7H26V8H28.5C29.3269 8 30 8.67309 30 9.5V23H1V9.5C1 8.67309 1.6731 8 2.5 8H5V7H2.5C1.12158 7 0 8.12158 0 9.5V25.5C0 26.8784 1.12158 28 2.5 28H9V30H7V31H24V30H22V28H28.5C29.8784 28 31 26.8784 31 25.5V9.5C31 8.12158 29.8784 7 28.5 7ZM21 30H10V28H21V30ZM28.5 27H2.5C1.6731 27 1 26.3269 1 25.5V24H30V25.5C30 26.3269 29.3269 27 28.5 27Z" fill="#BCCBD7"/>
<path d="M24 25H25V26H24V25Z" fill="#BCCBD7"/>
<path d="M26 25H27V26H26V25Z" fill="#BCCBD7"/>
<path d="M28 25H29V26H28V25Z" fill="#BCCBD7"/>
<path d="M22 21H29V22H22V21Z" fill="#BCCBD7"/>
<path d="M22 19H29V20H22V19Z" fill="#BCCBD7"/>
<path d="M23 17H29V18H23V17Z" fill="#BCCBD7"/>
<path d="M25 15H29V16H25V15Z" fill="#BCCBD7"/>
<path d="M6 7.61206V9H2V22H12V16.6794C12.3655 16.8574 12.7424 17.0144 13.1345 17.1355L13.6121 19H17.3884L17.866 17.1355C18.3384 16.9895 18.7949 16.801 19.2285 16.573L20.8831 17.553L23.5535 14.8831L22.573 13.228C22.8015 12.7949 22.99 12.3384 23.136 11.866L25 11.3879V7.61157L23.1355 7.13403C22.9895 6.66162 22.801 6.20508 22.5725 5.77197L23.553 4.11694L20.8826 1.44702L19.228 2.427C18.7949 2.19849 18.3384 2.0105 17.8655 1.8645L17.3879 0H13.6116L13.134 1.8645C12.6616 2.0105 12.2051 2.19897 11.7715 2.427L10.1169 1.44702L7.44653 4.11694L8.427 5.77197C8.19849 6.20508 8.01001 6.66162 7.86401 7.13403L6 7.61206ZM3 21V10H6V11.3879L7.8645 11.8655C8.0105 12.3379 8.19897 12.7944 8.42749 13.2275L7.44702 14.8826L10.1174 17.5525L11 17.03V21H3ZM8.67261 7.95996L8.74854 7.67798C8.90649 7.09106 9.13794 6.53101 9.43652 6.01245L9.58252 5.75952L8.70288 4.27539L10.2759 2.70288L11.76 3.58203L12.0134 3.43604C12.531 3.13745 13.0911 2.90601 13.678 2.74805L13.96 2.67212L14.3879 1H16.6116L17.0396 2.67261L17.3215 2.74854C17.9084 2.90649 18.4685 3.13794 18.9861 3.43652L19.2395 3.58252L20.7234 2.70361L22.2964 4.27588L21.417 5.76001L21.563 6.01294C21.8616 6.53101 22.093 7.09155 22.251 7.67847L22.3269 7.96045L24 8.38794V10.6116L22.3274 11.0396L22.2515 11.3215C22.0935 11.9084 21.8621 12.4685 21.5635 12.9871L21.4175 13.24L22.2971 14.7241L20.7241 16.2964L19.24 15.4175L18.9866 15.5635C18.469 15.8621 17.9089 16.0935 17.322 16.2515L17.04 16.3274L16.6121 18H14.3884L13.9604 16.3274L13.6785 16.2515C13.0916 16.0935 12.5315 15.8621 12.0139 15.5635L11.7605 15.4175L10.2766 16.2964L8.70361 14.7241L9.58301 13.24L9.43701 12.9871C9.13843 12.469 8.90698 11.9084 8.74902 11.3215L8.6731 11.0396L7 10.6121V8.38843L8.67261 7.95996Z" fill="#BCCBD7"/>
<path d="M15.5 15.5C18.8086 15.5 21.5 12.8086 21.5 9.5C21.5 6.19141 18.8086 3.5 15.5 3.5C12.1914 3.5 9.5 6.19141 9.5 9.5C9.5 12.8086 12.1914 15.5 15.5 15.5ZM15.5 4.5C18.2571 4.5 20.5 6.74292 20.5 9.5C20.5 12.2571 18.2571 14.5 15.5 14.5C12.7429 14.5 10.5 12.2571 10.5 9.5C10.5 6.74292 12.7429 4.5 15.5 4.5Z" fill="#BCCBD7"/>
<path d="M15.5 13.5C17.7056 13.5 19.5 11.7056 19.5 9.5C19.5 7.29443 17.7056 5.5 15.5 5.5C13.2944 5.5 11.5 7.29443 11.5 9.5C11.5 11.7056 13.2944 13.5 15.5 13.5ZM15.5 6.5C17.1545 6.5 18.5 7.84546 18.5 9.5C18.5 11.1545 17.1545 12.5 15.5 12.5C13.8455 12.5 12.5 11.1545 12.5 9.5C12.5 7.84546 13.8455 6.5 15.5 6.5Z" fill="#BCCBD7"/>
<path d="M14 9H15V10H14V9Z" fill="#BCCBD7"/>
<path d="M16 9H17V10H16V9Z" fill="#BCCBD7"/>
<path d="M4 11H5V12H4V11Z" fill="#BCCBD7"/>
<path d="M4 13H6V14H4V13Z" fill="#BCCBD7"/>
<path d="M4 15H6V16H4V15Z" fill="#BCCBD7"/>
<path d="M4 17H8V18H4V17Z" fill="#BCCBD7"/>
<path d="M4 19H10V20H4V19Z" fill="#BCCBD7"/>
</g>
<defs>
<clipPath id="clip0">
<rect width="31" height="31" fill="white"/>
</clipPath>
</defs>
</svg>
