<svg width="54" height="54" viewBox="0 0 54 54" fill="none" xmlns="http://www.w3.org/2000/svg">
<path d="M43.9082 24.7496C43.9082 24.7494 43.9081 24.7492 43.9081 24.7489C43.7522 24.1776 43.3803 23.716 42.8877 23.4825C36.9429 20.7579 36.7938 20.3669 35.6428 20.3669C35.196 20.3669 34.7602 20.4661 34.3477 20.6616L28.3981 23.4824C27.9053 23.7159 27.5333 24.1774 27.3772 24.7496C27.1842 25.4603 26.8603 26.9271 26.8603 28.7666C26.8603 33.703 29.1067 38.2521 33.8451 41.6617C34.942 42.4513 36.3421 42.452 37.4404 41.6617C42.1892 38.2442 44.4252 33.6914 44.4252 28.7667C44.4252 26.927 44.1013 25.4603 43.9082 24.7496ZM36.5101 40.3688C35.9693 40.7579 35.3178 40.7591 34.7757 40.3689C30.4605 37.2631 28.4532 33.1713 28.4532 28.7666C28.4532 27.1119 28.7422 25.8012 28.9142 25.1681C28.9529 25.026 29.0278 24.9466 29.0803 24.9218C35.3031 22.0207 35.0856 21.9597 35.6428 21.9597C36.1963 21.9597 35.9884 22.0234 42.2054 24.9218C42.2576 24.9466 42.3324 25.0258 42.3712 25.1674C42.5436 25.8014 42.8325 27.1121 42.8325 28.7668C42.8324 33.1632 40.8326 37.2571 36.5101 40.3688Z" fill="white"/>
<path d="M45.2638 0H17.5509C15.463 0 13.7644 1.69858 13.7644 3.78634V39.9523H9.19521C6.90885 39.9523 5.0488 41.8124 5.0488 44.0988V48.8721C5.0488 51.6995 7.34908 53.9997 10.1764 53.9997C22.3682 53.9997 34.7587 53.9996 43.269 54C46.4021 54 48.9512 51.4509 48.9512 48.3178V3.68741C48.9511 1.65418 47.2969 0 45.2638 0ZM11.1168 52.2953C8.73779 52.8843 6.6417 51.1137 6.6417 48.8721V44.0988C6.6417 42.6907 7.78719 41.5452 9.19521 41.5452H13.7651C13.7651 41.5454 13.7651 41.5455 13.7651 41.5456V41.5457C13.7651 41.5458 13.7651 41.5462 13.7651 41.5464C13.7651 41.547 13.7651 41.5476 13.7651 41.5485C13.7651 41.5554 13.7651 41.5613 13.7651 41.5653C13.7651 41.5667 13.7651 41.5677 13.7651 41.5688C13.7651 41.5695 13.7651 41.5705 13.7651 41.5713C13.7651 41.5718 13.7651 41.572 13.7651 41.5724C13.7651 41.5727 13.7651 41.5728 13.7651 41.5731C13.7652 41.7468 13.7658 42.8804 13.769 48.8719C13.769 50.5166 12.6401 51.9024 11.1168 52.2953ZM47.3583 48.3179C47.3582 50.5727 45.5238 52.4072 43.2689 52.4072H13.9468C15.664 50.604 15.3356 48.5694 15.3618 47.5317V40.7487C15.3618 40.7204 15.3602 40.6925 15.3573 40.6649V3.78634C15.3573 2.57682 16.3415 1.59279 17.551 1.59279H45.2638C46.4187 1.59279 47.3583 2.53241 47.3583 3.6873V48.3179Z" fill="white"/>
<path d="M40.3325 27.4162C39.9901 27.1401 39.4888 27.194 39.2126 27.5363C33.8777 34.1187 34.2276 33.7813 34.1234 33.7884C34.0207 33.7951 34.1258 33.8144 32.0014 31.8253C31.6824 31.5226 31.1783 31.5355 30.8754 31.8545C30.5725 32.1736 30.5856 32.6776 30.9046 32.9806L32.9387 34.9119C33.2565 35.2137 33.6806 35.3816 34.1166 35.3816C34.6217 35.3816 35.1167 35.1539 35.4462 34.7453L40.4525 28.5364C40.7286 28.1937 40.6749 27.6923 40.3325 27.4162Z" fill="white"/>
<path d="M38.9073 6.08545H18.6246C18.1847 6.08545 17.8282 6.44193 17.8282 6.88184C17.8282 7.32176 18.1847 7.67824 18.6246 7.67824H38.9072C39.347 7.67824 39.7036 7.32176 39.7036 6.88184C39.7036 6.44193 39.3471 6.08545 38.9073 6.08545Z" fill="white"/>
<path d="M43.6287 6.08545H42.093C41.6532 6.08545 41.2966 6.44193 41.2966 6.88184C41.2966 7.32176 41.6532 7.67824 42.093 7.67824H43.6287C44.0685 7.67824 44.4251 7.32176 44.4251 6.88184C44.4251 6.44193 44.0686 6.08545 43.6287 6.08545Z" fill="white"/>
<path d="M43.6287 46.2065H24.7266C24.2868 46.2065 23.9302 46.563 23.9302 47.0029C23.9302 47.4428 24.2868 47.7993 24.7266 47.7993H43.6287C44.0685 47.7993 44.4251 47.4428 44.4251 47.0029C44.4252 46.563 44.0686 46.2065 43.6287 46.2065Z" fill="white"/>
<path d="M21.5409 46.2065H18.6247C18.1849 46.2065 17.8283 46.563 17.8283 47.0029C17.8283 47.4428 18.1849 47.7993 18.6247 47.7993H21.5409C21.9807 47.7993 22.3373 47.4428 22.3373 47.0029C22.3373 46.563 21.9807 46.2065 21.5409 46.2065Z" fill="white"/>
<path d="M43.6287 11.8193H18.6246C18.1847 11.8193 17.8282 12.1758 17.8282 12.6157C17.8282 13.0556 18.1847 13.4121 18.6246 13.4121H43.6287C44.0685 13.4121 44.4251 13.0556 44.4251 12.6157C44.4252 12.1758 44.0686 11.8193 43.6287 11.8193Z" fill="white"/>
<path d="M43.6287 17.5535H29.0804C28.6406 17.5535 28.284 17.91 28.284 18.3499C28.284 18.7898 28.6406 19.1463 29.0804 19.1463H43.6287C44.0685 19.1463 44.4251 18.7898 44.4251 18.3499C44.4251 17.91 44.0686 17.5535 43.6287 17.5535Z" fill="white"/>
<path d="M25.8948 17.5535H18.6247C18.1849 17.5535 17.8283 17.91 17.8283 18.3499C17.8283 18.7898 18.1849 19.1463 18.6247 19.1463H25.8948C26.3346 19.1463 26.6912 18.7898 26.6912 18.3499C26.6912 17.91 26.3346 17.5535 25.8948 17.5535Z" fill="white"/>
<path d="M24.5068 23.2876H18.6246C18.1847 23.2876 17.8282 23.6441 17.8282 24.084C17.8282 24.5239 18.1847 24.8804 18.6246 24.8804H24.5068C24.9466 24.8804 25.3032 24.5239 25.3032 24.084C25.3032 23.6441 24.9466 23.2876 24.5068 23.2876Z" fill="white"/>
<path d="M24.5068 29.0217H18.6246C18.1847 29.0217 17.8282 29.3782 17.8282 29.8181C17.8282 30.258 18.1847 30.6145 18.6246 30.6145H24.5068C24.9466 30.6145 25.3032 30.258 25.3032 29.8181C25.3032 29.3782 24.9466 29.0217 24.5068 29.0217Z" fill="white"/>
<path d="M25.8873 34.7556H18.6246C18.1847 34.7556 17.8282 35.1121 17.8282 35.552C17.8282 35.9919 18.1847 36.3484 18.6246 36.3484H25.8873C26.3271 36.3484 26.6836 35.9919 26.6836 35.552C26.6836 35.1121 26.3272 34.7556 25.8873 34.7556Z" fill="white"/>
<path d="M28.4621 40.4897H18.6246C18.1847 40.4897 17.8282 40.8462 17.8282 41.2861C17.8282 41.7261 18.1847 42.0825 18.6246 42.0825H28.4621C28.9019 42.0825 29.2585 41.7261 29.2585 41.2861C29.2586 40.8462 28.902 40.4897 28.4621 40.4897Z" fill="white"/>
</svg>
