<svg height="457pt" viewBox="0 -55 457.14286 457" width="457pt" xmlns="http://www.w3.org/2000/svg"><path d="m322.773438 112.132812h-296.222657c-14.640625 0-26.550781 11.910157-26.550781 26.546876v182.425781c0 14.644531 11.910156 26.554687 26.550781 26.554687h296.222657c14.636718 0 26.542968-11.910156 26.542968-26.554687v-182.425781c0-14.636719-11.90625-26.546876-26.542968-26.546876zm8.257812 208.972657c0 4.5625-3.707031 8.269531-8.257812 8.269531h-296.222657c-4.558593 0-8.265625-3.707031-8.265625-8.269531v-182.425781c0-4.554688 3.707032-8.261719 8.265625-8.261719h296.222657c4.550781 0 8.257812 3.707031 8.257812 8.261719zm0 0"/><path d="m298.914062 161.667969h-124.652343c-5.046875 0-9.140625 4.089843-9.140625 9.144531s4.09375 9.144531 9.140625 9.144531h124.652343c5.050782 0 9.144532-4.089843 9.144532-9.144531s-4.09375-9.144531-9.144532-9.144531zm0 0"/><path d="m298.914062 201.054688h-124.652343c-5.046875 0-9.140625 4.089843-9.140625 9.140624 0 5.054688 4.09375 9.144532 9.140625 9.144532h124.652343c5.050782 0 9.144532-4.089844 9.144532-9.144532 0-5.050781-4.09375-9.140624-9.144532-9.140624zm0 0"/><path d="m298.914062 240.445312h-124.652343c-5.046875 0-9.140625 4.089844-9.140625 9.144532 0 5.054687 4.09375 9.140625 9.140625 9.140625h124.652343c5.050782 0 9.144532-4.085938 9.144532-9.140625 0-5.054688-4.09375-9.144532-9.144532-9.144532zm0 0"/><path d="m298.914062 279.839844h-124.652343c-5.046875 0-9.140625 4.089844-9.140625 9.140625 0 5.054687 4.09375 9.144531 9.140625 9.144531h124.652343c5.050782 0 9.144532-4.089844 9.144532-9.144531 0-5.050781-4.09375-9.140625-9.144532-9.140625zm0 0"/><path d="m92.59375 218.054688c18.292969 0 33.179688-14.886719 33.179688-33.179688s-14.886719-33.179688-33.179688-33.179688c-18.351562 0-33.28125 14.886719-33.28125 33.179688s14.929688 33.179688 33.28125 33.179688zm0-48.074219c8.210938 0 14.894531 6.679687 14.894531 14.894531s-6.683593 14.894531-14.894531 14.894531c-8.269531 0-14.996094-6.679687-14.996094-14.894531s6.726563-14.894531 14.996094-14.894531zm0 0"/><path d="m112.675781 231.492188h-40.265625c-17.179687 0-31.152344 13.972656-31.152344 31.152343v36.3125c0 5.050781 4.09375 9.140625 9.144532 9.140625h84.28125c5.046875 0 9.140625-4.089844 9.140625-9.140625v-36.3125c0-17.179687-13.972657-31.152343-31.148438-31.152343zm12.863281 58.320312h-65.996093v-27.167969c0-7.101562 5.773437-12.867187 12.867187-12.867187h40.265625c7.09375 0 12.863281 5.765625 12.863281 12.867187zm0 0"/><path d="m317.386719.0703125c-5.046875 0-9.140625 4.0898435-9.140625 9.1445315 0 5.054687 4.09375 9.140625 9.140625 9.140625 66.980469 0 121.46875 54.492187 121.46875 121.476562 0 5.050781 4.09375 9.140625 9.144531 9.140625s9.144531-4.089844 9.144531-9.140625c0-77.0625-62.695312-139.7617185-139.757812-139.7617185zm0 0"/><path d="m317.386719 36.105469c-5.046875 0-9.140625 4.089843-9.140625 9.144531s4.09375 9.144531 9.140625 9.144531c47.113281 0 85.4375 38.328125 85.4375 85.4375 0 5.050781 4.09375 9.140625 9.144531 9.140625s9.144531-4.089844 9.144531-9.140625c0-57.199219-46.53125-103.726562-103.726562-103.726562zm0 0"/><path d="m317.386719 72.132812c-5.046875 0-9.140625 4.089844-9.140625 9.144532 0 5.054687 4.09375 9.140625 9.140625 9.140625 27.242187 0 49.40625 22.171875 49.40625 49.414062 0 5.050781 4.09375 9.140625 9.144531 9.140625s9.144531-4.089844 9.144531-9.140625c0-37.332031-30.367187-67.699219-67.695312-67.699219zm0 0"/></svg>