<svg width="32" height="32" viewBox="0 0 32 32" fill="none" xmlns="http://www.w3.org/2000/svg">
<path d="M10.1019 17.216C11.9552 15.7606 12.2777 13.0785 10.8223 11.2252C9.3669 9.37193 6.68476 9.0494 4.8315 10.5048C2.97823 11.9602 2.6557 14.6423 4.1111 16.4956C4.32163 16.7637 4.56343 17.0055 4.8315 17.216C3.23543 17.6781 2.1361 19.1384 2.13336 20.8V27.2C2.13336 27.4945 2.37216 27.7333 2.6667 27.7333H12.2667C12.5612 27.7333 12.8 27.4945 12.8 27.2V20.8C12.7973 19.1384 11.698 17.6781 10.1019 17.216ZM4.2667 13.8667C4.2667 12.0993 5.69936 10.6667 7.4667 10.6667C9.23403 10.6667 10.6667 12.0993 10.6667 13.8667C10.6667 15.634 9.23403 17.0667 7.4667 17.0667C5.7001 17.0649 4.26843 15.6333 4.2667 13.8667ZM7.95896 21.7669L7.4667 22.5067L6.97443 21.7685L7.4667 19.7989L7.95896 21.7669ZM11.7334 26.6667H3.20003V20.8C3.20176 19.328 4.3947 18.1351 5.8667 18.1333H6.78403L5.8827 21.7371C5.84583 21.8833 5.87256 22.0383 5.9563 22.1637L7.02296 23.7637C7.18636 24.0088 7.5175 24.075 7.76256 23.9116C7.8211 23.8725 7.87136 23.8223 7.91043 23.7637L8.9771 22.1637C9.06083 22.0383 9.08756 21.8833 9.0507 21.7371L8.14936 18.1333H9.0667C10.5387 18.1351 11.7316 19.328 11.7334 20.8V26.6667Z" fill="#BCCBD7"/>
<path d="M17.6 13.3333H16.5333V14.4H17.6V13.3333Z" fill="#BCCBD7"/>
<path d="M19.7333 13.3333H18.6667V14.4H19.7333V13.3333Z" fill="#BCCBD7"/>
<path d="M21.8667 13.3333H20.8V14.4H21.8667V13.3333Z" fill="#BCCBD7"/>
<path d="M24 13.3333H22.9333V14.4H24V13.3333Z" fill="#BCCBD7"/>
<path d="M26.1333 13.3333H25.0667V14.4H26.1333V13.3333Z" fill="#BCCBD7"/>
<path d="M28.2666 13.3333H27.2V14.4H28.2666V13.3333Z" fill="#BCCBD7"/>
<path d="M28.2667 7.46666H21.3333V5.86666C21.3333 5.57213 21.0945 5.33333 20.8 5.33333H19.2V2.66666C19.2 2.37213 18.9612 2.13333 18.6667 2.13333H13.3333C13.0388 2.13333 12.8 2.37213 12.8 2.66666V5.33333H11.2C10.9055 5.33333 10.6667 5.57213 10.6667 5.86666V7.46666H0.533333C0.2388 7.46666 0 7.70546 0 8V29.3333C0 29.6279 0.2388 29.8667 0.533333 29.8667H31.4667C31.7612 29.8667 32 29.6279 32 29.3333V11.2C31.9977 9.13913 30.3275 7.469 28.2667 7.46666ZM13.8667 3.2H18.1333V5.33333H13.8667V3.2ZM11.7333 6.4H20.2667V9.06666C20.2667 9.3612 20.0279 9.6 19.7333 9.6H12.2667C11.9721 9.6 11.7333 9.3612 11.7333 9.06666V6.4ZM30.9333 28.8H1.06667V8.53333H10.6667V9.06666C10.6667 9.95033 11.383 10.6667 12.2667 10.6667H19.7333C20.617 10.6667 21.3333 9.95033 21.3333 9.06666V8.53333H28.2667C29.7387 8.53506 30.9316 9.728 30.9333 11.2V28.8Z" fill="#BCCBD7"/>
<path d="M29.8667 19.2H14.9333V20.2667H29.8667V19.2Z" fill="#BCCBD7"/>
<path d="M29.8667 21.3333H14.9333V22.4H29.8667V21.3333Z" fill="#BCCBD7"/>
<path d="M29.8667 23.4667H14.9333V24.5333H29.8667V23.4667Z" fill="#BCCBD7"/>
<path d="M29.8667 25.6H14.9333V26.6667H29.8667V25.6Z" fill="#BCCBD7"/>
</svg>
