<?xml version="1.0" encoding="utf-8"?>
<!-- Generator: Adobe Illustrator 23.0.3, SVG Export Plug-In . SVG Version: 6.00 Build 0)  -->
<svg version="1.1" id="Слой_1" xmlns="http://www.w3.org/2000/svg" xmlns:xlink="http://www.w3.org/1999/xlink" x="0px" y="0px"
	 viewBox="0 0 300 300" style="enable-background:new 0 0 300 300;" xml:space="preserve">
<g>
	<path d="M272.6,292.1H27.4c-10.7,0-19.5-8.7-19.5-19.5V27.4c0-10.7,8.7-19.5,19.5-19.5h245.2c10.7,0,19.5,8.7,19.5,19.5v245.2
		C292.1,283.3,283.3,292.1,272.6,292.1z M27.4,12.9c-8,0-14.5,6.5-14.5,14.5v245.2c0,8,6.5,14.5,14.5,14.5h245.2
		c8,0,14.5-6.5,14.5-14.5V27.4c0-8-6.5-14.5-14.5-14.5H27.4z"/>
</g>
<g>
	<path d="M243.1,164.9V63.4c0-3.4-2.8-6.2-6.2-6.2h-31.3v-6.6c0-3.4-2.8-6.2-6.2-6.2c-3.4,0-6.2,2.8-6.2,6.2v6.6h-24.7v-6.6
		c0-3.4-2.8-6.2-6.2-6.2c-3.4,0-6.2,2.8-6.2,6.2v6.6h-24.7v-6.6c0-3.4-2.8-6.2-6.2-6.2c-3.4,0-6.2,2.8-6.2,6.2v6.6H94.4v-6.6
		c0-3.4-2.8-6.2-6.2-6.2c-3.4,0-6.2,2.8-6.2,6.2v6.6H50.7c-3.4,0-6.2,2.8-6.2,6.2v161.2c0,3.4,2.8,6.2,6.2,6.2h103
		c10,14.9,27,24.7,46.2,24.7c30.7,0,55.6-25,55.6-55.6C255.5,186.7,250.9,174.5,243.1,164.9z M82,69.6v6.2c0,3.4,2.8,6.2,6.2,6.2
		c3.4,0,6.2-2.8,6.2-6.2v-6.2h24.7v6.2c0,3.4,2.8,6.2,6.2,6.2c3.4,0,6.2-2.8,6.2-6.2v-6.2h24.7v6.2c0,3.4,2.8,6.2,6.2,6.2
		c3.4,0,6.2-2.8,6.2-6.2v-6.2h24.7v6.2c0,3.4,2.8,6.2,6.2,6.2c3.4,0,6.2-2.8,6.2-6.2v-6.2h25.1v24.7H56.9V69.6H82z M56.9,218.4
		V106.7h173.9v46.9c-8.8-5.9-19.5-9.4-30.9-9.4c-19.5,0-36.8,10.1-46.7,25.4c-0.8-0.4-1.8-0.7-2.8-0.7H138c-3.4,0-6.2,2.8-6.2,6.2
		s2.8,6.2,6.2,6.2h9.4c-1.4,3.9-2.4,8.1-2.8,12.4H138c-3.4,0-6.2,2.8-6.2,6.2c0,3.4,2.8,6.2,6.2,6.2h6.5c0.5,4.3,1.4,8.4,2.8,12.4
		H56.9z M199.9,243.1c-23.9,0-43.3-19.4-43.3-43.3s19.4-43.3,43.3-43.3s43.3,19.4,43.3,43.3S223.7,243.1,199.9,243.1z"/>
</g>
<g>
	<path d="M100.5,119.5H88.2c-3.4,0-6.2,2.8-6.2,6.2s2.8,6.2,6.2,6.2h12.4c3.4,0,6.2-2.8,6.2-6.2S104,119.5,100.5,119.5z"/>
</g>
<g>
	<path d="M100.5,144.2H88.2c-3.4,0-6.2,2.8-6.2,6.2c0,3.4,2.8,6.2,6.2,6.2h12.4c3.4,0,6.2-2.8,6.2-6.2
		C106.7,147,104,144.2,100.5,144.2z"/>
</g>
<g>
	<path d="M100.5,169H88.2c-3.4,0-6.2,2.8-6.2,6.2s2.8,6.2,6.2,6.2h12.4c3.4,0,6.2-2.8,6.2-6.2S104,169,100.5,169z"/>
</g>
<g>
	<path d="M138,131.9h12.4c3.4,0,6.2-2.8,6.2-6.2s-2.8-6.2-6.2-6.2H138c-3.4,0-6.2,2.8-6.2,6.2S134.6,131.9,138,131.9z"/>
</g>
<g>
	<path d="M138,156.6h12.4c3.4,0,6.2-2.8,6.2-6.2c0-3.4-2.8-6.2-6.2-6.2H138c-3.4,0-6.2,2.8-6.2,6.2
		C131.9,153.8,134.6,156.6,138,156.6z"/>
</g>
<g>
	<path d="M100.5,193.7H88.2c-3.4,0-6.2,2.8-6.2,6.2c0,3.4,2.8,6.2,6.2,6.2h12.4c3.4,0,6.2-2.8,6.2-6.2
		C106.7,196.5,104,193.7,100.5,193.7z"/>
</g>
<g>
	<path d="M187.5,131.9h12.4c3.4,0,6.2-2.8,6.2-6.2s-2.8-6.2-6.2-6.2h-12.4c-3.4,0-6.2,2.8-6.2,6.2S184.1,131.9,187.5,131.9z"/>
</g>
<g>
	<path d="M194.1,213H185v-18.5l-5.1,5l-5.1-5.4l11.5-11.3h7.8V213z"/>
	<path d="M222.9,213h-24.5v-7.1c3.8-2.6,6.5-4.6,8.2-5.8c1.7-1.3,3.2-2.4,4.4-3.4c1.2-1,1.9-1.8,2.1-2.2c0.2-0.5,0.3-1,0.3-1.6
		c0-0.7-0.3-1.3-1-1.7c-0.7-0.4-1.5-0.7-2.5-0.7c-2.8,0-5.5,1-7.9,3.1l-5-6c1.6-1.7,3.6-3,5.8-3.8c2.3-0.8,4.6-1.2,6.9-1.2
		c3.9,0,7,1,9.3,2.9c2.4,1.9,3.5,4.4,3.5,7.4c0,2.1-0.7,4.1-2.1,5.9c-1.4,1.9-3.9,3.9-7.4,6.3h9.8V213z"/>
</g>
</svg>
