<?xml version="1.0" encoding="utf-8"?>
<!-- Generator: Adobe Illustrator 23.0.3, SVG Export Plug-In . SVG Version: 6.00 Build 0)  -->
<svg version="1.1" id="Слой_1" xmlns="http://www.w3.org/2000/svg" xmlns:xlink="http://www.w3.org/1999/xlink" x="0px" y="0px"
	 viewBox="0 0 300 300" style="enable-background:new 0 0 300 300;" xml:space="preserve">
<style type="text/css">
	.st0{fill:#010002;}
</style>
<g>
	<path d="M272.6,292.1H27.4c-10.7,0-19.5-8.7-19.5-19.5V27.4c0-10.7,8.7-19.5,19.5-19.5h245.2c10.7,0,19.5,8.7,19.5,19.5v245.2
		C292.1,283.3,283.3,292.1,272.6,292.1z M27.4,12.9c-8,0-14.5,6.5-14.5,14.5v245.2c0,8,6.5,14.5,14.5,14.5h245.2
		c8,0,14.5-6.5,14.5-14.5V27.4c0-8-6.5-14.5-14.5-14.5H27.4z"/>
</g>
<g>
	<g>
		<g>
			<path class="st0" d="M96.5,122.4V47.2H70.6v202.7h25.9v-79.6c12.2-1.3,21.6-11.6,21.6-24C118.1,134,108.7,123.7,96.5,122.4z"/>
		</g>
		<g>
			<g>
				<path class="st0" d="M137.8,122.4l-2,1.1c-1.4,0.8-2.8,1.4-4.2,1.9l-2.6,1l1.4,2.4c3.6,6,5.5,12.9,5.5,19.9
					c0,6.7-1.7,13.3-5,19.1l-0.8,1.5l1.5,1.6c0.2,0.2,0.3,0.4,0.5,0.6c0.4,0.5,0.9,1,1.3,1.6c0.4,0.5,0.7,0.9,1.1,1.4l2.1,2.5
					l1.7-2.8c4.7-7.7,7.2-16.5,7.2-25.4c0-8.5-2.3-16.9-6.6-24.3L137.8,122.4z"/>
			</g>
			<g>
				<path class="st0" d="M159.6,103.9l-1.9-2.6l-1.9,2.6c-1,1.4-2.1,2.8-3.1,4.1l-1.1,1.3l1,1.4c7.8,11.3,11.9,24.4,11.9,37.8
					c0,15.5-5.1,30.1-14.9,42.2l-1.1,1.4l2,2.7c0.5,0.5,1,1,1.5,1.6c0.4,0.4,0.7,0.7,1,1.1l1.8,1.9l1.7-2
					c11.5-14,17.6-30.9,17.6-48.8C174.1,132.6,169.1,117.1,159.6,103.9z"/>
			</g>
			<g>
				<path class="st0" d="M177.6,76.8l-1.9-2.2L174,77c-1,1.4-2,2.8-3,4.3l-1,1.5l1.2,1.4c15.6,17.9,24.3,40.9,24.3,64.5
					c0,23.3-8.5,46-23.8,63.9l-1.5,1.7l1.7,1.5c0.8,0.7,1.7,1.4,2.5,2.1l3.1,2.6l1.5-1.8c16.8-19.6,26.1-44.6,26.1-70.2
					C205,122.1,195.3,96.6,177.6,76.8z"/>
			</g>
			<g>
				<path class="st0" d="M198.9,54.1l-1.5-1.6l-1.7,1.5c-0.8,0.7-1.7,1.5-2.5,2.2l-3,2.7l1.6,1.7c22.3,24,34.6,55.3,34.6,88
					c0,30.6-11,60.4-30.9,83.8l-1.5,1.8l1.8,1.5c1,0.8,2,1.7,3,2.5l2.5,2.1l1.5-1.8c21.4-25.1,33.1-57.1,33.1-90
					C236,113.5,222.8,79.9,198.9,54.1z"/>
			</g>
		</g>
	</g>
</g>
</svg>
