<?xml version="1.0" encoding="utf-8"?>
<!-- Generator: Adobe Illustrator 23.0.3, SVG Export Plug-In . SVG Version: 6.00 Build 0)  -->
<svg version="1.1" id="Слой_1" xmlns="http://www.w3.org/2000/svg" xmlns:xlink="http://www.w3.org/1999/xlink" x="0px" y="0px"
	 viewBox="0 0 300 300" style="enable-background:new 0 0 300 300;" xml:space="preserve">
<g>
	<path d="M272.6,291H27.4c-10.7,0-19.5-8.7-19.5-19.5V26.3c0-10.7,8.7-19.5,19.5-19.5h245.2c10.7,0,19.5,8.7,19.5,19.5v245.2
		C292.1,282.3,283.3,291,272.6,291z M27.4,11.9c-8,0-14.5,6.5-14.5,14.5v245.2c0,8,6.5,14.5,14.5,14.5h245.2c8,0,14.5-6.5,14.5-14.5
		V26.3c0-8-6.5-14.5-14.5-14.5H27.4z"/>
</g>
<g>
	<g>
		<circle cx="143.4" cy="134.1" r="3.3"/>
		<circle cx="143.4" cy="144" r="3.3"/>
		<circle cx="143.4" cy="153.9" r="3.3"/>
		<circle cx="143.4" cy="104.3" r="3.3"/>
		<circle cx="133.5" cy="110.9" r="3.3"/>
		<circle cx="133.5" cy="124.1" r="3.3"/>
		<circle cx="236" cy="110.9" r="3.3"/>
		<circle cx="236" cy="134.1" r="3.3"/>
		<circle cx="113.6" cy="180.4" r="3.3"/>
		<circle cx="103.7" cy="180.4" r="3.3"/>
		<circle cx="93.8" cy="180.4" r="3.3"/>
		<circle cx="64" cy="140.7" r="3.3"/>
		<circle cx="64" cy="150.6" r="3.3"/>
		<circle cx="64" cy="160.5" r="3.3"/>
		<circle cx="143.4" cy="114.2" r="3.3"/>
		<circle cx="143.4" cy="124.1" r="3.3"/>
		<path d="M239.3,71.2v-3.3c0-1.8-1.5-3.3-3.3-3.3c-1.8,0-3.3,1.5-3.3,3.3v3.3h-3.3v-9.9h-13.2h-6.6h-6.6h-6.6h-6.6h-6.6h-6.6h-6.6
			h-13.2v9.9h-3.3v-3.3c0-1.8-1.5-3.3-3.3-3.3s-3.3,1.5-3.3,3.3v3.3h-3.3v-3.3c0-1.8-1.5-3.3-3.3-3.3s-3.3,1.5-3.3,3.3v3.3h-13.2
			h-19.8h-6.6H77.3H50.8v165.3h198.4V71.2H239.3z M216.1,67.9h6.6v3.3h-6.6V67.9z M202.9,67.9h6.6v3.3h-6.6V67.9z M189.7,67.9h6.6
			v3.3h-6.6V67.9z M176.5,67.9h6.6v3.3h-6.6V67.9z M163.2,67.9h6.6v3.3h-6.6V67.9z M116.9,77.9v69.4h-6.6V77.9H116.9z M90.5,77.9
			v49.6h-6.6V77.9H90.5z M242.6,230H57.4v-3.3H64c1.8,0,3.3-1.5,3.3-3.3c0-1.8-1.5-3.3-3.3-3.3h-6.6v-3.3H64c1.8,0,3.3-1.5,3.3-3.3
			c0-1.8-1.5-3.3-3.3-3.3h-6.6v-3.3H64c1.8,0,3.3-1.5,3.3-3.3c0-1.8-1.5-3.3-3.3-3.3h-6.6v-3.3H64c1.8,0,3.3-1.5,3.3-3.3
			s-1.5-3.3-3.3-3.3h-6.6V187H64c1.8,0,3.3-1.5,3.3-3.3s-1.5-3.3-3.3-3.3h-6.6v-66.1H64c1.8,0,3.3-1.5,3.3-3.3
			c0-1.8-1.5-3.3-3.3-3.3h-6.6v-3.3H64c1.8,0,3.3-1.5,3.3-3.3c0-1.8-1.5-3.3-3.3-3.3h-6.6v-3.3H64c1.8,0,3.3-1.5,3.3-3.3
			c0-1.8-1.5-3.3-3.3-3.3h-6.6v-9.9h19.8v56.2h6.6v3.3c0,1.8,1.5,3.3,3.3,3.3c1.8,0,3.3-1.5,3.3-3.3v-3.3h6.6V77.9h6.6v76.1h6.6v3.3
			c0,1.8,1.5,3.3,3.3,3.3c1.8,0,3.3-1.5,3.3-3.3v-3.3h6.6V77.9h33.1h13.2h6.6h6.6h6.6h6.6h6.6h6.6h6.6h13.2h13.2V230z"/>
		<path d="M173.1,140.7h6.6v6.6h6.6v-6.6h3.3v6.6h6.6v-6.6h3.3v6.6h6.6v-6.6h6.6v-6.6h6.6v-6.6h-6.6v-3.3h6.6v-6.6h-6.6v-3.3h6.6
			v-6.6h-6.6V101h-6.6v-6.6h-6.6v6.6h-3.3v-6.6h-6.6v6.6h-3.3v-6.6h-6.6v6.6h-6.6v6.6h-6.6v6.6h6.6v3.3h-6.6v6.6h6.6v3.3h-6.6v6.6
			h6.6V140.7z M179.8,107.6h26.5v26.5h-26.5V107.6z"/>
		<path d="M165.6,157.2h54.8c4.9,0,9-4,9-9V93.4c0-4.9-4-9-9-9h-54.8c-4.9,0-9,4-9,9v54.8C156.6,153.2,160.6,157.2,165.6,157.2z
			 M163.2,93.4c0-1.3,1.1-2.3,2.3-2.3h54.8c1.3,0,2.3,1.1,2.3,2.3v54.8c0,1.3-1.1,2.3-2.3,2.3h-54.8c-1.3,0-2.3-1.1-2.3-2.3V93.4z"
			/>
		<path d="M232.7,177c1.8,0,3.3-1.5,3.3-3.3s-1.5-3.3-3.3-3.3h-3.3v-6.6h-92.6v6.6h-3.3c-1.8,0-3.3,1.5-3.3,3.3s1.5,3.3,3.3,3.3h3.3
			v6.6h-3.3c-1.8,0-3.3,1.5-3.3,3.3s1.5,3.3,3.3,3.3h3.3v6.6h-3.3c-1.8,0-3.3,1.5-3.3,3.3c0,1.8,1.5,3.3,3.3,3.3h3.3v6.6h-3.3
			c-1.8,0-3.3,1.5-3.3,3.3c0,1.8,1.5,3.3,3.3,3.3h3.3v6.6h92.6v-6.6h3.3c1.8,0,3.3-1.5,3.3-3.3c0-1.8-1.5-3.3-3.3-3.3h-3.3v-6.6h3.3
			c1.8,0,3.3-1.5,3.3-3.3c0-1.8-1.5-3.3-3.3-3.3h-3.3v-6.6h3.3c1.8,0,3.3-1.5,3.3-3.3s-1.5-3.3-3.3-3.3h-3.3V177H232.7z M222.7,177
			h-3.3v-6.6h3.3V177z M222.7,190.3h-3.3v-6.6h3.3V190.3z M222.7,203.5h-3.3v-6.6h3.3V203.5z M153.3,203.5v-6.6h59.5v6.6H153.3z
			 M212.8,210.1v6.6h-59.5v-6.6H212.8z M143.4,196.9h3.3v6.6h-3.3V196.9z M143.4,183.7h3.3v6.6h-3.3V183.7z M212.8,183.7v6.6h-59.5
			v-6.6H212.8z M153.3,177v-6.6h59.5v6.6H153.3z M143.4,170.4h3.3v6.6h-3.3V170.4z M143.4,210.1h3.3v6.6h-3.3V210.1z M222.7,216.7
			h-3.3v-6.6h3.3V216.7z"/>
		<path d="M120.2,203.5c1.8,0,3.3-1.5,3.3-3.3c0-1.8-1.5-3.3-3.3-3.3h-3.3v-6.6H90.5v6.6h-3.3c-1.8,0-3.3,1.5-3.3,3.3
			c0,1.8,1.5,3.3,3.3,3.3h3.3v3.3h-3.3c-1.8,0-3.3,1.5-3.3,3.3c0,1.8,1.5,3.3,3.3,3.3h3.3v6.6h26.5v-6.6h3.3c1.8,0,3.3-1.5,3.3-3.3
			c0-1.8-1.5-3.3-3.3-3.3h-3.3v-3.3H120.2z M110.3,213.4H97.1v-16.5h13.2V213.4z"/>
		<path d="M97.1,147.3H73.9v23.1h23.1V147.3z M90.5,163.8h-9.9v-9.9h9.9V163.8z"/>
	</g>
</g>
</svg>
