<?xml version="1.0" encoding="utf-8"?>
<!-- Generator: Adobe Illustrator 23.0.3, SVG Export Plug-In . SVG Version: 6.00 Build 0)  -->
<svg version="1.1" id="Слой_1" xmlns="http://www.w3.org/2000/svg" xmlns:xlink="http://www.w3.org/1999/xlink" x="0px" y="0px"
	 viewBox="0 0 300 300" style="enable-background:new 0 0 300 300;" xml:space="preserve">
<style type="text/css">
	.st0{fill:#494948;}
</style>
<g>
	<path d="M272.6,291H27.4c-10.7,0-19.5-8.7-19.5-19.5V26.3c0-10.7,8.7-19.5,19.5-19.5h245.2c10.7,0,19.5,8.7,19.5,19.5v245.2
		C292.1,282.3,283.3,291,272.6,291z M27.4,11.9c-8,0-14.5,6.5-14.5,14.5v245.2c0,8,6.5,14.5,14.5,14.5h245.2c8,0,14.5-6.5,14.5-14.5
		V26.3c0-8-6.5-14.5-14.5-14.5H27.4z"/>
</g>
<polygon class="st0" points="70.1,242.7 70.1,105.5 123.4,52.2 145.2,74.1 98.6,120.7 98.6,230.5 117.4,242.7 70.1,242.7 "/>
<g>
	<g>
		<path class="st0" d="M130.6,92.3c34.9,0,69.9,0,104.8,0c5,0,9.9,0,14.9,0c4.7,0,4.7-7.3,0-7.3c-34.9,0-69.9,0-104.8,0
			c-5,0-9.9,0-14.9,0C125.9,85,125.9,92.3,130.6,92.3L130.6,92.3z"/>
	</g>
</g>
<g>
	<g>
		<path class="st0" d="M125.9,93c24.7,24.7,49.4,49.4,74.1,74.1c3.5,3.5,7,7,10.5,10.5c3.3,3.3,8.5-1.8,5.2-5.2
			c-24.7-24.7-49.4-49.4-74.1-74.1c-3.5-3.5-7-7-10.5-10.5C127.8,84.5,122.6,89.6,125.9,93L125.9,93z"/>
	</g>
</g>
<g>
	<g>
		<path class="st0" d="M130.6,213c0-34.9,0-69.9,0-104.8c0-5,0-9.9,0-14.9c0-4.7-7.3-4.7-7.3,0c0,34.9,0,69.9,0,104.8
			c0,5,0,9.9,0,14.9C123.3,217.7,130.6,217.7,130.6,213L130.6,213z"/>
	</g>
</g>
</svg>
