<?xml version="1.0" encoding="utf-8"?>
<!-- Generator: Adobe Illustrator 23.0.3, SVG Export Plug-In . SVG Version: 6.00 Build 0)  -->
<svg version="1.1" id="Слой_1" xmlns="http://www.w3.org/2000/svg" xmlns:xlink="http://www.w3.org/1999/xlink" x="0px" y="0px"
	 viewBox="0 0 300 300" style="enable-background:new 0 0 300 300;" xml:space="preserve">
<g>
	<path d="M272.6,292.1H27.4c-10.7,0-19.5-8.7-19.5-19.5V27.4c0-10.7,8.7-19.5,19.5-19.5h245.2c10.7,0,19.5,8.7,19.5,19.5v245.2
		C292.1,283.3,283.3,292.1,272.6,292.1z M27.4,12.9c-8,0-14.5,6.5-14.5,14.5v245.2c0,8,6.5,14.5,14.5,14.5h245.2
		c8,0,14.5-6.5,14.5-14.5V27.4c0-8-6.5-14.5-14.5-14.5H27.4z"/>
</g>
<g>
	<g>
		<g>
			<path d="M242.1,74.9c-15.1,0-26.6-8.9-38.8-18.2c-14-10.8-29.8-23-53.3-23s-39.4,12.2-53.3,23C84.5,66,73,74.9,57.9,74.9
				c-2.7,0-4.8,2.2-4.8,4.8c0,56.6,7,94.3,22.8,122.2c15.7,27.7,39,44.9,71.7,63.8c0.8,0.4,1.6,0.6,2.4,0.6s1.7-0.2,2.4-0.6
				c32.6-18.8,56-36.1,71.7-63.8c15.8-27.9,22.8-65.6,22.8-122.2C246.9,77,244.8,74.9,242.1,74.9z M150,255.9
				c-58.5-34.1-86.5-63.5-87.2-171.5c16-1.6,28.1-10.9,39.8-20C116,54,129.8,43.4,150,43.4s34,10.6,47.4,20.9
				c11.7,9.1,23.8,18.4,39.8,20C236.5,192.4,208.5,221.8,150,255.9z"/>
			<path d="M92.7,89c-1.2-2.4-4.2-3.3-6.5-2c-0.6,0.3-1.2,0.6-1.8,0.9C82,89.1,81,92,82.2,94.4c0.8,1.7,2.6,2.7,4.4,2.7
				c0.7,0,1.4-0.2,2.1-0.5c0.7-0.3,1.4-0.7,2.1-1C93.1,94.3,94,91.4,92.7,89z"/>
			<path d="M220.7,127c0.1,0,0.3,0,0.4,0c2.5,0,4.6-1.9,4.8-4.4c0.1-0.6,0.1-1.2,0.2-1.9c0.2-2.7-1.8-5-4.4-5.2
				c-2.7-0.2-5,1.8-5.2,4.4c-0.1,0.6-0.1,1.2-0.2,1.8C216.1,124.4,218,126.8,220.7,127z"/>
			<path d="M102.3,87.4c1,0,2-0.3,2.8-0.9c2.8-2,5.5-4.1,8.2-6.1c12.4-9.4,23.1-17.6,36.7-17.6c2.7,0,4.8-2.2,4.8-4.8
				c0-2.7-2.2-4.8-4.8-4.8c-16.9,0-29.3,9.5-42.5,19.5c-2.6,2-5.3,4-8,6c-2.2,1.6-2.7,4.6-1.1,6.8C99.3,86.7,100.8,87.4,102.3,87.4z
				"/>
			<path d="M150,233.3c-12.4-7.6-27.4-17.9-38.6-31.2c-1.7-2-4.8-2.3-6.8-0.6c-2,1.7-2.3,4.8-0.6,6.8c12.9,15.2,30,26.5,43.5,34.7
				c0,0,0.1,0,0.1,0c0.1,0.1,0.2,0.1,0.4,0.2c0.1,0,0.2,0.1,0.2,0.1c0.1,0,0.2,0.1,0.3,0.1c0.1,0,0.2,0.1,0.3,0.1
				c0.1,0,0.2,0,0.3,0.1c0.1,0,0.2,0,0.3,0.1c0.1,0,0.3,0,0.4,0c0.1,0,0.1,0,0.2,0c0,0,0,0,0,0c0,0,0,0,0,0c0.1,0,0.1,0,0.2,0
				c0.1,0,0.3,0,0.4,0c0.1,0,0.2,0,0.3-0.1c0.1,0,0.2,0,0.3-0.1c0.1,0,0.2-0.1,0.3-0.1c0.1,0,0.2-0.1,0.3-0.1c0.1,0,0.2-0.1,0.2-0.1
				c0.1-0.1,0.2-0.1,0.4-0.2c0,0,0.1,0,0.1,0c13.5-8.2,30.6-19.5,43.5-34.7c14.7-17.4,24-40.8,28.4-71.8c0.4-2.7-1.5-5.1-4.1-5.5
				c-2.7-0.4-5.1,1.5-5.5,4.1c-4.1,29.1-12.7,51-26.2,66.9C177.4,215.4,162.4,225.6,150,233.3z"/>
		</g>
	</g>
</g>
<g>
	<path d="M151.8,169.1c-10.2,0-18.2-3.1-23.9-9.3l7.3-9.2c4.3,4.5,9.8,6.8,16.5,6.8c3.5,0,6.3-0.9,8.4-2.7c2.1-1.8,3.1-4,3.1-6.6
		c0-2.8-1-5-3-6.7c-2-1.7-4.7-2.5-8.2-2.5c-5.1,0-9.5,1.7-13,5l-9.2-2.4V106h42.6v11.6H143v15.2c3.5-3.5,8-5.2,13.7-5.2
		c5.5,0,10.2,1.8,14.1,5.5c3.9,3.7,5.8,8.5,5.8,14.6c0,6.6-2.3,11.8-6.8,15.7C165.3,167.2,159.3,169.1,151.8,169.1z"/>
</g>
</svg>
