<?xml version="1.0" encoding="utf-8"?>
<!-- Generator: Adobe Illustrator 23.0.3, SVG Export Plug-In . SVG Version: 6.00 Build 0)  -->
<svg version="1.1" id="Слой_1" xmlns="http://www.w3.org/2000/svg" xmlns:xlink="http://www.w3.org/1999/xlink" x="0px" y="0px"
	 viewBox="0 0 300 300" style="enable-background:new 0 0 300 300;" xml:space="preserve">
<g>
	<path d="M272.6,292.1H27.4c-10.7,0-19.5-8.7-19.5-19.5V27.4c0-10.7,8.7-19.5,19.5-19.5h245.2c10.7,0,19.5,8.7,19.5,19.5v245.2
		C292.1,283.3,283.3,292.1,272.6,292.1z M27.4,12.9c-8,0-14.5,6.5-14.5,14.5v245.2c0,8,6.5,14.5,14.5,14.5h245.2
		c8,0,14.5-6.5,14.5-14.5V27.4c0-8-6.5-14.5-14.5-14.5H27.4z"/>
</g>
<g>
	<path d="M198.6,108.5H64.9c-6.2,0-11.2,5-11.2,11.1v111.5c0,6.1,5,11.1,11.2,11.1h133.7c6.1,0,11.1-5,11.1-11.1V119.6
		C209.8,113.4,204.8,108.5,198.6,108.5z M107,116.8c3.1,0,5.6,2.5,5.6,5.6c0,3.1-2.5,5.6-5.6,5.6c-3.1,0-5.6-2.5-5.6-5.6
		C101.4,119.3,103.9,116.8,107,116.8z M90,116.8c3.1,0,5.6,2.5,5.6,5.6c0,3.1-2.5,5.6-5.6,5.6c-3.1,0-5.6-2.5-5.6-5.6
		C84.4,119.3,86.8,116.8,90,116.8z M73.2,116.8c3.1,0,5.6,2.5,5.6,5.6c0,3.1-2.5,5.6-5.6,5.6c-3,0-5.5-2.5-5.5-5.6
		C67.6,119.3,70.1,116.8,73.2,116.8z M198.6,231.1H64.9v-94.6h133.7C198.6,136.5,198.6,231.1,198.6,231.1z M198.6,125.3h-78v-5.6h78
		L198.6,125.3L198.6,125.3z"/>
	<path d="M235.1,58.7H101.4c-6.2,0-11.1,5-11.1,11.1v32.3h11.1V86.7h133.8v94.6h-19.4v11.1h19.4c6.1,0,11.2-5,11.2-11.1V69.8
		C246.3,63.7,241.3,58.7,235.1,58.7z M109.7,78.2c-3.1,0-5.6-2.5-5.6-5.6c0-3.1,2.5-5.6,5.6-5.6c3.1,0,5.6,2.5,5.6,5.6
		C115.3,75.7,112.8,78.2,109.7,78.2z M126.5,78.2c-3.1,0-5.6-2.5-5.6-5.6c0-3.1,2.5-5.6,5.6-5.6c3.1,0,5.6,2.5,5.6,5.6
		C132,75.7,129.5,78.2,126.5,78.2z M143.6,78.2c-3.1,0-5.6-2.5-5.6-5.6c0-3.1,2.5-5.6,5.6-5.6c3,0,5.5,2.5,5.5,5.6
		C149.1,75.7,146.6,78.2,143.6,78.2z M235.1,75.5h-78V70h78V75.5z"/>
</g>
</svg>
