<svg width="30" height="30" viewBox="0 0 30 30" fill="none" xmlns="http://www.w3.org/2000/svg">
<g clip-path="url(#clip0)">
<path d="M1.79922 22.4556C2.46072 22.5806 3.14399 22.4144 3.67422 21.9996H3.95422C4.01872 21.9996 3.99922 21.9026 3.99922 23.9996C3.99922 25.1042 4.89465 25.9996 5.99922 25.9996H18.4542C18.5137 25.9996 18.4992 26.0496 18.4992 26.3241C18.1811 26.7318 18.0054 27.2326 17.9992 27.7496C17.9955 28.9075 18.8711 29.8792 20.0232 29.9955C21.1752 30.1119 22.2274 29.3349 22.4552 28.1996C22.5795 27.5382 22.4134 26.8552 21.9992 26.3246V26.0446C21.9992 25.9801 21.9022 25.9996 23.9992 25.9996C25.1038 25.9996 25.9992 25.1042 25.9992 23.9996V11.5446C25.9992 11.4851 26.0492 11.4996 26.3212 11.4996C26.8536 11.9144 27.5386 12.0804 28.2017 11.9551C29.1103 11.7704 29.8126 11.0473 29.9706 10.1337C30.1286 9.22006 29.71 8.30308 28.9162 7.82395C28.1224 7.34482 27.116 7.40167 26.3812 7.96713C26.3217 8.01163 26.3507 7.99963 26.0442 7.99963C25.9797 7.99963 25.9992 8.09663 25.9992 5.99963C25.9992 4.89506 25.1038 3.99963 23.9992 3.99963C10.7552 3.99963 11.4992 4.02613 11.4992 3.95463C11.4992 3.64713 11.4892 3.67413 11.5287 3.62213C12.0962 2.88791 12.1547 1.88064 11.6761 1.08566C11.1974 0.290679 10.2798 -0.128919 9.36543 0.0290498C8.45103 0.187018 7.7274 0.890146 7.54322 1.79963C7.41892 2.46111 7.58502 3.14411 7.99922 3.67463V3.95463C7.99922 4.01913 8.09622 3.99963 5.99922 3.99963C4.89465 3.99963 3.99922 4.89506 3.99922 5.99963V18.4546C3.99922 18.5141 3.94922 18.4996 3.67472 18.4996C3.26706 18.1815 2.7663 18.0058 2.24922 17.9996C1.09134 17.9959 0.119677 18.8715 0.00333703 20.0236C-0.113003 21.1756 0.663974 22.2278 1.79922 22.4556ZM23.9992 24.9996H22.0442C21.4673 25.0002 20.9998 25.4677 20.9992 26.0446V26.3246C21.0034 26.5672 21.0878 26.8016 21.2392 26.9911C21.5729 27.4239 21.5867 28.0233 21.2733 28.471C20.96 28.9187 20.3922 29.111 19.8713 28.9458C19.3504 28.7805 18.9972 28.2961 18.9992 27.7496C18.9992 27.0436 19.4992 26.9496 19.4992 26.3246V26.0446C19.4984 25.4678 19.031 25.0005 18.4542 24.9996H15.4992V22.0896C15.4984 21.488 15.0109 21.0005 14.4092 20.9996H14.1892C13.9383 21.0036 13.6957 21.0904 13.4992 21.2466C12.9541 21.6415 12.1959 21.5438 11.7687 21.0236C11.3853 20.5287 11.4272 19.8265 11.8668 19.3806C12.3063 18.9348 13.0079 18.8829 13.5082 19.2591C13.78 19.4606 14.1202 19.547 14.4552 19.4996C15.0315 19.4988 15.4984 19.0319 15.4992 18.4556V15.4996H18.4552C18.5147 15.4996 18.4992 15.5496 18.4992 15.8236C18.0792 16.3523 17.9126 17.0388 18.0437 17.7011C18.2727 18.8355 19.3248 19.6111 20.4761 19.4944C21.6274 19.3778 22.5025 18.4068 22.4992 17.2496C22.4847 16.7296 22.3101 16.2268 21.9992 15.8096V15.5896C21.9995 15.54 22.0396 15.4999 22.0892 15.4996H24.9992V23.9996C24.9992 24.5519 24.5515 24.9996 23.9992 24.9996ZM24.9992 5.99963V7.95463C24.9998 8.53154 25.4673 8.99908 26.0442 8.99963H26.3242C26.5674 8.99642 26.8024 8.91174 26.9917 8.75913C27.5062 8.36311 28.2383 8.42692 28.6765 8.90597C29.1147 9.38503 29.1132 10.1198 28.6731 10.5971C28.2329 11.0744 27.5006 11.1352 26.9877 10.7371C26.7158 10.5388 26.3776 10.4537 26.0442 10.4996C25.4673 10.5002 24.9998 10.9677 24.9992 11.5446V14.4996H22.0892C21.4876 14.5005 21.0001 14.988 20.9992 15.5896V15.8096C21.0032 16.0606 21.09 16.3032 21.2462 16.4996C21.6365 17.016 21.5681 17.7449 21.0885 18.1796C20.6089 18.6142 19.8769 18.6109 19.4012 18.1719C18.9256 17.7329 18.8638 17.0034 19.2587 16.4906C19.4602 16.2188 19.5466 15.8786 19.4992 15.5436C19.4984 14.9674 19.0315 14.5005 18.4552 14.4996H15.4992V11.5436C15.4992 11.4841 15.5492 11.4996 15.8232 11.4996C16.3519 11.9197 17.0384 12.0862 17.7007 11.9551C18.6076 11.7709 19.3092 11.0502 19.469 10.1386C19.6288 9.22712 19.2141 8.31074 18.424 7.82903C17.6338 7.34732 16.6293 7.39855 15.8922 7.95813C15.8232 8.00813 15.8352 7.99963 15.5892 7.99963C15.5396 7.99936 15.4995 7.95922 15.4992 7.90963V4.99963H23.9992C24.5515 4.99963 24.9992 5.44735 24.9992 5.99963ZM5.99922 4.99963H7.95422C8.53102 4.99881 8.9984 4.53143 8.99923 3.95463V3.67463C8.9951 3.43204 8.9107 3.19766 8.75923 3.00813C8.4256 2.57533 8.41179 1.97597 8.72513 1.52826C9.03846 1.08055 9.6063 0.888268 10.1272 1.0535C10.6481 1.21873 11.0013 1.70317 10.9992 2.24963C10.9992 2.95563 10.4992 3.04963 10.4992 3.67463V3.95463C10.4998 4.53154 10.9673 4.99908 11.5442 4.99963H14.4992V7.90963C14.5001 8.51128 14.9876 8.99881 15.5892 8.99963H15.8092C16.0602 8.99571 16.3028 8.90887 16.4992 8.75263C17.0443 8.35781 17.8026 8.45552 18.2297 8.97563C18.6131 9.47058 18.5712 10.1728 18.1317 10.6187C17.6922 11.0645 16.9906 11.1164 16.4902 10.7401C16.2184 10.5387 15.8782 10.4523 15.5432 10.4996C14.967 10.5005 14.5001 10.9674 14.4992 11.5436V14.4996H11.5432C11.4837 14.4996 11.4992 14.4496 11.4992 14.1756C11.9193 13.647 12.0858 12.9605 11.9547 12.2981C11.7705 11.3912 11.0498 10.6897 10.1382 10.5299C9.22672 10.3701 8.31033 10.7847 7.82862 11.5749C7.34691 12.3651 7.39814 13.3696 7.95772 14.1066C8.00772 14.1756 7.99922 14.1636 7.99922 14.4096C7.99895 14.4592 7.95882 14.4994 7.90922 14.4996H4.99922V5.99963C4.99922 5.44735 5.44694 4.99963 5.99922 4.99963ZM1.26972 19.4741C1.69999 18.9493 2.46707 18.8559 3.01072 19.2621C3.28196 19.4619 3.62075 19.5471 3.95422 19.4996C4.53102 19.4988 4.9984 19.0314 4.99922 18.4546V15.4996H7.90922C8.51087 15.4988 8.9984 15.0113 8.99923 14.4096V14.1896C8.99923 13.5676 8.49922 13.4436 8.49922 12.7496C8.4977 12.2034 8.85101 11.7195 9.37174 11.5545C9.89246 11.3895 10.46 11.5818 10.7732 12.0293C11.0865 12.4768 11.0729 13.0758 10.7397 13.5086C10.5382 13.7804 10.4518 14.1206 10.4992 14.4556C10.5001 15.0319 10.967 15.4988 11.5432 15.4996H14.4992C14.4992 18.7136 14.5187 18.4996 14.4552 18.4996C14.1512 18.4996 14.1727 18.5101 14.1222 18.4701C13.3443 17.8682 12.2656 17.8414 11.4587 18.4038C10.6518 18.9663 10.3037 19.9877 10.5993 20.9258C10.8949 21.864 11.7656 22.5013 12.7492 22.4996C13.2692 22.4851 13.7721 22.3105 14.1892 21.9996H14.4092C14.4588 21.9999 14.499 22.04 14.4992 22.0896V24.9996H5.99922C5.44694 24.9996 4.99922 24.5519 4.99922 23.9996V22.0446C4.9984 21.4678 4.53102 21.0005 3.95422 20.9996H3.67422C3.43163 21.0038 3.19725 21.0882 3.00772 21.2396C2.50709 21.6148 1.80623 21.562 1.36737 21.1162C0.928499 20.6704 0.886778 19.9688 1.26972 19.4741Z" fill="#BCCBD7"/>
<path d="M6.49997 6.99999C6.73842 6.99862 6.94272 6.82904 6.98799 6.59492C7.03326 6.3608 6.9069 6.1273 6.68614 6.03713C6.46539 5.94696 6.21168 6.02523 6.0801 6.22409C5.94851 6.42296 5.97567 6.68707 6.14497 6.855C6.24084 6.94628 6.36761 6.99805 6.49997 6.99999Z" fill="#BCCBD7"/>
<path d="M6.5 11.5C6.77614 11.5 7 11.2761 7 11V8.5C7 8.22386 6.77614 8 6.5 8C6.22386 8 6 8.22386 6 8.5V11C6 11.2761 6.22386 11.5 6.5 11.5Z" fill="#BCCBD7"/>
</g>
<defs>
<clipPath id="clip0">
<rect width="30" height="30" fill="white"/>
</clipPath>
</defs>
</svg>
