<?xml version="1.0" encoding="utf-8"?>
<!-- Generator: Adobe Illustrator 23.0.3, SVG Export Plug-In . SVG Version: 6.00 Build 0)  -->
<svg version="1.1" id="Слой_1" xmlns="http://www.w3.org/2000/svg" xmlns:xlink="http://www.w3.org/1999/xlink" x="0px" y="0px"
	 viewBox="0 0 512 512" style="enable-background:new 0 0 512 512;" xml:space="preserve">
<path d="M102.3,119.5c1.1,0,2.3,0,3.4-0.1c7.3-0.4,14.4-2.2,21.1-5.2c10.4,19.1,30.5,31,52.2,30.9c1.2,0,2.4,0,3.6-0.1
	c20.5-1.2,38.9-12.8,48.8-30.8c7.6,3.5,16,5.3,24.4,5.3c1.2,0,2.4,0,3.6-0.1c7.3-0.4,14.4-2.2,21.1-5.2
	c10.4,19.1,30.5,30.9,52.2,30.9c1.2,0,2.4,0,3.6-0.1c15.8-0.9,30.6-8.1,41.1-19.9c3-3.3,5.5-7,7.7-10.9c7.6,3.5,16,5.3,24.4,5.3
	c1.2,0,2.4,0,3.6-0.1c28.7-1.6,52.1-23.4,55.8-51.9C472.6,39,455.5,11.9,428.2,3C401-6,371.2,5.7,357.3,30.9c-15.6-7-33.5-7-49.1,0
	C297.7,11.8,277.7,0,256,0s-41.8,11.8-52.3,30.9c-15.6-7-33.5-7-49.1,0c-11.2-20.1-32.8-32-55.8-30.8C66.6,2,41.7,29.2,42.7,61.5
	C43.6,93.8,70,119.5,102.3,119.5z M407,17.2c17.2-1,33.4,8.5,40.9,24c7.5,15.5,4.9,34.1-6.5,47c-12.6,14.2-33.2,18.3-50.3,10
	c4.7-21.1-2.5-43.1-18.6-57.4c-0.2-0.2-0.5-0.4-0.7-0.6C378.5,26.7,392,18,407,17.2z M330.2,42.8c0.9-0.1,1.7-0.1,2.6-0.1
	c23.4,0,42.5,18.8,42.8,42.2s-18.1,42.7-41.5,43.4c-23.4,0.7-43-17.5-44-40.9S306.9,44.2,330.2,42.8z M253.4,17.2
	c16.8-1,32.6,8.1,40.3,23c-14.2,12.1-21.8,30.1-20.6,48.7c0.2,3.2,0.7,6.3,1.3,9.4c-5,2.4-10.5,3.9-16,4.2c-7.2,0.4-14.5-1-21-4.2
	c4.7-21.1-2.4-43.1-18.6-57.5c-0.2-0.2-0.5-0.4-0.7-0.6C225,26.7,238.4,18,253.4,17.2L253.4,17.2z M176.6,42.8
	c0.9-0.1,1.7-0.1,2.6-0.1c23.4,0,42.5,18.8,42.8,42.2c0.4,23.4-18.1,42.7-41.5,43.4c-23.4,0.7-43-17.5-44.1-40.9
	C135.4,64,153.3,44.2,176.6,42.8z M70.5,31.4c9.3-10.5,23.2-15.7,37.2-14c13.9,1.8,26.1,10.3,32.5,22.7
	c-14.2,12.1-21.8,30.1-20.7,48.7c0.2,3.2,0.7,6.3,1.3,9.4c-5,2.4-10.5,3.9-16,4.2c-17.3,1-33.4-8.4-41-24
	C56.4,62.8,59,44.3,70.5,31.4z"/>
<path d="M42.6,256h51.2c0,14.1,11.5,25.6,25.6,25.6h34.1v85.5l-8.4-8.4c-5.6-5.7-13.2-8.8-21.1-8.8c-8.7,0-16.9,3.7-22.6,10.2
	c-10.2,12.4-9.2,30.5,2.4,41.6l20,20c16.6,17.2,31.8,35.8,45.3,55.5c15.6,21.8,40.8,34.7,67.6,34.8h19.2c0.4,0,0.7-0.1,1.1-0.2
	c0.4,0.1,0.7,0.2,1.1,0.2c45.9-0.1,83.1-37.3,83.2-83.2v-91.7c0-11.2-6.2-21.5-16.2-26.6c-10-5.1-21.9-4.2-31,2.3
	c-4.3-7-11.4-12-19.5-13.6c-8.1-1.6-16.5,0.2-23.2,5.1c-7.9-13-24.5-17.9-38.1-11.2v-11.5h25.6c6.3,0,12.4-2.4,17.1-6.7
	c4.7,4.3,10.7,6.6,17.1,6.7h119.5c14.1,0,25.6-11.5,25.6-25.6h51.2c14.1,0,25.6-11.5,25.6-25.6v-25.6c0-37.7-30.6-68.2-68.3-68.3
	h-34.1c-20.7,0-40.2,9.4-53.1,25.6h-13.2c-12.9-16.2-32.4-25.6-53.1-25.6h-34.1c-20.7,0-40.2,9.4-53.1,25.6h-13.3
	c-12.9-16.2-32.4-25.6-53.1-25.6H85.3c-37.7,0-68.2,30.6-68.3,68.3v25.6C17,244.5,28.5,256,42.6,256z M226.1,307.2
	c3.4,0,6.7,1.3,9.1,3.7c2.4,2.4,3.7,5.7,3.7,9.1v55.5c0,4.7,3.8,8.5,8.5,8.5c4.7,0,8.5-3.8,8.5-8.5v-46.9c0-7.1,5.7-12.8,12.8-12.8
	c7.1,0,12.8,5.7,12.8,12.8v46.9c0,4.7,3.8,8.5,8.5,8.5c4.7,0,8.5-3.8,8.5-8.5v-38.4c0-7.1,5.7-12.8,12.8-12.8s12.8,5.7,12.8,12.8
	v91.7c0,36.5-29.6,66.1-66.1,66.1c-0.4,0.1-0.7,0.1-1.1,0.2c-0.4-0.1-0.7-0.2-1.1-0.2h-19.2c-21.3,0-41.3-10.3-53.8-27.6
	c-14.1-20.5-29.9-39.7-47.1-57.6l-20-20c-5.2-4.8-5.8-12.8-1.6-18.4c2.4-2.6,5.7-4.2,9.2-4.3c3.5-0.1,6.9,1.2,9.5,3.6l8.5,8.5
	c4.9,4.9,12.2,6.4,18.6,3.7c6.4-2.6,10.6-8.9,10.5-15.8V236c-0.3-7.1,4.8-13.2,11.8-14.2c3.7-0.3,7.4,1.1,10.1,3.7
	c2.4,2.4,3.7,5.7,3.7,9.1v140.8c0,4.7,3.8,8.5,8.5,8.5c4.7,0,8.5-3.8,8.5-8.5V320C213.3,312.9,219,307.2,226.1,307.2z M238.9,264.5
	h-25.6v-29.9c0-7.9-3.1-15.5-8.7-21.1c-6.1-6.1-14.6-9.3-23.3-8.7c-16,1.5-28.1,15.2-27.7,31.2v28.5h-34.1c-4.7,0-8.5-3.8-8.5-8.5
	v-25.6c0-28.3,22.9-51.2,51.2-51.2h34.1c28.3,0,51.2,22.9,51.2,51.2V256c0,2.3-0.9,4.4-2.5,6C243.3,263.6,241.1,264.5,238.9,264.5z
	 M401,256c0,4.7-3.8,8.5-8.5,8.5H273c-4.7,0-8.5-3.8-8.5-8.5v-25.6c0-28.3,22.9-51.2,51.2-51.2h34.1c28.3,0,51.2,22.9,51.2,51.2V256
	z M426.6,153.6c28.3,0,51.2,22.9,51.2,51.2v25.6c0,4.7-3.8,8.5-8.5,8.5h-51.2v-8.5c-0.1-32.8-23.4-60.9-55.6-67
	c8.7-6.3,19.2-9.7,30-9.8H426.6z M273,153.6c10.8,0,21.3,3.4,30,9.8c-20,3.8-37.2,16.3-47,34.1c-9.8-17.8-27.1-30.3-47-34.1
	c8.7-6.3,19.2-9.7,30-9.8H273z M34.1,204.8c0-28.3,22.9-51.2,51.2-51.2h34.1c10.8,0,21.3,3.4,30,9.8c-32.2,6.1-55.5,34.3-55.6,67
	v8.5H42.6c-4.7,0-8.5-3.8-8.5-8.5V204.8z"/>
</svg>
