<svg height="636pt" viewBox="-20 -20 636 636.00057" width="636pt" xmlns="http://www.w3.org/2000/svg"><path d="m278.863281 10.605469c-14.132812-14.140625-37.058593-14.140625-51.195312 0l-217.136719 217.132812c-14.113281 14.144531-14.113281 37.050781 0 51.195313l306.710938 306.714844c14.140624 14.136718 37.058593 14.136718 51.199218 0l217.132813-217.136719c14.117187-14.148438 14.117187-37.050781 0-51.195313zm73.6875 559.152343c-5.363281 5.355469-14.054687 5.355469-19.417969 0l-306.710937-306.710937c-5.363281-5.359375-5.363281-14.054687 0-19.417969l181.246094-181.246094 326.125 326.132813zm217.132813-217.132812-20 20-326.132813-326.128906 20.007813-20.003906c5.363281-5.355469 14.050781-5.355469 19.414062 0l306.710938 306.710937c5.363281 5.359375 5.363281 14.050781 0 19.414063zm0 0"/><path d="m227.277344 158.875c0-13.863281-8.347656-26.355469-21.152344-31.660156-12.804688-5.304688-27.546875-2.375-37.347656 7.425781l-32.570313 32.582031c-13.378906 13.378906-13.378906 35.078125 0 48.464844 13.382813 13.378906 35.078125 13.378906 48.460938 0l32.578125-32.578125c6.445312-6.414063 10.058594-15.140625 10.03125-24.234375zm-25.925782 8.34375-32.574218 32.574219c-4.613282 4.574219-12.050782 4.554687-16.644532-.039063-4.589843-4.585937-4.609374-12.027344-.039062-16.644531l32.574219-32.570313c2.976562-3.003906 7.332031-4.183593 11.417969-3.097656 4.085937 1.085938 7.277343 4.28125 8.367187 8.367188 1.085937 4.082031-.09375 8.441406-3.101563 11.414062zm0 0"/><path d="m439.953125 407.503906c-.015625-2.960937-1.199219-5.796875-3.292969-7.894531l-81.464844-81.464844c18.917969-36.207031 8.917969-80.785156-23.65625-105.441406-32.570312-24.65625-78.1875-22.183594-107.902343 5.851563-29.710938 28.03125-34.835938 73.425781-12.113281 107.378906 22.714843 33.949218 66.632812 46.527344 103.882812 29.746094l21.390625 21.398437 2.542969 17.304687c.625 4.265626 3.644531 7.796876 7.757812 9.089844l15.140625 4.738282 2.785157 12.25c.882812 3.859374 3.730468 6.976562 7.5 8.195312l14.84375 4.796875 2.25 11.410156c1.042968 5.265625 5.65625 9.058594 11.019531 9.058594h.136719l28.21875-.335937c5.675781-.066407 10.410156-4.363282 11.03125-10.003907l.027343-.246093c.050781-.421876.066407-.851563.066407-1.28125zm-202.277344-84.851562c-22.617187-22.636719-24-58.871094-3.167969-83.15625 20.835938-24.292969 56.855469-28.449219 82.671876-9.539063 25.8125 18.910157 32.71875 54.511719 15.84375 81.699219-.039063.035156-.074219.0625-.109376.097656-1.066406 1.0625-1.90625 2.328125-2.472656 3.722656-1.867187 2.546876-3.917968 4.945313-6.152344 7.175782-23.910156 23.921875-62.695312 23.921875-86.613281 0zm172.171875 108.683594-1.726562-8.722657c-.789063-3.996093-3.683594-7.257812-7.566406-8.511719l-15.042969-4.867187-2.804688-12.316406c-.878906-3.894531-3.777343-7.03125-7.59375-8.226563l-14.570312-4.5625-2.0625-14.003906c-.351563-2.390625-1.464844-4.605469-3.171875-6.3125l-20.429688-20.429688c1.820313-1.535156 3.59375-3.140624 5.296875-4.839843.609375-.609375 1.183594-1.238281 1.773438-1.863281l75.550781 75.546874.09375 19.019532zm0 0"/><path d="m249.203125 247.570312c-12.878906 12.878907-12.878906 33.761719 0 46.640626 12.878906 12.875 33.761719 12.875 46.640625 0 12.875-12.878907 12.875-33.761719 0-46.640626-12.886719-12.859374-33.753906-12.859374-46.640625 0zm30.753906 30.746094c-4.105469 4.101563-10.757812 4.097656-14.859375-.003906-4.097656-4.101562-4.097656-10.75 0-14.851562 4.101563-4.101563 10.753906-4.105469 14.859375-.003907 4.09375 4.105469 4.09375 10.753907 0 14.859375zm0 0"/></svg>