<svg width="36" height="36" viewBox="0 0 36 36" fill="none" xmlns="http://www.w3.org/2000/svg">
<g  >
<path d="M17.0761 24.0948L14.2855 21.3043L12.7109 22.8789L17.0761 27.244L22.8099 21.5101L21.2353 19.9355L17.0761 24.0948Z" fill="#8B9298"/>
<path d="M25.6085 12.9039V7.60825C25.6085 3.41302 22.1955 0 18.0002 0C13.805 0 10.392 3.41302 10.392 7.60825V12.9039C7.24195 15.2387 5.19611 18.9827 5.19611 23.1959C5.19611 30.2561 10.94 36 18.0002 36C25.0605 36 30.8044 30.2561 30.8044 23.1959C30.8044 18.9827 28.7585 15.2387 25.6085 12.9039ZM12.6188 7.60825C12.6188 4.64088 15.0329 2.2268 18.0002 2.2268C20.9676 2.2268 23.3817 4.64088 23.3817 7.60825V11.5792C21.7447 10.8179 19.9214 10.3918 18.0002 10.3918C16.0791 10.3918 14.2558 10.8179 12.6188 11.5792V7.60825ZM18.0002 33.7732C12.1679 33.7732 7.42291 29.0282 7.42291 23.1959C7.42291 17.3635 12.1679 12.6186 18.0002 12.6186C23.8326 12.6186 28.5775 17.3635 28.5775 23.1959C28.5775 29.0282 23.8326 33.7732 18.0002 33.7732Z" fill="#8B9298"/>
</g>
</svg>
