<svg width="217" height="289" viewBox="0 0 217 289" fill="none" xmlns="http://www.w3.org/2000/svg">
<g clip-path="url(#clip0)">
<path fill-rule="evenodd" clip-rule="evenodd" d="M70.6795 288.873C70.6795 288.873 0.381134 291.409 0.254242 206.7C0.000457764 121.991 0.12735 23.7135 0.12735 23.7135C3.68033 -8.49628 43.2707 -8.11581 44.4128 26.7569C46.1893 77.8614 44.4128 186.664 44.4128 186.664C44.4128 186.664 46.5699 244.236 96.8192 244.617C146.942 244.87 255.561 245.377 255.435 244.997C255.435 244.743 282.463 242.08 281.701 266.555C281.194 283.167 272.946 289 240.081 289C184.502 289 92.5049 288.873 70.6795 288.873Z" fill="#FDFBFA" fill-opacity="0.08"/>
<path fill-rule="evenodd" clip-rule="evenodd" d="M257.846 217.86L125.624 216.845C125.624 216.845 75.7551 214.309 75.7551 146.212C75.7551 133.912 76.2627 76.9738 75.7551 36.141C75.1207 -7.86208 121.944 -8.11568 121.183 36.9019C120.167 89.1476 120.929 133.024 120.929 133.024C120.929 133.024 122.451 172.715 165.849 173.096C209.246 173.476 239.446 172.208 260.51 173.223C272.438 173.857 284.874 183.621 285 194.78C285.127 203.403 282.59 214.563 257.846 217.86Z" fill="#FDFBFA" fill-opacity="0.08"/>
<path fill-rule="evenodd" clip-rule="evenodd" d="M182.598 143.422C182.598 143.422 147.449 140.759 147.576 81.9192C147.576 23.0794 147.703 23.0794 147.83 19.7823C148.972 -3.0435 190.212 -6.84781 191.608 23.0794C193.003 53.0065 191.608 68.4773 191.608 68.4773C191.608 68.4773 187.547 99.6726 230.564 100.18C244.775 100.307 278.529 95.2342 283.097 118.44C286.269 134.799 273.834 143.802 256.196 144.817C229.929 146.212 194.78 143.422 182.598 143.422Z" fill="#FDFBFA" fill-opacity="0.08"/>
</g>
<defs>
<clipPath id="clip0">
<rect width="285" height="289" fill="white" transform="translate(285 289) rotate(-180)"/>
</clipPath>
</defs>
</svg>
