<svg width="24" height="24" viewBox="0 0 24 24" fill="none" xmlns="http://www.w3.org/2000/svg">
<path fill-rule="evenodd" clip-rule="evenodd" d="M2.79004 9.21006C2.79004 4.13162 6.92166 0 12.0002 0C17.0786 0 21.2103 4.13162 21.2103 9.21006C21.2103 11.3009 20.5244 13.2734 19.2269 14.9141L12.0002 24L4.77481 14.9158C3.4759 13.2734 2.79004 11.301 2.79004 9.21006ZM12.0002 21.5561L18.0349 13.9688C19.1165 12.6011 19.6889 10.955 19.6889 9.21006C19.6889 4.97048 16.2398 1.52133 12.0002 1.52133C7.76052 1.52133 4.31137 4.97048 4.31132 9.21006C4.31132 10.955 4.88379 12.6011 5.96672 13.9704L12.0002 21.5561ZM8.19682 9.09726C8.19682 7.00011 9.90299 5.29395 12.0001 5.29395C14.0973 5.29395 15.8034 7.00011 15.8034 9.09726C15.8034 11.1944 14.0973 12.9006 12.0001 12.9006C9.90299 12.9006 8.19682 11.1944 8.19682 9.09726ZM9.71815 9.09726C9.71815 10.3556 10.7418 11.3793 12.0001 11.3793C13.2584 11.3793 14.2821 10.3556 14.2821 9.09726C14.2821 7.83897 13.2584 6.81527 12.0001 6.81527C10.7418 6.81527 9.71815 7.83897 9.71815 9.09726Z" fill="#191E22"/>
</svg>
