<svg width="10" height="10" viewBox="0 0 10 10" fill="none" xmlns="http://www.w3.org/2000/svg">
<g clip-path="url(#clip0)">
<mask id="path-1-inside-1" fill="white">
<path d="M3.11819 7.53127C2.93364 7.53127 2.78357 7.38112 2.78357 7.19664C2.78357 7.01208 2.93364 6.86194 3.11819 6.86194C3.30267 6.86194 3.45282 7.01208 3.45282 7.19664C3.45282 7.38112 3.30267 7.53127 3.11819 7.53127Z"/>
</mask>
<path d="M3.11819 7.53127C2.93364 7.53127 2.78357 7.38112 2.78357 7.19664C2.78357 7.01208 2.93364 6.86194 3.11819 6.86194C3.30267 6.86194 3.45282 7.01208 3.45282 7.19664C3.45282 7.38112 3.30267 7.53127 3.11819 7.53127Z" fill="#1D68D9" stroke="#1D68D9" stroke-width="2" mask="url(#path-1-inside-1)"/>
<mask id="path-2-inside-2" fill="white">
<path d="M7.04077 3.4518C6.85622 3.4518 6.70615 3.30165 6.70615 3.1171C6.70615 2.93262 6.85622 2.78247 7.04077 2.78247C7.22525 2.78247 7.3754 2.93262 7.3754 3.1171C7.37532 3.30165 7.22525 3.4518 7.04077 3.4518Z"/>
</mask>
<path d="M7.04077 3.4518C6.85622 3.4518 6.70615 3.30165 6.70615 3.1171C6.70615 2.93262 6.85622 2.78247 7.04077 2.78247C7.22525 2.78247 7.3754 2.93262 7.3754 3.1171C7.37532 3.30165 7.22525 3.4518 7.04077 3.4518Z" fill="#1D68D9" stroke="#1D68D9" stroke-width="2" mask="url(#path-2-inside-2)"/>
<mask id="path-3-inside-3" fill="white">
<path d="M7.84605 6.5481H5.92162V7.53122H7.84605V6.5481Z"/>
</mask>
<path d="M7.84605 6.5481H5.92162V7.53122H7.84605V6.5481Z" fill="#1D68D9" stroke="#1D68D9" stroke-width="2" mask="url(#path-3-inside-3)"/>
<mask id="path-4-inside-4" fill="white">
<path d="M3.45282 2.46875H2.4697V3.4518H3.45282V2.46875Z"/>
</mask>
<path d="M3.45282 2.46875H2.4697V3.4518H3.45282V2.46875Z" fill="#1D68D9" stroke="#1D68D9" stroke-width="2" mask="url(#path-4-inside-4)"/>
<mask id="path-5-inside-5" fill="white">
<path d="M1.07848 0H5.33568V4.84314C5.33568 5.11414 5.11511 5.33463 4.84412 5.33463H0.000976562V1.0775C0.000976562 0.483398 0.484299 0 1.07848 0ZM1.54921 3.29491C1.38739 3.29491 1.25624 3.42613 1.25624 3.58788C1.25624 3.74969 1.38739 3.88084 1.54921 3.88084H1.9174C1.9451 3.93341 1.98813 3.97652 2.0407 4.00414V4.37241C2.0407 4.53423 2.17184 4.66537 2.33366 4.66537C2.49548 4.66537 2.62663 4.53423 2.62663 4.37241V4.03778H3.29588V4.37241C3.29588 4.53423 3.42711 4.66537 3.58885 4.66537C3.75067 4.66537 3.88182 4.53423 3.88182 4.37241V4.00414C3.93439 3.97652 3.97749 3.93341 4.00511 3.88084H4.37338C4.53513 3.88084 4.66635 3.74969 4.66635 3.58788C4.66635 3.42613 4.53513 3.29491 4.37338 3.29491H4.03876V2.62566H4.37338C4.53513 2.62566 4.66635 2.49451 4.66635 2.33269C4.66635 2.17087 4.53513 2.03972 4.37338 2.03972H4.00511C3.97749 1.98715 3.93439 1.94412 3.88182 1.91643V1.54816C3.88182 1.38641 3.75067 1.25519 3.58885 1.25519C3.42711 1.25519 3.29588 1.38641 3.29588 1.54816V1.88286H2.62663V1.54816C2.62663 1.38641 2.49548 1.25519 2.33366 1.25519C2.17184 1.25519 2.0407 1.38641 2.0407 1.54816V1.91643C1.98813 1.94412 1.94502 1.98715 1.9174 2.03972H1.54921C1.38739 2.03972 1.25624 2.17094 1.25624 2.33269C1.25624 2.49451 1.38739 2.62566 1.54921 2.62566H1.88376V3.29491H1.54921Z"/>
</mask>
<path d="M1.07848 0H5.33568V4.84314C5.33568 5.11414 5.11511 5.33463 4.84412 5.33463H0.000976562V1.0775C0.000976562 0.483398 0.484299 0 1.07848 0ZM1.54921 3.29491C1.38739 3.29491 1.25624 3.42613 1.25624 3.58788C1.25624 3.74969 1.38739 3.88084 1.54921 3.88084H1.9174C1.9451 3.93341 1.98813 3.97652 2.0407 4.00414V4.37241C2.0407 4.53423 2.17184 4.66537 2.33366 4.66537C2.49548 4.66537 2.62663 4.53423 2.62663 4.37241V4.03778H3.29588V4.37241C3.29588 4.53423 3.42711 4.66537 3.58885 4.66537C3.75067 4.66537 3.88182 4.53423 3.88182 4.37241V4.00414C3.93439 3.97652 3.97749 3.93341 4.00511 3.88084H4.37338C4.53513 3.88084 4.66635 3.74969 4.66635 3.58788C4.66635 3.42613 4.53513 3.29491 4.37338 3.29491H4.03876V2.62566H4.37338C4.53513 2.62566 4.66635 2.49451 4.66635 2.33269C4.66635 2.17087 4.53513 2.03972 4.37338 2.03972H4.00511C3.97749 1.98715 3.93439 1.94412 3.88182 1.91643V1.54816C3.88182 1.38641 3.75067 1.25519 3.58885 1.25519C3.42711 1.25519 3.29588 1.38641 3.29588 1.54816V1.88286H2.62663V1.54816C2.62663 1.38641 2.49548 1.25519 2.33366 1.25519C2.17184 1.25519 2.0407 1.38641 2.0407 1.54816V1.91643C1.98813 1.94412 1.94502 1.98715 1.9174 2.03972H1.54921C1.38739 2.03972 1.25624 2.17094 1.25624 2.33269C1.25624 2.49451 1.38739 2.62566 1.54921 2.62566H1.88376V3.29491H1.54921Z" fill="#1D68D9" stroke="#1D68D9" stroke-width="2" mask="url(#path-5-inside-5)"/>
<mask id="path-6-inside-6" fill="white">
<path d="M5.92162 4.84313V0H8.92356C9.51766 0 10.001 0.483397 10.001 1.0775V2.19665H8.45282C8.291 2.19665 8.15985 2.3278 8.15985 2.48962C8.15985 2.65136 8.291 2.78259 8.45282 2.78259H10.001V3.45184H8.45282C8.291 3.45184 8.15985 3.58299 8.15985 3.7448C8.15985 3.90662 8.291 4.03777 8.45282 4.03777H10.001V4.70702H8.45282C8.291 4.70702 8.15985 4.83817 8.15985 4.99999C8.15985 5.16181 8.291 5.29296 8.45282 5.29296H10.001V8.92248C10.001 9.51666 9.51766 9.99998 8.92356 9.99998H5.29395V8.45183C5.29395 8.29001 5.16281 8.15886 5.00099 8.15886C4.83917 8.15886 4.70802 8.29001 4.70802 8.45183V9.99998H4.03877V8.45183C4.03877 8.29001 3.90762 8.15886 3.7458 8.15886C3.58398 8.15886 3.45283 8.29001 3.45283 8.45183V9.99998H2.78351V8.45183C2.78351 8.29001 2.65236 8.15886 2.49054 8.15886C2.3288 8.15886 2.19757 8.29001 2.19757 8.45183V9.99998H1.07849C0.484318 9.99998 0.00099659 9.51666 0.00099659 8.92248V5.92055H4.84413C5.43823 5.92055 5.92162 5.43723 5.92162 4.84313ZM8.55941 1.44157C8.61411 1.49612 8.68949 1.52733 8.7667 1.52733C8.84383 1.52733 8.91921 1.49612 8.97368 1.44157C9.02838 1.3871 9.05966 1.31157 9.05966 1.23436C9.05966 1.15722 9.02838 1.08185 8.97368 1.02714C8.91921 0.97267 8.84383 0.941389 8.7667 0.941389C8.68949 0.941389 8.61396 0.97267 8.55941 1.02714C8.50493 1.08185 8.47373 1.15722 8.47373 1.23436C8.47373 1.31157 8.50493 1.38694 8.55941 1.44157ZM8.55941 8.97284C8.61396 9.02731 8.68949 9.05859 8.7667 9.05859C8.8436 9.05859 8.91921 9.02731 8.97383 8.97284C9.02838 8.91813 9.05966 8.84276 9.05966 8.76562C9.05966 8.68849 9.02838 8.61304 8.97383 8.55841C8.91921 8.50393 8.8436 8.47265 8.7667 8.47265C8.68949 8.47265 8.61396 8.50393 8.55941 8.55841C8.50493 8.61311 8.47373 8.68849 8.47373 8.76562C8.47373 8.84276 8.50493 8.91813 8.55941 8.97284ZM7.04078 2.19665C6.53312 2.19665 6.12022 2.60963 6.12022 3.11721C6.12022 3.62479 6.53312 4.03777 7.04078 4.03777C7.54836 4.03777 7.96134 3.62479 7.96134 3.11721C7.96126 2.60955 7.54836 2.19665 7.04078 2.19665ZM5.33569 7.82423C5.33569 7.98598 5.46684 8.1172 5.62866 8.1172H8.13903C8.30085 8.1172 8.43199 7.98598 8.43199 7.82423V6.25518C8.43199 6.09343 8.30085 5.96221 8.13903 5.96221H5.62866C5.46684 5.96221 5.33569 6.09343 5.33569 6.25518V7.82423ZM1.44249 8.55841C1.38794 8.50393 1.31256 8.47265 1.23543 8.47265C1.1583 8.47265 1.08269 8.50393 1.02822 8.55841C0.973742 8.61311 0.942462 8.68849 0.942462 8.76562C0.942462 8.84276 0.973742 8.91813 1.02822 8.97284C1.08292 9.02731 1.1583 9.05859 1.23543 9.05859C1.31241 9.05859 1.38794 9.02731 1.44249 8.97284C1.49719 8.91813 1.5284 8.84276 1.5284 8.76562C1.5284 8.68849 1.49712 8.61304 1.44249 8.55841ZM3.11821 6.276C2.61063 6.276 2.19765 6.68898 2.19765 7.19664C2.19765 7.70422 2.61055 8.1172 3.11821 8.1172C3.62579 8.1172 4.03877 7.70422 4.03877 7.19664C4.03877 6.68898 3.62579 6.276 3.11821 6.276Z"/>
</mask>
<path d="M5.92162 4.84313V0H8.92356C9.51766 0 10.001 0.483397 10.001 1.0775V2.19665H8.45282C8.291 2.19665 8.15985 2.3278 8.15985 2.48962C8.15985 2.65136 8.291 2.78259 8.45282 2.78259H10.001V3.45184H8.45282C8.291 3.45184 8.15985 3.58299 8.15985 3.7448C8.15985 3.90662 8.291 4.03777 8.45282 4.03777H10.001V4.70702H8.45282C8.291 4.70702 8.15985 4.83817 8.15985 4.99999C8.15985 5.16181 8.291 5.29296 8.45282 5.29296H10.001V8.92248C10.001 9.51666 9.51766 9.99998 8.92356 9.99998H5.29395V8.45183C5.29395 8.29001 5.16281 8.15886 5.00099 8.15886C4.83917 8.15886 4.70802 8.29001 4.70802 8.45183V9.99998H4.03877V8.45183C4.03877 8.29001 3.90762 8.15886 3.7458 8.15886C3.58398 8.15886 3.45283 8.29001 3.45283 8.45183V9.99998H2.78351V8.45183C2.78351 8.29001 2.65236 8.15886 2.49054 8.15886C2.3288 8.15886 2.19757 8.29001 2.19757 8.45183V9.99998H1.07849C0.484318 9.99998 0.00099659 9.51666 0.00099659 8.92248V5.92055H4.84413C5.43823 5.92055 5.92162 5.43723 5.92162 4.84313ZM8.55941 1.44157C8.61411 1.49612 8.68949 1.52733 8.7667 1.52733C8.84383 1.52733 8.91921 1.49612 8.97368 1.44157C9.02838 1.3871 9.05966 1.31157 9.05966 1.23436C9.05966 1.15722 9.02838 1.08185 8.97368 1.02714C8.91921 0.97267 8.84383 0.941389 8.7667 0.941389C8.68949 0.941389 8.61396 0.97267 8.55941 1.02714C8.50493 1.08185 8.47373 1.15722 8.47373 1.23436C8.47373 1.31157 8.50493 1.38694 8.55941 1.44157ZM8.55941 8.97284C8.61396 9.02731 8.68949 9.05859 8.7667 9.05859C8.8436 9.05859 8.91921 9.02731 8.97383 8.97284C9.02838 8.91813 9.05966 8.84276 9.05966 8.76562C9.05966 8.68849 9.02838 8.61304 8.97383 8.55841C8.91921 8.50393 8.8436 8.47265 8.7667 8.47265C8.68949 8.47265 8.61396 8.50393 8.55941 8.55841C8.50493 8.61311 8.47373 8.68849 8.47373 8.76562C8.47373 8.84276 8.50493 8.91813 8.55941 8.97284ZM7.04078 2.19665C6.53312 2.19665 6.12022 2.60963 6.12022 3.11721C6.12022 3.62479 6.53312 4.03777 7.04078 4.03777C7.54836 4.03777 7.96134 3.62479 7.96134 3.11721C7.96126 2.60955 7.54836 2.19665 7.04078 2.19665ZM5.33569 7.82423C5.33569 7.98598 5.46684 8.1172 5.62866 8.1172H8.13903C8.30085 8.1172 8.43199 7.98598 8.43199 7.82423V6.25518C8.43199 6.09343 8.30085 5.96221 8.13903 5.96221H5.62866C5.46684 5.96221 5.33569 6.09343 5.33569 6.25518V7.82423ZM1.44249 8.55841C1.38794 8.50393 1.31256 8.47265 1.23543 8.47265C1.1583 8.47265 1.08269 8.50393 1.02822 8.55841C0.973742 8.61311 0.942462 8.68849 0.942462 8.76562C0.942462 8.84276 0.973742 8.91813 1.02822 8.97284C1.08292 9.02731 1.1583 9.05859 1.23543 9.05859C1.31241 9.05859 1.38794 9.02731 1.44249 8.97284C1.49719 8.91813 1.5284 8.84276 1.5284 8.76562C1.5284 8.68849 1.49712 8.61304 1.44249 8.55841ZM3.11821 6.276C2.61063 6.276 2.19765 6.68898 2.19765 7.19664C2.19765 7.70422 2.61055 8.1172 3.11821 8.1172C3.62579 8.1172 4.03877 7.70422 4.03877 7.19664C4.03877 6.68898 3.62579 6.276 3.11821 6.276Z" fill="#1D68D9" stroke="#1D68D9" stroke-width="2" mask="url(#path-6-inside-6)"/>
</g>
<defs>
<clipPath id="clip0">
<rect width="10" height="10" fill="white" transform="matrix(-1 0 0 1 10.001 0)"/>
</clipPath>
</defs>
</svg>
