<?xml version="1.0" encoding="utf-8"?>
<!-- Generator: Adobe Illustrator 23.0.3, SVG Export Plug-In . SVG Version: 6.00 Build 0)  -->
<svg version="1.1" id="Слой_1" xmlns="http://www.w3.org/2000/svg" xmlns:xlink="http://www.w3.org/1999/xlink" x="0px" y="0px"
	 viewBox="0 0 10 10" style="enable-background:new 0 0 10 10;" xml:space="preserve">
<style type="text/css">
	.st0{fill:#FFFFFF;filter:url(#Adobe_OpacityMaskFilter);}
	.st1{mask:url(#path-1-inside-1_1_);fill:#D03839;stroke:#1D68D9;stroke-width:1.9961;}
	.st2{fill:#FFFFFF;filter:url(#Adobe_OpacityMaskFilter_1_);}
	.st3{mask:url(#path-2-inside-2_1_);fill:#D03839;stroke:#1D68D9;stroke-width:1.9961;}
	.st4{fill:#FFFFFF;filter:url(#Adobe_OpacityMaskFilter_2_);}
	.st5{mask:url(#path-3-inside-3_1_);fill:#D03839;stroke:#1D68D9;stroke-width:1.9961;}
	.st6{fill:#FFFFFF;filter:url(#Adobe_OpacityMaskFilter_3_);}
	.st7{mask:url(#path-4-inside-4_1_);fill:#D03839;stroke:#1D68D9;stroke-width:1.9961;}
</style>
<defs>
	<filter id="Adobe_OpacityMaskFilter" filterUnits="userSpaceOnUse" x="2.4" y="3" width="5.3" height="3.7">
		<feColorMatrix  type="matrix" values="1 0 0 0 0  0 1 0 0 0  0 0 1 0 0  0 0 0 1 0"/>
	</filter>
</defs>
<mask maskUnits="userSpaceOnUse" x="2.4" y="3" width="5.3" height="3.7" id="path-1-inside-1_1_">
	<path class="st0" d="M3.6,5.5c0.2,0.2,0.6,0.2,0.8,0C4.7,5,5.3,5,5.6,5.4c0.2,0.2,0.6,0.3,0.8,0c0.2-0.2,0.3-0.6,0-0.8
		c-0.8-0.9-2.1-0.9-3,0C3.3,4.9,3.3,5.2,3.6,5.5z"/>
</mask>
<path class="st1" d="M3.6,5.5c0.2,0.2,0.6,0.2,0.8,0C4.7,5,5.3,5,5.6,5.4c0.2,0.2,0.6,0.3,0.8,0c0.2-0.2,0.3-0.6,0-0.8
	c-0.8-0.9-2.1-0.9-3,0C3.3,4.9,3.3,5.2,3.6,5.5z"/>
<defs>
	<filter id="Adobe_OpacityMaskFilter_1_" filterUnits="userSpaceOnUse" x="1.6" y="1" width="6.8" height="4">
		<feColorMatrix  type="matrix" values="1 0 0 0 0  0 1 0 0 0  0 0 1 0 0  0 0 0 1 0"/>
	</filter>
</defs>
<mask maskUnits="userSpaceOnUse" x="1.6" y="1" width="6.8" height="4" id="path-2-inside-2_1_">
	<path class="st2" d="M2.7,3.1c-0.2,0.2-0.2,0.6,0,0.8c0.2,0.2,0.6,0.2,0.8,0c0.8-0.9,2-0.9,2.8,0c0.2,0.2,0.6,0.3,0.8,0
		c0.2-0.2,0.3-0.6,0-0.8C6,1.7,4,1.7,2.7,3.1z"/>
</mask>
<path class="st3" d="M2.7,3.1c-0.2,0.2-0.2,0.6,0,0.8c0.2,0.2,0.6,0.2,0.8,0c0.8-0.9,2-0.9,2.8,0c0.2,0.2,0.6,0.3,0.8,0
	c0.2-0.2,0.3-0.6,0-0.8C6,1.7,4,1.7,2.7,3.1z"/>
<defs>
	<filter id="Adobe_OpacityMaskFilter_2_" filterUnits="userSpaceOnUse" x="0.7" y="-0.9" width="8.6" height="4.4">
		<feColorMatrix  type="matrix" values="1 0 0 0 0  0 1 0 0 0  0 0 1 0 0  0 0 0 1 0"/>
	</filter>
</defs>
<mask maskUnits="userSpaceOnUse" x="0.7" y="-0.9" width="8.6" height="4.4" id="path-3-inside-3_1_">
	<path class="st4" d="M1.9,1.6c-0.2,0.2-0.2,0.6,0,0.8c0.2,0.2,0.6,0.2,0.8,0C4,1,6,1,7.3,2.4c0.2,0.2,0.6,0.3,0.8,0s0.3-0.6,0-0.8
		C6.4-0.3,3.6-0.3,1.9,1.6z"/>
</mask>
<path class="st5" d="M1.9,1.6c-0.2,0.2-0.2,0.6,0,0.8c0.2,0.2,0.6,0.2,0.8,0C4,1,6,1,7.3,2.4c0.2,0.2,0.6,0.3,0.8,0s0.3-0.6,0-0.8
	C6.4-0.3,3.6-0.3,1.9,1.6z"/>
<defs>
	<filter id="Adobe_OpacityMaskFilter_3_" filterUnits="userSpaceOnUse" x="2.3" y="5.2" width="5.4" height="5.7">
		<feColorMatrix  type="matrix" values="1 0 0 0 0  0 1 0 0 0  0 0 1 0 0  0 0 0 1 0"/>
	</filter>
</defs>
<mask maskUnits="userSpaceOnUse" x="2.3" y="5.2" width="5.4" height="5.7" id="path-4-inside-4_1_">
	<path class="st6" d="M6.2,6.2c-0.3,0-0.6,0.3-0.6,0.6v1L4.3,6.4C4,6,3.3,6.2,3.3,6.7v2.5c0,0.3,0.3,0.6,0.6,0.6
		c0.3,0,0.6-0.3,0.6-0.6v-1l1.2,1.4c0.4,0.4,1,0.1,1-0.4V6.7C6.8,6.4,6.5,6.2,6.2,6.2z"/>
</mask>
<path class="st7" d="M6.2,6.2c-0.3,0-0.6,0.3-0.6,0.6v1L4.3,6.4C4,6,3.3,6.2,3.3,6.7v2.5c0,0.3,0.3,0.6,0.6,0.6
	c0.3,0,0.6-0.3,0.6-0.6v-1l1.2,1.4c0.4,0.4,1,0.1,1-0.4V6.7C6.8,6.4,6.5,6.2,6.2,6.2z"/>
</svg>
