<svg height="512pt" viewBox="0 0 512 512" width="512pt" xmlns="http://www.w3.org/2000/svg"><path d="m315.742188 477.867188h-119.484376c-14.113281 0-25.589843-11.488282-25.589843-25.59375v-85.347657c0-14.105469 11.476562-25.59375 25.589843-25.59375h119.484376c14.113281 0 25.589843 11.488281 25.589843 25.59375v85.347657c0 14.105468-11.476562 25.59375-25.589843 25.59375zm-119.484376-119.46875c-4.703124 0-8.523437 3.824218-8.523437 8.527343v85.347657c0 4.703124 3.820313 8.527343 8.523437 8.527343h119.484376c4.703124 0 8.523437-3.824219 8.523437-8.527343v-85.347657c0-4.703125-3.820313-8.527343-8.523437-8.527343zm0 0"/><path d="m315.742188 477.867188h-119.484376c-14.113281 0-25.589843-11.488282-25.589843-25.59375v-17.074219c0-4.71875 3.820312-8.53125 8.53125-8.53125h153.601562c4.710938 0 8.53125 3.8125 8.53125 8.53125v17.074219c0 14.105468-11.476562 25.59375-25.589843 25.59375zm-128.007813-34.132813v8.539063c0 4.703124 3.820313 8.527343 8.523437 8.527343h119.484376c4.703124 0 8.523437-3.824219 8.523437-8.527343v-8.539063zm0 0"/><path d="m290.132812 512h-68.265624c-4.710938 0-8.535157-3.8125-8.535157-8.535156 0-4.71875 3.824219-8.53125 8.535157-8.53125h68.265624c4.710938 0 8.535157 3.8125 8.535157 8.53125 0 4.722656-3.824219 8.535156-8.535157 8.535156zm0 0"/><path d="m256 512c-4.710938 0-8.535156-3.8125-8.535156-8.535156v-34.132813c0-4.71875 3.824218-8.53125 8.535156-8.53125s8.535156 3.8125 8.535156 8.53125v34.132813c0 4.722656-3.824218 8.535156-8.535156 8.535156zm0 0"/><path d="m315.742188 136.535156h-119.484376c-14.113281 0-25.589843-11.488281-25.589843-25.59375v-85.351562c0-14.105469 11.476562-25.589844 25.589843-25.589844h119.484376c14.113281 0 25.589843 11.484375 25.589843 25.589844v85.351562c0 14.105469-11.476562 25.59375-25.589843 25.59375zm-119.484376-119.46875c-4.703124 0-8.523437 3.824219-8.523437 8.523438v85.351562c0 4.703125 3.820313 8.523438 8.523437 8.523438h119.484376c4.703124 0 8.523437-3.820313 8.523437-8.523438v-85.351562c0-4.699219-3.820313-8.523438-8.523437-8.523438zm0 0"/><path d="m315.742188 136.535156h-119.484376c-14.113281 0-25.589843-11.488281-25.589843-25.59375v-17.074218c0-4.71875 3.820312-8.535157 8.53125-8.535157h153.601562c4.710938 0 8.53125 3.816407 8.53125 8.535157v17.074218c0 14.105469-11.476562 25.59375-25.589843 25.59375zm-128.007813-34.136718v8.542968c0 4.703125 3.820313 8.523438 8.523437 8.523438h119.484376c4.703124 0 8.523437-3.820313 8.523437-8.523438v-8.542968zm0 0"/><path d="m290.132812 170.667969h-68.265624c-4.710938 0-8.535157-3.816407-8.535157-8.535157s3.824219-8.53125 8.535157-8.53125h68.265624c4.710938 0 8.535157 3.8125 8.535157 8.53125s-3.824219 8.535157-8.535157 8.535157zm0 0"/><path d="m256 170.667969c-4.710938 0-8.535156-3.816407-8.535156-8.535157v-34.132812c0-4.71875 3.824218-8.535156 8.535156-8.535156s8.535156 3.816406 8.535156 8.535156v34.132812c0 4.71875-3.824218 8.535157-8.535156 8.535157zm0 0"/><path d="m486.410156 307.199219h-119.484375c-14.113281 0-25.59375-11.484375-25.59375-25.589844v-85.351563c0-14.105468 11.480469-25.589843 25.59375-25.589843h119.484375c14.113282 0 25.589844 11.484375 25.589844 25.589843v85.351563c0 14.105469-11.476562 25.589844-25.589844 25.589844zm-119.484375-119.464844c-4.703125 0-8.527343 3.820313-8.527343 8.523437v85.351563c0 4.699219 3.824218 8.523437 8.527343 8.523437h119.484375c4.699219 0 8.523438-3.824218 8.523438-8.523437v-85.351563c0-4.703124-3.824219-8.523437-8.523438-8.523437zm0 0"/><path d="m486.410156 307.199219h-119.484375c-14.113281 0-25.59375-11.484375-25.59375-25.589844v-17.074219c0-4.722656 3.824219-8.535156 8.535157-8.535156h153.597656c4.710937 0 8.535156 3.8125 8.535156 8.535156v17.074219c0 14.105469-11.476562 25.589844-25.589844 25.589844zm-128.011718-34.132813v8.542969c0 4.699219 3.824218 8.523437 8.527343 8.523437h119.484375c4.699219 0 8.523438-3.824218 8.523438-8.523437v-8.542969zm0 0"/><path d="m460.800781 341.332031h-68.265625c-4.710937 0-8.535156-3.8125-8.535156-8.53125s3.824219-8.535156 8.535156-8.535156h68.265625c4.710938 0 8.53125 3.816406 8.53125 8.535156s-3.820312 8.53125-8.53125 8.53125zm0 0"/><path d="m426.667969 341.332031c-4.710938 0-8.535157-3.8125-8.535157-8.53125v-34.132812c0-4.71875 3.824219-8.535157 8.535157-8.535157 4.710937 0 8.53125 3.816407 8.53125 8.535157v34.132812c0 4.71875-3.820313 8.53125-8.53125 8.53125zm0 0"/><path d="m145.074219 307.199219h-119.484375c-14.113282 0-25.589844-11.484375-25.589844-25.589844v-85.351563c0-14.105468 11.476562-25.589843 25.589844-25.589843h119.484375c14.113281 0 25.59375 11.484375 25.59375 25.589843v85.351563c0 14.105469-11.480469 25.589844-25.59375 25.589844zm-119.484375-119.464844c-4.699219 0-8.523438 3.820313-8.523438 8.523437v85.351563c0 4.699219 3.824219 8.523437 8.523438 8.523437h119.484375c4.703125 0 8.527343-3.824218 8.527343-8.523437v-85.351563c0-4.703124-3.824218-8.523437-8.527343-8.523437zm0 0"/><path d="m145.074219 307.199219h-119.484375c-14.113282 0-25.589844-11.484375-25.589844-25.589844v-17.074219c0-4.722656 3.824219-8.535156 8.535156-8.535156h153.597656c4.710938 0 8.535157 3.8125 8.535157 8.535156v17.074219c0 14.105469-11.480469 25.589844-25.59375 25.589844zm-128.007813-34.132813v8.542969c0 4.699219 3.824219 8.523437 8.523438 8.523437h119.484375c4.703125 0 8.527343-3.824218 8.527343-8.523437v-8.542969zm0 0"/><path d="m119.464844 341.332031h-68.265625c-4.710938 0-8.53125-3.8125-8.53125-8.53125s3.820312-8.535156 8.53125-8.535156h68.265625c4.710937 0 8.535156 3.816406 8.535156 8.535156s-3.824219 8.53125-8.535156 8.53125zm0 0"/><path d="m85.332031 341.332031c-4.710937 0-8.53125-3.8125-8.53125-8.53125v-34.132812c0-4.71875 3.820313-8.535157 8.53125-8.535157 4.710938 0 8.535157 3.816407 8.535157 8.535157v34.132812c0 4.71875-3.824219 8.53125-8.535157 8.53125zm0 0"/><path d="m256 290.132812c-18.824219 0-34.132812-15.308593-34.132812-34.132812s15.308593-34.132812 34.132812-34.132812 34.132812 15.308593 34.132812 34.132812-15.308593 34.132812-34.132812 34.132812zm0-51.199218c-9.414062 0-17.066406 7.652344-17.066406 17.066406s7.652344 17.066406 17.066406 17.066406 17.066406-7.652344 17.066406-17.066406-7.652344-17.066406-17.066406-17.066406zm0 0"/><path d="m256 238.933594c-4.710938 0-8.535156-3.816406-8.535156-8.535156v-34.132813c0-4.71875 3.824218-8.53125 8.535156-8.53125s8.535156 3.8125 8.535156 8.53125v34.132813c0 4.71875-3.824218 8.535156-8.535156 8.535156zm0 0"/><path d="m256 324.265625c-4.710938 0-8.535156-3.8125-8.535156-8.53125v-34.132813c0-4.71875 3.824218-8.535156 8.535156-8.535156s8.535156 3.816406 8.535156 8.535156v34.132813c0 4.71875-3.824218 8.53125-8.535156 8.53125zm0 0"/><path d="m315.734375 264.535156h-34.132813c-4.710937 0-8.535156-3.816406-8.535156-8.535156s3.824219-8.535156 8.535156-8.535156h34.132813c4.710937 0 8.53125 3.816406 8.53125 8.535156s-3.820313 8.535156-8.53125 8.535156zm0 0"/><path d="m230.398438 264.535156h-34.132813c-4.710937 0-8.53125-3.816406-8.53125-8.535156s3.820313-8.535156 8.53125-8.535156h34.132813c4.710937 0 8.535156 3.816406 8.535156 8.535156s-3.824219 8.535156-8.535156 8.535156zm0 0"/></svg>