<svg width="36" height="36" viewBox="0 0 36 36" fill="none" xmlns="http://www.w3.org/2000/svg">
<path d="M34.2422 12.6562H31.7812V9.05521L22.726 0H4.21875V12.6562H1.75781V30.6562H4.21875V36H31.7812V30.6562H34.2422V12.6562ZM23.3438 3.60104L28.1802 8.4375H23.3438V3.60104ZM6.32812 2.10938H21.2344V10.5469H29.6719V12.6562H6.32812V2.10938ZM29.6719 33.8906H6.32812V30.6562H29.6719V33.8906ZM32.1328 28.5469H3.86719V14.7656H32.1328V28.5469Z" fill="#BCCBD7"/>
<path d="M9 23.4141H10.0195C11.7837 23.4141 13.2188 21.979 13.2188 20.2148C13.2188 18.4507 11.7837 17.0156 10.0195 17.0156H6.89062V26.5781H9V23.4141ZM9 19.125H10.0195C10.6205 19.125 11.1094 19.6139 11.1094 20.2148C11.1094 20.8158 10.6205 21.3047 10.0195 21.3047H9V19.125Z" fill="#BCCBD7"/>
<path d="M21.6562 22.3594V21.2344C21.6562 18.908 19.7639 17.0156 17.4375 17.0156H15.3281V26.5781H17.4375C19.7639 26.5781 21.6562 24.6857 21.6562 22.3594ZM17.4375 19.125C18.6007 19.125 19.5469 20.0712 19.5469 21.2344V22.3594C19.5469 23.5226 18.6007 24.4688 17.4375 24.4688V19.125Z" fill="#BCCBD7"/>
<path d="M26.0156 23.6602H28.125V21.5508H26.0156V19.125H29.1797V17.0156H23.9062V26.5781H26.0156V23.6602Z" fill="#BCCBD7"/>
</svg>
