<svg width="24" height="24" viewBox="0 0 24 24" fill="none" xmlns="http://www.w3.org/2000/svg">
<g clip-path="url(#clip0)">
<path fill-rule="evenodd" clip-rule="evenodd" d="M14.9724 15.8381L17.6161 13.1944L24.0468 19.6251L20.8193 22.8525C20.0871 23.5848 19.0599 23.9532 17.8098 23.9532C16.8002 23.9532 15.6453 23.7131 14.3821 23.2306C11.7389 22.2212 8.87168 20.2539 6.30893 17.691C3.77621 15.1584 1.82027 12.3208 0.801105 9.70113C-0.285079 6.90895 -0.19554 4.62708 1.05324 3.27558L1.07247 3.25562L4.37478 -0.046875L10.8055 6.3838L8.17332 9.01613C9.03446 10.3193 10.0758 11.5846 11.2748 12.7835C12.4507 13.9594 13.6925 14.9852 14.9724 15.8381ZM20.6057 21.0766L22.0573 19.6251L17.6161 15.1839L16.1646 16.6355L20.6057 21.0766ZM7.38028 7.81953L8.81602 6.3838L4.37478 1.94275L2.93923 3.37849L7.38028 7.81953ZM7.30375 16.6963C9.72972 19.1223 12.4217 20.9761 14.884 21.9165C16.9507 22.7057 18.6402 22.7496 19.5936 22.054L15.17 17.6303L15.1681 17.632L14.693 17.3333C13.1584 16.368 11.6736 15.172 10.2801 13.7783C8.86216 12.3604 7.65055 10.8509 6.67844 9.29134L6.38272 8.81709L6.38565 8.81435L1.95779 4.38648C1.23909 5.34742 1.29073 7.0796 2.11214 9.191C3.06228 11.6331 4.90597 14.2986 7.30375 16.6963ZM17.9407 5.21645C19.364 6.63992 19.9386 8.6636 19.4777 10.6302L20.8475 10.9511C21.4201 8.50723 20.7055 5.99172 18.9356 4.22182C18.055 3.34108 16.9578 2.70259 15.7629 2.37502C14.6058 2.05806 13.3761 2.03536 12.2061 2.30965L12.527 3.67928C14.4936 3.21859 16.5173 3.79317 17.9407 5.21645ZM17.8317 10.1579C18.1518 8.79152 17.7521 7.38472 16.7622 6.39485C15.7722 5.40498 14.3654 5.00508 12.999 5.32533L13.32 6.69496C14.2092 6.48659 15.124 6.74641 15.7674 7.38966C16.4107 8.03292 16.6703 8.94771 16.4619 9.83706L17.8317 10.1579Z" fill="#191E22"/>
</g>
<defs>
<clipPath id="clip0">
<rect width="24" height="24" fill="white"/>
</clipPath>
</defs>
</svg>
