<?xml version="1.0" encoding="utf-8"?>
<!-- Generator: Adobe Illustrator 23.0.3, SVG Export Plug-In . SVG Version: 6.00 Build 0)  -->
<svg version="1.1" id="Capa_1" xmlns="http://www.w3.org/2000/svg" xmlns:xlink="http://www.w3.org/1999/xlink" x="0px" y="0px"
	 viewBox="0 0 578.1 578.1" style="enable-background:new 0 0 578.1 578.1;" xml:space="preserve">
<style type="text/css">
	.st0{fill:#010002;}
</style>
<path class="st0" d="M492.1,0H86C38.5,0,0,38.5,0,86v406.2c0,47.5,38.5,86,86,86h406.2c47.5,0,86-38.5,86-86V86
	C578.1,38.5,539.6,0,492.1,0z M450.9,401.1l-47.6,47.2c-2.1,2.4-4.9,4.4-8.4,6.1c-3.5,1.7-6.9,2.7-10.2,3.2c-0.2,0-1,0.1-2.1,0.2
	c-1.2,0.1-2.7,0.2-4.6,0.2c-4.5,0-11.9-0.8-22-2.3c-10.1-1.6-22.5-5.4-37.2-11.5c-14.7-6.1-31.3-15.2-49.9-27.4
	c-18.6-12.2-38.4-28.9-59.4-50.1c-16.7-16.5-30.5-32.2-41.5-47.2c-11-15-19.8-28.9-26.5-41.7c-6.7-12.8-11.7-24.3-15-34.7
	c-3.3-10.4-5.6-19.3-6.8-26.8c-1.2-7.5-1.7-13.4-1.4-17.7s0.4-6.7,0.4-7.2c0.5-3.3,1.6-6.7,3.2-10.2c1.7-3.5,3.7-6.3,6.1-8.4
	l47.6-47.6c3.3-3.3,7.2-5,11.5-5c3.1,0,5.8,0.9,8.2,2.7c2.4,1.8,4.4,4,6.1,6.6l38.3,72.6c2.1,3.8,2.7,8,1.8,12.5
	c-1,4.5-3,8.3-6.1,11.5l-17.5,17.5c-0.5,0.5-0.9,1.3-1.3,2.3c-0.4,1.1-0.5,2-0.5,2.7c1,5,3.1,10.7,6.4,17.2
	c2.9,5.7,7.3,12.7,13.2,20.9s14.4,17.7,25.4,28.4c10.7,11,20.3,19.5,28.6,25.6c8.3,6.1,15.3,10.6,20.9,13.4
	c5.6,2.9,9.9,4.6,12.9,5.2l4.5,0.9c0.5,0,1.3-0.2,2.3-0.5c1.1-0.4,1.8-0.8,2.3-1.3l20.4-20.8c4.3-3.8,9.3-5.7,15-5.7
	c4.1,0,7.3,0.7,9.7,2.1h0.4l69.1,40.8c5,3.1,8,7,8.9,11.8C456.6,392.2,454.9,397,450.9,401.1z"/>
</svg>
