<svg width="24" height="19" viewBox="0 0 24 19" fill="none" xmlns="http://www.w3.org/2000/svg">
<path d="M16.5616 10.9296C16.5612 10.0275 16.2932 9.1458 15.7917 8.39594C15.2902 7.64609 14.5775 7.06178 13.744 6.71689C12.9104 6.372 11.9932 6.28202 11.1085 6.45833C10.2238 6.63463 9.41122 7.0693 8.77352 7.70738C8.13582 8.34547 7.70163 9.1583 7.52585 10.0431C7.35007 10.928 7.4406 11.845 7.78598 12.6784C8.13137 13.5118 8.7161 14.2241 9.46625 14.7251C10.2164 15.2262 11.0983 15.4936 12.0004 15.4936C13.21 15.4918 14.3696 15.0103 15.2247 14.1547C16.0798 13.2991 16.5606 12.1393 16.5616 10.9296ZM8.98839 10.9296C8.98885 10.334 9.16589 9.7519 9.49714 9.25689C9.82838 8.76187 10.299 8.37618 10.8494 8.14856C11.3998 7.92094 12.0053 7.86163 12.5894 7.97811C13.1736 8.09459 13.71 8.38164 14.131 8.80297C14.552 9.2243 14.8387 9.76099 14.9547 10.3452C15.0707 10.9294 15.011 11.5349 14.7829 12.0851C14.5549 12.6354 14.1688 13.1057 13.6735 13.4365C13.1783 13.7674 12.596 13.944 12.0004 13.944C11.2015 13.9428 10.4357 13.6248 9.87101 13.0597C9.30633 12.4946 8.9889 11.7285 8.98839 10.9296Z" fill="#191E22"/>
<path d="M16.7599 3.2642L14.5878 0H9.41296L7.24044 3.2642H4.64489V0.774793H3.0953V3.2642H0V4.81379H22.4516V6.36531H19.3551V15.4935H22.4516V17.0455H1.54842V15.4935H4.64527V6.36531L0 6.36338V14.3944H1.54959V7.9149H3.09917V13.944H0V18.595H24V7.46488H22.4504V13.944H20.9008V7.9149H23.9973V3.2642H16.7599ZM9.10072 3.2642L10.242 1.54959H13.7584L14.8997 3.2642H9.10072Z" fill="#191E22"/>
</svg>
