<svg id="icons" enable-background="new 0 0 64 64" height="512" viewBox="0 0 64 64" width="512" xmlns="http://www.w3.org/2000/svg"><path d="m63.991 4.5c0-1.654-1.346-3-3-3h-58c-1.654 0-3 1.346-3 3v2c0 .031.015.057.018.087v54.913c0 .553.447 1 1 1h62c.553 0 1-.447 1-1v-55c0-.031-.015-.057-.018-.087zm-61-1h1.02c-.552 0-.994.447-.994 1s.452 1 1.005 1c.552 0 1-.447 1-1s-.448-1-1-1h2.989c-.552 0-.994.447-.994 1s.452 1 1.005 1c.552 0 1-.447 1-1s-.448-1-1-1h2.989c-.552 0-.994.447-.994 1s.452 1 1.005 1c.552 0 1-.447 1-1s-.448-1-1-1h50.97c.552 0 1 .448 1 1v1h-51.97-3-3-2.03v-1c-.001-.552.447-1 .999-1zm59.018 57h-60v-53h60z"/><path d="m53.016 52.5h-42.001c-.553 0-1 .447-1 1s.447 1 1 1h42.001c.553 0 1-.447 1-1s-.448-1-1-1z"/><path d="m42.016 55.498h-20.001c-.553 0-1 .447-1 1s.447 1 1 1h20.001c.553 0 1-.447 1-1s-.448-1-1-1z"/><path d="m4.016 20.682v11.815c0 .002-.001.003-.001.005s.001.003.001.005v11.988c0 .002-.001.003-.001.005s.001.003.001.005v3.985c0 .004-.002.006-.002.01 0 .553.447 1 1 1h3.001c.553 0 1-.447 1-1s-.447-1-1-1h-1.999v-2h2c.553 0 1-.447 1-1 0-.026-.013-.048-.015-.073.002-.025.015-.047.015-.073v-11.852c0-.553-.447-1-1-1h-2v-10.004h4.002l-.001 3.002c0 .553.447 1 1 1 2.414 0 4.435-1.721 4.899-4h4.106c.553 0 1-.447 1-1 0-.001-.001-.003-.001-.004s.001-.003.001-.004l-.004-8.992h2l-.001 3c0 .553.447 1 1 1 2.414 0 4.435-1.721 4.899-4h2.1v8.921c-.002.026-.016.05-.016.077 0 .553.447 1 1 1h10.017v3.002c0 .553.447 1 1 1 2.414 0 4.435-1.721 4.899-4h6.101v9.994h-2v-2.994c0-.553-.447-1-1-1h-4.001c-.553 0-1 .447-1 1v2.994h-7c-.553 0-1 .447-1 1 0 .001.001.002.001.003s-.001.002-.001.003c0 1.302-.839 2.401-2 2.815v-2.815c0-.553-.447-1-1-1h-3c-.038 0-.07.018-.106.021h-7.896c-.553 0-1 .447-1 1v11.977c0 .553.447 1 1 1h7.002v2.002h-1.995c-.553 0-1 .447-1 1s.447 1 1 1h2.918c.026.002.05.016.077.016s.051-.014.077-.016h2.924c.553 0 1-.447 1-1s-.447-1-1-1h-2.001v-2.987c0-.005.003-.01.003-.015s-.003-.01-.003-.015v-10.983h1v3c0 .553.447 1 1 1 2.416 0 4.438-1.724 4.899-4.006h1.101v10.006c0 .553.447 1 1 1h16v3h-2.001c-.553 0-1 .447-1 1s.447 1 1 1h3.001c.553 0 1-.447 1-1v-38c0-.553-.447-1-1-1h-31.001c-.553 0-1 .447-1 1 0 .002.001.004.001.007-.003 1.299-.839 2.396-1.999 2.809l.001-2.815c0-.553-.447-1-1-1h-19.002c-.553 0-1 .447-1 1v9.814c-.012.062-.037.118-.037.184s.025.121.037.183zm20.998 18.816h3.007v4h-3.007zm3.007-2h-3.007v-3.977h3.007zm2 6v-9.977h.995v9.977zm13.996-20.183v-2.815-.001-.001c0-.553-.447-1-1-1h-10.001v-7.998h1.001v3c0 .553.447 1 1 1h1.052c.232 1.14 1.241 2 2.449 2s2.217-.86 2.449-2h1.051c.553 0 1-.447 1-1v-3h3.998v3c0 .553.447 1 1 1h10v4h-2.989c-.004 0-.007-.002-.01-.002s-.006.002-.01.002h-7.99c-.553 0-1 .447-1 1 0 1.302-.839 2.401-2 2.815zm-2.999-9.815h-.513c-.456-.604-1.174-1-1.987-1s-1.531.396-1.987 1h-.514v-2h5.001zm-2.5 1c.275 0 .5.225.5.5s-.225.5-.5.5-.5-.225-.5-.5.224-.5.5-.5zm14.498 18.994h.999v9.006h-.999zm2.999 0h2.001v3.006h-2.001zm2.001-19.994h-9v-2h9zm0 8v6h-1.999v-6zm-1.999 8h1.999v1.994h-1.999zm-8.001 0h2.001v1.994h-2.001zm-1.136 3.994c.047.007.088.027.136.027s.089-.021.136-.027h3.729c.046.007.087.027.135.027v8.979h-8v-9.006zm9.135 9.006v-4h2.001v4zm-48.999-8.998v9.998h-1v-9.998zm-1-14.004v-7.998h1v7.998zm6.001 3.817.001-2.793c0-.009.005-.016.005-.024 0-.553-.447-1-1-1h-2.007v-7.998h7.002v8h-1.001c-.553 0-1 .447-1 1 0 1.302-.838 2.401-2 2.815zm7.004-3.815h-1.004v-8h1z"/><path d="m53.015 49.5c.553 0 1-.447 1-1s-.447-1-1-1h-14.998c-.553 0-1 .447-1 1s.447 1 1 1z"/><path d="m10.015 48.5c0 .553.447 1 1 1h14.998c.553 0 1-.447 1-1s-.447-1-1-1h-14.998c-.553 0-1 .447-1 1z"/><path d="m19.016 43.5c.553 0 1-.447 1-1v-8c0-.553-.447-1-1-1h-6.001c-.553 0-1 .447-1 1v8c0 .553.447 1 1 1zm-5.001-8h4.001v6h-4.001z"/></svg>