<svg width="57" height="57" viewBox="0 0 57 57" fill="none" xmlns="http://www.w3.org/2000/svg">
<g clip-path="url(#clip0)">
<path d="M10.9846 49.1003H10.9741C10.5132 49.1003 10.1448 49.4751 10.1448 49.9369C10.1448 50.3992 10.5236 50.7735 10.9846 50.7735C11.446 50.7735 11.8195 50.3992 11.8195 49.9369C11.8195 49.4751 11.446 49.1003 10.9846 49.1003Z" fill="#1D68D9"/>
<path d="M21.0463 49.1003H21.0363C20.5749 49.1003 20.2061 49.4751 20.2061 49.9369C20.2061 50.3992 20.5853 50.7735 21.0463 50.7735C21.5077 50.7735 21.8812 50.3992 21.8812 49.9369C21.8812 49.4751 21.5077 49.1003 21.0463 49.1003Z" fill="#1D68D9"/>
<path d="M31.1032 49.1003H31.0928C30.6318 49.1003 30.2631 49.4751 30.2631 49.9369C30.2631 50.3992 30.6423 50.7735 31.1032 50.7735C31.5646 50.7735 31.9382 50.3992 31.9382 49.9369C31.9382 49.4751 31.5646 49.1003 31.1032 49.1003Z" fill="#1D68D9"/>
<path d="M41.1602 49.1003H41.1497C40.6883 49.1003 40.32 49.4751 40.32 49.9369C40.32 50.3992 40.6988 50.7735 41.1602 50.7735C41.6211 50.7735 41.9951 50.3992 41.9951 49.9369C41.9951 49.4751 41.6211 49.1003 41.1602 49.1003Z" fill="#1D68D9"/>
<path d="M51.1727 50.7735C51.6342 50.7735 52.0077 50.3992 52.0077 49.9369C52.0077 49.4751 51.6342 49.1003 51.1727 49.1003H51.1623C50.7013 49.1003 50.3326 49.4751 50.3326 49.9369C50.3326 50.3992 50.7118 50.7735 51.1727 50.7735Z" fill="#1D68D9"/>
<path d="M56.1651 54.6802H19.255C18.7941 54.6802 18.4201 55.0549 18.4201 55.5168C18.4201 55.9791 18.7941 56.3534 19.255 56.3534H56.1651C56.6261 56.3534 57.0001 55.9791 57.0001 55.5168C57.0001 55.0549 56.6261 54.6802 56.1651 54.6802Z" fill="#1D68D9"/>
<path d="M15.1407 54.6803H6.48533C3.87477 54.6803 1.75128 52.5527 1.75128 49.9374C1.75128 47.3218 3.87477 45.1941 6.48533 45.1941H56.1651C56.6261 45.1941 57.0001 44.8198 57.0001 44.3575C57.0001 43.8952 56.6261 43.5209 56.1651 43.5209H54.1777C54.3913 43.1031 54.5126 42.6307 54.5126 42.1297V26.0814C54.5126 25.006 53.6394 24.1311 52.5661 24.1311H43.2054C42.744 24.1311 42.3704 24.5054 42.3704 24.9677C42.3704 25.43 42.744 25.8043 43.2054 25.8043H52.5661C52.7183 25.8043 52.8427 25.9285 52.8427 26.0814V27.3585C52.7518 27.3455 52.66 27.3363 52.5657 27.3363H50.5791C49.9773 27.3363 49.4193 27.6086 49.0475 28.0827L47.6833 29.8252C47.6302 29.8923 47.5511 29.9311 47.4659 29.9311H40.5252C40.4396 29.9311 40.36 29.8923 40.3074 29.8252L38.9432 28.0827C38.5718 27.6086 38.0134 27.3363 37.4115 27.3363H35.425C35.3307 27.3363 35.2389 27.3455 35.1484 27.3585V26.0814C35.1484 25.9285 35.2724 25.8043 35.425 25.8043H39.4002C39.8612 25.8043 40.2352 25.43 40.2352 24.9677C40.2352 24.5054 39.8612 24.1311 39.4002 24.1311H35.425C34.3513 24.1311 33.4785 25.006 33.4785 26.0814V42.1297C33.4785 42.6303 33.5994 43.1031 33.8129 43.5209H29.355C29.5685 43.1031 29.6899 42.6303 29.6899 42.1297V29.2871C29.6899 28.2112 28.8166 27.3367 27.7434 27.3367H25.7569C25.155 27.3367 24.597 27.6086 24.2252 28.0831L22.861 29.8252C22.808 29.8927 22.7288 29.9311 22.6436 29.9311H15.703C15.6173 29.9311 15.5377 29.8927 15.4851 29.8252L14.1209 28.0831C13.7495 27.6086 13.1911 27.3367 12.5893 27.3367H10.6027C9.52947 27.3367 8.65623 28.2117 8.65623 29.2871V42.1297C8.65623 42.6307 8.77757 43.1031 8.99065 43.5209H6.48533C2.95414 43.5209 0.0813522 46.3993 0.0813522 49.9374C0.0813522 53.4755 2.95414 56.3535 6.48533 56.3535H15.1407C15.6021 56.3535 15.9756 55.9792 15.9756 55.5169C15.9756 55.055 15.6021 54.6803 15.1407 54.6803ZM35.1484 35.4779H52.8427V39.5728H35.1484V35.4779ZM35.425 29.0095H37.412C37.4976 29.0095 37.5768 29.0483 37.6294 29.1158L38.994 30.8583C39.3654 31.3324 39.9238 31.6042 40.5252 31.6042H47.4659C48.0677 31.6042 48.6257 31.3324 48.9975 30.8578L50.3617 29.1158C50.4143 29.0483 50.4939 29.0095 50.5791 29.0095H52.5661C52.7187 29.0095 52.8427 29.1341 52.8427 29.2871V33.8042H35.1484V29.2871C35.1484 29.1341 35.2724 29.0095 35.425 29.0095ZM35.1484 42.1297V41.246H52.8427V42.1297C52.8427 42.8965 52.2199 43.5209 51.4545 43.5209H36.5366C35.7712 43.5209 35.1484 42.8965 35.1484 42.1297ZM10.3262 35.4779H28.0204V39.5728H10.3262V35.4779ZM10.6027 29.0095H12.5897C12.6749 29.0095 12.7541 29.0483 12.8071 29.1158L14.1718 30.8583C14.5431 31.3324 15.1015 31.6042 15.703 31.6042H22.6436C23.245 31.6042 23.8034 31.3324 24.1748 30.8578L25.5394 29.1158C25.592 29.0483 25.6712 29.0095 25.7569 29.0095H27.7438C27.896 29.0095 28.0204 29.1341 28.0204 29.2871V33.8042H10.3262V29.2871C10.3262 29.1341 10.4501 29.0095 10.6027 29.0095ZM10.3262 42.1297V41.246H28.0204V42.1297C28.0204 42.8965 27.3972 43.5209 26.6318 43.5209H11.7143C10.9489 43.5209 10.3262 42.8965 10.3262 42.1297Z" fill="#1D68D9"/>
<path d="M57.0001 46.7155C57.0001 46.2536 56.6261 45.8789 56.1651 45.8789H6.48534C4.25181 45.8789 2.4349 47.6994 2.4349 49.9373C2.4349 52.1747 4.25181 53.9952 6.48534 53.9952H56.1651C56.6261 53.9952 57.0001 53.6209 57.0001 53.1586C57.0001 52.6967 56.6261 52.322 56.1651 52.322H54.4417C54.9292 51.6523 55.218 50.8279 55.218 49.9373C55.218 49.0462 54.9292 48.2222 54.4417 47.5521H56.1651C56.6261 47.5521 57.0001 47.1774 57.0001 46.7155ZM8.60449 49.9368C8.60449 48.6218 9.67211 47.5521 10.985 47.5521C12.2975 47.5521 13.3651 48.6218 13.3651 49.9368C13.3651 51.2523 12.2975 52.322 10.985 52.322C9.67211 52.322 8.60449 51.2523 8.60449 49.9368ZM14.2587 47.5521H17.7673C17.2798 48.2222 16.9911 49.0462 16.9911 49.9373C16.9911 50.8279 17.2798 51.6523 17.7673 52.322H14.2587C14.7462 51.6523 15.035 50.8279 15.035 49.9373C15.035 49.0462 14.7462 48.2222 14.2587 47.5521ZM18.661 49.9368C18.661 48.6218 19.729 47.5521 21.0415 47.5521C22.354 47.5521 23.4216 48.6218 23.4216 49.9368C23.4216 51.2523 22.354 52.322 21.0415 52.322C19.7286 52.322 18.661 51.2523 18.661 49.9368ZM24.3153 47.5521H27.8238C27.3363 48.2222 27.048 49.0462 27.048 49.9373C27.048 50.8279 27.3363 51.6523 27.8238 52.322H24.3153C24.8027 51.6523 25.0915 50.8279 25.0915 49.9373C25.0915 49.0462 24.8032 48.2222 24.3153 47.5521ZM28.7179 49.9368C28.7179 48.6218 29.7856 47.5521 31.098 47.5521C32.4109 47.5521 33.4785 48.6218 33.4785 49.9368C33.4785 51.2523 32.4109 52.322 31.098 52.322C29.7856 52.322 28.7179 51.2523 28.7179 49.9368ZM34.3722 47.5521H37.8808C37.3933 48.2222 37.1045 49.0462 37.1045 49.9373C37.1045 50.8279 37.3933 51.6523 37.8808 52.322H34.3722C34.8597 51.6523 35.1484 50.8279 35.1484 49.9373C35.1484 49.0462 34.8597 48.2222 34.3722 47.5521ZM38.7744 49.9368C38.7744 48.6218 39.8425 47.5521 41.155 47.5521C42.4674 47.5521 43.5355 48.6218 43.5355 49.9368C43.5355 51.2523 42.4674 52.322 41.155 52.322C39.8425 52.322 38.7744 51.2523 38.7744 49.9368ZM44.4287 47.5521H47.8934C47.4059 48.2222 47.1175 49.0462 47.1175 49.9373C47.1175 50.8279 47.4059 51.6523 47.8938 52.322H44.4287C44.9162 51.6523 45.2054 50.8279 45.2054 49.9373C45.205 49.0462 44.9162 48.2222 44.4287 47.5521ZM4.10526 49.9368C4.10526 48.6218 5.17288 47.5521 6.48534 47.5521H7.71082C7.22332 48.2222 6.93456 49.0462 6.93456 49.9368C6.93456 50.8279 7.22332 51.6518 7.71082 52.322H6.48534C5.17288 52.322 4.10526 51.2523 4.10526 49.9368ZM53.548 49.9368C53.548 51.2523 52.48 52.322 51.1675 52.322C49.8551 52.322 48.7875 51.2523 48.7875 49.9368C48.7875 48.6218 49.8551 47.5521 51.1675 47.5521C52.48 47.5521 53.548 48.6218 53.548 49.9368Z" fill="#1D68D9"/>
<path d="M48.1752 5.00913H56.1095C56.5704 5.00913 56.9444 4.6344 56.9444 4.17253C56.9444 3.71023 56.5704 3.33594 56.1095 3.33594H48.1752C47.7138 3.33594 47.3402 3.71023 47.3402 4.17253C47.3402 4.6344 47.7138 5.00913 48.1752 5.00913Z" fill="#1D68D9"/>
<path d="M23.0702 17.4691C23.5377 17.7916 24.0521 18.0173 24.5892 18.1414V18.6783C23.3881 19.039 22.5101 20.1562 22.5101 21.4752V24.7545C22.5101 24.9763 22.5979 25.1889 22.7545 25.3462L23.7525 26.3457C24.0787 26.6721 24.607 26.6721 24.9332 26.3457C25.2594 26.0189 25.2594 25.4891 24.9332 25.1623L24.18 24.4081V21.4752C24.18 21.1101 24.3383 20.7819 24.5892 20.5541V21.2521C24.5892 21.7144 24.9628 22.0887 25.4242 22.0887C25.8851 22.0887 26.2591 21.7144 26.2591 21.2521V20.5541C26.5096 20.7819 26.6684 21.1101 26.6684 21.4752V24.4081L25.8734 25.2046C25.5473 25.5314 25.5473 26.0608 25.8734 26.3876C26.0365 26.551 26.25 26.6324 26.4635 26.6324C26.6775 26.6324 26.891 26.551 27.0541 26.3876L28.0939 25.3462C28.2504 25.1889 28.3383 24.9763 28.3383 24.7545V21.4752C28.3383 20.1562 27.4603 19.039 26.2591 18.6783V18.1998C26.3026 18.1929 26.3466 18.1868 26.3905 18.1785C27.5555 17.9632 28.5675 17.3062 29.2393 16.328C29.7042 15.6513 29.9673 14.877 30.0143 14.0774L33.5229 11.2731C34.2082 11.5912 34.958 11.7655 35.736 11.7772C35.7638 11.7777 35.7916 11.7781 35.8195 11.7781C37.2463 11.7781 38.5935 11.2308 39.6198 10.2326C39.9838 9.87876 40.2908 9.48225 40.5392 9.05481H56.1095C56.5704 9.05481 56.9444 8.68052 56.9444 8.21821C56.9444 7.75634 56.5704 7.38162 56.1095 7.38162H41.171C41.235 7.05787 41.2715 6.72585 41.2767 6.38859C41.2837 5.91757 41.2306 5.45527 41.1228 5.00908H44.37C44.8314 5.00908 45.2049 4.63436 45.2049 4.17249C45.2049 3.71018 44.8314 3.3359 44.37 3.3359H40.4035C40.2104 3.03829 39.9873 2.75725 39.7351 2.49712C38.7192 1.44833 37.3567 0.85879 35.8986 0.837003C34.4352 0.816088 33.0606 1.3638 32.0143 2.38165C30.6257 3.73197 30.11 5.64786 30.4744 7.41996L27.4968 9.7999C26.6801 9.40774 25.7373 9.26047 24.7801 9.43737C22.3748 9.88181 20.7793 12.2047 21.2233 14.6147C21.4381 15.7824 22.0943 16.7959 23.0702 17.4691ZM37.886 9.49053L36.0338 7.63521C35.886 7.48663 35.8042 7.29011 35.8047 7.07879C35.8042 6.86964 35.886 6.67269 36.0338 6.52454C36.3391 6.21823 36.8366 6.21779 37.1423 6.52454L38.9936 8.37943C38.841 8.61341 38.6622 8.83259 38.457 9.03215C38.2795 9.2047 38.0882 9.35764 37.886 9.49053ZM33.1776 3.58208C33.8899 2.88928 34.8249 2.50976 35.8155 2.50976C35.8351 2.50976 35.8542 2.50976 35.8734 2.51019C36.8858 2.52544 37.8316 2.93459 38.5366 3.66225C39.2419 4.39035 39.622 5.34939 39.6068 6.36376C39.6055 6.44785 39.6007 6.53151 39.5937 6.61474L38.323 5.34111C37.8595 4.87706 37.2432 4.62129 36.5879 4.62129C35.9325 4.62129 35.3163 4.87706 34.8527 5.34111C34.3887 5.80603 34.1339 6.42389 34.1347 7.07835C34.1339 7.73543 34.3887 8.35329 34.8527 8.81821L36.1252 10.0931C36.0047 10.1023 35.8829 10.1066 35.7607 10.104C34.7484 10.0892 33.8025 9.68007 33.0976 8.95197C31.642 7.44959 31.6777 5.04046 33.1776 3.58208ZM31.8995 10.1175C31.9565 10.1768 32.0156 10.2339 32.0747 10.2901L29.7121 12.1785C29.5146 11.6757 29.2302 11.2225 28.8801 10.8343L31.0993 9.06047C31.3176 9.43607 31.5838 9.79162 31.8995 10.1175ZM23.3072 12.2365C23.726 11.6269 24.357 11.2169 25.0832 11.0827C26.5827 10.806 28.0282 11.8021 28.3052 13.3049C28.4392 14.033 28.2826 14.7698 27.8638 15.3794C27.4446 15.989 26.8136 16.399 26.0874 16.5332C25.3603 16.6674 24.6253 16.5105 24.0169 16.0909C23.4081 15.6709 22.9993 15.0391 22.8649 14.311C22.7314 13.5829 22.888 12.8465 23.3072 12.2365Z" fill="#1D68D9"/>
<path d="M24.3379 15.6238C24.7092 15.88 25.1393 16.0133 25.5807 16.0133C25.7147 16.0133 25.8499 16.0011 25.9847 15.9758C26.5627 15.8691 27.0645 15.5432 27.3977 15.0582C27.7312 14.5728 27.856 13.9868 27.749 13.4077C27.6425 12.8286 27.3172 12.3258 26.8332 11.992C26.3487 11.6578 25.7638 11.5327 25.1859 11.6399C23.9926 11.8604 23.2015 13.0129 23.4216 14.2081C23.5281 14.7872 23.8534 15.29 24.3379 15.6238ZM25.489 13.2852C25.5216 13.2791 25.5542 13.2761 25.5864 13.2761C25.6929 13.2761 25.7969 13.3083 25.886 13.3702C26.003 13.4508 26.0813 13.5719 26.1069 13.7114C26.16 13.9998 25.9691 14.2774 25.6816 14.3305C25.3946 14.3841 25.1167 14.1929 25.0637 13.9044C25.0106 13.6164 25.2015 13.3384 25.489 13.2852Z" fill="#1D68D9"/>
<path d="M20.2905 36.6228H18.0556C17.5942 36.6228 17.2207 36.9971 17.2207 37.4594C17.2207 37.9213 17.5942 38.296 18.0556 38.296H20.2905C20.7519 38.296 21.1254 37.9213 21.1254 37.4594C21.1254 36.9971 20.7519 36.6228 20.2905 36.6228Z" fill="#1D68D9"/>
<path d="M45.1132 36.6228H42.8779C42.417 36.6228 42.043 36.9971 42.043 37.4594C42.043 37.9213 42.417 38.296 42.8779 38.296H45.1132C45.5742 38.296 45.9482 37.9213 45.9482 37.4594C45.9482 36.9971 45.5742 36.6228 45.1132 36.6228Z" fill="#1D68D9"/>
<path d="M8.99283 6.99903L1.01155 5.27268C0.561021 5.17595 0.116578 5.46266 0.0191656 5.91407C-0.0782467 6.36548 0.208337 6.81079 0.658868 6.9084L9.32986 8.78376C9.44815 9.06786 9.59557 9.34193 9.77387 9.60162C10.4458 10.5794 11.4577 11.2365 12.6227 11.4522C12.6667 11.4604 12.7106 11.4665 12.7541 11.4735V11.8291H12.3775C10.0718 11.8291 8.19614 13.7083 8.19614 16.0181V18.0277C8.19614 18.3292 8.35791 18.6072 8.61971 18.7558L9.90259 19.4843C9.84345 19.7506 9.81083 20.0268 9.81083 20.3105C9.81083 22.398 11.506 24.0961 13.589 24.0961C15.6725 24.0961 17.3672 22.398 17.3672 20.3105C17.3672 20.029 17.3355 19.7549 17.2772 19.4909L18.5618 18.7536C18.8219 18.6046 18.9819 18.3279 18.9819 18.0277V16.0181C18.9819 13.7083 17.1063 11.8291 14.801 11.8291H14.424V11.4147C14.9611 11.2909 15.4755 11.0648 15.943 10.7424C16.9193 10.0692 17.5751 9.05566 17.7904 7.88791C18.2339 5.47834 16.6384 3.15548 14.2331 2.71061C13.0685 2.49492 11.8891 2.74721 10.9128 3.42041C10.6801 3.58119 10.4658 3.76158 10.2709 3.95853L1.01155 1.95593C0.561021 1.85876 0.116578 2.14547 0.0191656 2.59688C-0.0782467 3.04873 0.208337 3.49361 0.658868 3.59121L9.29724 5.45961C9.19592 5.72061 9.11764 5.99337 9.06589 6.27485C9.0211 6.51624 8.99761 6.75851 8.99283 6.99903ZM13.589 22.4229C12.4266 22.4229 11.4808 21.4752 11.4808 20.3105C11.4808 19.1458 12.4266 18.1981 13.589 18.1981C14.7515 18.1981 15.6973 19.1458 15.6973 20.3105C15.6973 21.4752 14.7515 22.4229 13.589 22.4229ZM14.801 13.5022C16.1857 13.5022 17.312 14.6308 17.312 16.0181V17.5432L16.5588 17.975C15.8665 17.0931 14.7932 16.5253 13.589 16.5253C12.387 16.5253 11.3155 17.0913 10.6227 17.9702L9.86606 17.5406V16.0181C9.86606 14.6308 10.9924 13.5022 12.377 13.5022H12.7541V14.5258C12.7541 14.9881 13.1281 15.3624 13.589 15.3624C14.0504 15.3624 14.424 14.9881 14.424 14.5258V13.5022H14.801ZM11.8595 4.79861C12.3262 4.47661 12.8676 4.30929 13.422 4.30929C13.5908 4.30929 13.7604 4.32497 13.93 4.35591C15.4299 4.63347 16.4249 6.08182 16.1478 7.58421C16.0139 8.31231 15.6047 8.94455 14.9963 9.36415C14.3875 9.78376 13.6521 9.94062 12.9258 9.80685C12.1992 9.67221 11.5686 9.26263 11.1494 8.65261C10.7306 8.04303 10.5736 7.30621 10.708 6.57855C10.8419 5.85045 11.2511 5.21821 11.8595 4.79861Z" fill="#1D68D9"/>
<path d="M13.0285 9.24953C13.1629 9.27437 13.2968 9.28657 13.4286 9.28657C14.4688 9.28657 15.3964 8.54235 15.5916 7.48179C15.6986 6.90271 15.5738 6.31665 15.2403 5.83125C14.9071 5.34629 14.4053 5.02037 13.8273 4.91361C12.6332 4.69183 11.4842 5.48616 11.2642 6.68136C11.1576 7.26044 11.2825 7.84649 11.6156 8.33189C11.9487 8.81642 12.4505 9.14278 13.0285 9.24953ZM12.9063 6.98506C12.9532 6.72929 13.1768 6.54977 13.4277 6.54977C13.4594 6.54977 13.4916 6.55282 13.5242 6.55892C13.8117 6.61208 14.0026 6.88963 13.9495 7.17809C13.8961 7.46654 13.619 7.65782 13.3316 7.60423C13.0437 7.55107 12.8532 7.27307 12.9063 6.98506Z" fill="#1D68D9"/>
</g>
<defs>
<clipPath id="clip0">
<rect width="57" height="57" fill="white"/>
</clipPath>
</defs>
</svg>
