<svg id="icons" enable-background="new 0 0 64 64" height="512" viewBox="0 0 64 64" width="512" xmlns="http://www.w3.org/2000/svg"><path d="m61 3.498h-58c-1.654 0-3 1.346-3 3v53.004c0 .553.447 1 1 1h62c.553 0 1-.447 1-1v-53.004c0-1.654-1.346-3-3-3zm-16 45h12c.552 0 1 .448 1 1v.014h-14v-.014c0-.552.448-1 1-1zm-1.001 3.014h14v6.99h-14zm16-.995c0-.002.001-.003.001-.005v-1.014c0-1.654-1.346-3-3-3h-12c-1.654 0-3 1.346-3 3v1.009c0 .002-.001.003-.001.005v7.99h-.999v-7.99-1.014c0-1.654-1.346-3-3-3h-12c-1.654 0-3 1.346-3 3v1.014 7.99h-.999v-7.99c0-.002-.001-.003-.001-.005v-1.009c0-1.654-1.346-3-3-3h-12c-1.654 0-3 1.346-3 3v1.014c0 .002.001.003.001.005v7.985h-2.001v-49.004h60v49.004h-2.001zm-33.999-2.019h12c.552 0 1 .448 1 1v.014h-14v-.014c0-.552.448-1 1-1zm-1 3.014h14v6.99h-14zm-18-3.014h12c.552 0 1 .448 1 1v.014h-14v-.014c0-.552.448-1 1-1zm-.999 3.014h14v6.99h-14zm-3.001-46.014h1.02c-.552 0-.994.447-.994 1s.452 1 1.005 1c.552 0 1-.447 1-1s-.448-1-1-1h2.988c-.552 0-.994.447-.994 1s.452 1 1.005 1c.552 0 1-.447 1-1s-.448-1-1-1h2.992c-.552 0-.994.447-.994 1s.452 1 1.005 1c.552 0 1-.447 1-1s-.448-1-1-1h50.967c.552 0 1 .448 1 1v1h-51.968-3.003-2.999-2.03v-1c0-.552.448-1 1-1z"/><path d="m43 22.502h15.999c.553 0 1-.447 1-1s-.447-1-1-1h-15.999c-.553 0-1 .447-1 1s.447 1 1 1z"/><path d="m43 19.502h15.999c.553 0 1-.447 1-1s-.447-1-1-1h-15.999c-.553 0-1 .447-1 1s.447 1 1 1z"/><path d="m43 25.502h7.991c.553 0 1-.447 1-1s-.447-1-1-1h-7.991c-.553 0-1 .447-1 1s.447 1 1 1z"/><path d="m43 30.5h7.991c.553 0 1-.447 1-1s-.447-1-1-1h-7.991c-.553 0-1 .447-1 1s.447 1 1 1z"/><path d="m59 33.498h-16c-.553 0-1 .447-1 1v3c0 .553.447 1 1 1h16c.553 0 1-.447 1-1v-3c0-.553-.447-1-1-1zm-1 3h-14v-1h14z"/><path d="m56 28.502c0-.553-.447-1-1-1h-.999c-.011 0-.021.006-.031.006-.064.002-.127.024-.191.039-.066.016-.134.024-.195.053-.009.004-.02.003-.029.008-.045.022-.073.061-.112.088-.061.042-.121.079-.17.133-.044.047-.072.103-.106.157-.033.055-.07.104-.093.165-.026.068-.032.14-.043.212-.007.048-.028.09-.028.14 0 .011.006.02.006.03.002.066.024.13.04.196.016.065.023.131.052.19.004.01.003.021.008.03l.362.726c-.275.178-.468.473-.468.825 0 .553.447 1 1 1h.997.001c.002 0 .004-.001.006-.001.148-.001.286-.039.413-.098.009-.005.019-.003.027-.007.045-.022.073-.061.113-.088.06-.042.12-.079.169-.133.044-.047.072-.103.106-.157.033-.055.07-.104.094-.166.025-.067.031-.139.042-.211.008-.047.029-.089.029-.139 0-.011-.006-.02-.006-.03-.002-.066-.024-.13-.04-.195s-.023-.132-.052-.192c-.004-.009-.003-.02-.008-.029l-.362-.726c.275-.179.468-.474.468-.826z"/><path d="m38 11.498h-31c-1.653 0-2.999 1.346-2.999 3v1.002 27.998c0 .553.447 1 1 1h34.999c.553 0 1-.447 1-1v-27.998-1.002c0-1.654-1.346-3-3-3zm-31.999 3c0-.552.448-1 .999-1h31c.552 0 1 .448 1 1v.002h-32.999zm32.999 28h-32.999v-25.998h32.999z"/><path d="m9 20.502h9.994c.553 0 1-.447 1-1s-.447-1-1-1h-9.994c-.553 0-1 .447-1 1s.447 1 1 1z"/><path d="m10 23.502c0 .553.447 1 1 1h10.994c.553 0 1-.447 1-1s-.447-1-1-1h-10.994c-.553 0-1 .447-1 1z"/><path d="m19 34.506h-8c-.553 0-1 .447-1 1s.447 1 1 1h8c.553 0 1-.447 1-1s-.447-1-1-1z"/><path d="m25.994 24.502h2c.553 0 1-.447 1-1s-.447-1-1-1h-2c-.553 0-1 .447-1 1s.447 1 1 1z"/><path d="m9 40.494h5c.553 0 1-.447 1-1s-.447-1-1-1h-5c-.553 0-1 .447-1 1s.447 1 1 1z"/><path d="m13 28.502h3c.553 0 1-.447 1-1s-.447-1-1-1h-3c-.553 0-1 .447-1 1s.447 1 1 1z"/><path d="m19 27.502c0 .553.447 1 1 1h11.994c.553 0 1-.447 1-1s-.447-1-1-1h-11.994c-.553 0-1 .447-1 1z"/><path d="m26.994 30.502h-13.994c-.553 0-1 .447-1 1s.447 1 1 1h13.994c.553 0 1-.447 1-1s-.447-1-1-1z"/><path d="m29.994 31.502c0 .553.447 1 1 1h3c.553 0 1-.447 1-1s-.447-1-1-1h-3c-.553 0-1 .447-1 1z"/><path d="m12.001 54.498c.553 0 1-.447 1-1s-.447-1-1-1h-4.001c-.553 0-1 .447-1 1s.447 1 1 1z"/><path d="m15 55.498h-6c-.553 0-1 .447-1 1s.447 1 1 1h6c.553 0 1-.447 1-1s-.447-1-1-1z"/><path d="m30 54.498c.553 0 1-.447 1-1s-.447-1-1-1h-3c-.553 0-1 .447-1 1s.447 1 1 1z"/><path d="m35.001 55.498h-7.001c-.553 0-1 .447-1 1s.447 1 1 1h7.001c.553 0 1-.447 1-1s-.447-1-1-1z"/><path d="m50.001 54.498c.553 0 1-.447 1-1s-.447-1-1-1h-4.001c-.553 0-1 .447-1 1s.447 1 1 1z"/><path d="m53 55.498h-6c-.553 0-1 .447-1 1s.447 1 1 1h6c.553 0 1-.447 1-1s-.447-1-1-1z"/></svg>