<svg width="16" height="16" viewBox="0 0 16 16" fill="none" xmlns="http://www.w3.org/2000/svg">
<path d="M13.7695 1H8C7.77348 1 7.58984 1.18364 7.58984 1.41016V3.13005C7.45701 3.09582 7.31925 3.07812 7.17969 3.07812C6.27505 3.07812 5.53906 3.81411 5.53906 4.71875C5.53906 5.62339 6.27505 6.35938 7.17969 6.35938C7.31925 6.35938 7.45701 6.34168 7.58984 6.30745V7.58984H5.63518C5.47336 7.58984 5.32668 7.68497 5.26068 7.83274C5.1947 7.98048 5.22174 8.15321 5.32972 8.27371C5.46471 8.42438 5.53906 8.61852 5.53906 8.82031C5.53906 9.27263 5.17107 9.64062 4.71875 9.64062C4.26643 9.64062 3.89844 9.27263 3.89844 8.82031C3.89844 8.61852 3.97278 8.42438 4.10778 8.27371C4.21576 8.15321 4.2428 7.98048 4.17682 7.83274C4.11082 7.685 3.96414 7.58984 3.80232 7.58984H1.41016C1.30136 7.58984 1.19704 7.63305 1.12015 7.70996C1.0432 7.78688 1 7.8912 1 8V13.7695C1 14.448 1.55199 15 2.23047 15H13.7695C14.448 15 15 14.448 15 13.7695V2.23047C15 1.55199 14.448 1 13.7695 1ZM7.58984 12.1958C7.58984 12.1961 7.58984 12.1963 7.58984 12.1966C7.58984 12.1967 7.58984 12.1967 7.58984 12.1968C7.58984 12.1971 7.58984 12.1974 7.58984 12.1977V14.1797H2.23047C2.00431 14.1797 1.82031 13.9957 1.82031 13.7695V8.40742H3.13019C3.09584 8.54031 3.07812 8.68075 3.07812 8.82031C3.07812 9.72495 3.81411 10.4609 4.71875 10.4609C5.62339 10.4609 6.35938 9.72495 6.35938 8.82031C6.35938 8.68075 6.34166 8.54305 6.30731 8.41016H7.58984C7.58984 8.59243 7.58984 10.1826 7.58984 10.3649V10.3649C7.58984 10.7215 8.01252 10.9045 8.27371 10.6703C8.4244 10.5353 8.61849 10.4609 8.82031 10.4609C9.27263 10.4609 9.64062 10.8289 9.64062 11.2812C9.64062 11.7336 9.27263 12.1016 8.82031 12.1016C8.61893 12.1016 8.4252 12.0275 8.27467 11.893C8.01343 11.6573 7.59151 11.8405 7.58984 12.1958ZM14.1797 13.7695C14.1797 13.9957 13.9957 14.1797 13.7695 14.1797H8.41016V12.8698C8.54305 12.9041 8.68075 12.9219 8.82031 12.9219C9.72495 12.9219 10.4609 12.1859 10.4609 11.2812C10.4609 10.3766 9.72495 9.64062 8.82031 9.64062C8.68075 9.64062 8.54305 9.65834 8.41016 9.69271V8.41016H10.3648C10.5266 8.41016 10.6733 8.31503 10.7393 8.16726C10.8053 8.01952 10.7783 7.84679 10.6703 7.72629C10.5353 7.57562 10.4609 7.38148 10.4609 7.17969C10.4609 6.72737 10.8289 6.35938 11.2812 6.35938C11.7336 6.35938 12.1016 6.72737 12.1016 7.17969C12.1016 7.38148 12.0272 7.57562 11.8922 7.72629C11.7842 7.84679 11.7572 8.01952 11.8232 8.16726C11.8892 8.315 12.0359 8.41016 12.1977 8.41016H14.1797V13.7695ZM14.1797 7.58984H12.8698C12.9042 7.45695 12.9219 7.31925 12.9219 7.17969C12.9219 6.27505 12.1859 5.53906 11.2812 5.53906C10.3766 5.53906 9.64062 6.27505 9.64062 7.17969C9.64062 7.31925 9.65834 7.45695 9.69269 7.58984H8.41016V5.63591C8.41016 5.28865 7.99527 5.09 7.72645 5.33029C7.57604 5.46491 7.38187 5.53906 7.17969 5.53906C6.72737 5.53906 6.35938 5.17107 6.35938 4.71875C6.35938 4.26643 6.72737 3.89844 7.17969 3.89844C7.38187 3.89844 7.57604 3.97259 7.72645 4.10721C7.98682 4.34001 8.41016 4.16006 8.41016 3.80159V1.82031H13.7695C13.9957 1.82031 14.1797 2.00431 14.1797 2.23047V7.58984Z" fill="#1D68D9" stroke="#1D68D9"/>
</svg>
