<?xml version="1.0" encoding="utf-8"?>
<!-- Generator: Adobe Illustrator 23.0.3, SVG Export Plug-In . SVG Version: 6.00 Build 0)  -->
<svg version="1.1" id="Слой_1" xmlns="http://www.w3.org/2000/svg" xmlns:xlink="http://www.w3.org/1999/xlink" x="0px" y="0px"
	 viewBox="0 0 300 300" style="enable-background:new 0 0 300 300;" xml:space="preserve">
<style type="text/css">
	.st0{fill:#494948;}
</style>
<path class="st0" d="M222.16,281.38H56.58c-22.36,0-40.55-17.62-40.55-39.28V99.5c0-21.66,18.19-39.28,40.55-39.28h77.8v10h-77.8
	c-16.85,0-30.55,13.13-30.55,29.28v142.6c0,16.14,13.7,29.28,30.55,29.28h165.58c16.84,0,30.55-13.13,30.55-29.28v-64.7h10v64.7
	C262.7,263.76,244.51,281.38,222.16,281.38z"/>
<circle class="st0" cx="188.33" cy="127.32" r="28.68"/>
<path class="st0" d="M233.44,119.61c-6.2-19.36-22.35-34.15-42.14-38.61l1.98-8.78c22.89,5.16,41.56,22.27,48.73,44.65
	L233.44,119.61z"/>
<path class="st0" d="M257.29,111.95c-8.9-27.79-32.08-49.02-60.5-55.42l1.98-8.78c31.52,7.1,57.23,30.65,67.1,61.46L257.29,111.95z"
	/>
<path class="st0" d="M279.8,104.74c-11.45-35.73-41.29-63.03-77.87-71.26l1.97-8.78c39.68,8.93,72.05,38.54,84.46,77.3L279.8,104.74
	z"/>
<g>
	<path class="st0" d="M109.09,237.48h-13.2l-7.5-15.01h-5.9v15.01H70.96v-44.69h22.38c4.82,0,8.62,1.41,11.39,4.22
		c2.77,2.81,4.15,6.37,4.15,10.65c0,3.57-0.88,6.49-2.65,8.74c-1.77,2.26-3.85,3.81-6.26,4.66L109.09,237.48z M91.6,212.42
		c1.56,0,2.88-0.42,3.95-1.27c1.07-0.85,1.61-2.03,1.61-3.55c0-1.47-0.54-2.63-1.61-3.48c-1.07-0.85-2.39-1.27-3.95-1.27h-9.11v9.58
		H91.6z"/>
	<path class="st0" d="M126.77,237.48h-11.52v-44.69h32.76v10.05h-21.24v6.97h20.77v10.05h-20.77V237.48z"/>
	<path class="st0" d="M165.77,237.48h-11.52v-44.69h11.52V237.48z"/>
	<path class="st0" d="M192.63,237.48h-18.83v-44.69h18.76c7.15,0,12.96,2.01,17.45,6.03s6.73,9.45,6.73,16.28
		s-2.24,12.27-6.73,16.31C205.53,235.46,199.74,237.48,192.63,237.48z M192.57,227.43c3.8,0,6.81-1.19,9.04-3.58
		c2.23-2.39,3.35-5.3,3.35-8.74c0-3.62-1.07-6.57-3.22-8.84c-2.14-2.28-5.18-3.42-9.11-3.42h-7.3v24.59H192.57z"/>
</g>
<rect x="-78.41" y="-21.62" style="fill:none;" width="32.45" height="33.13"/>
</svg>
