<?xml version="1.0" encoding="utf-8"?>
<!-- Generator: Adobe Illustrator 23.0.3, SVG Export Plug-In . SVG Version: 6.00 Build 0)  -->
<svg version="1.1" id="Слой_1" xmlns="http://www.w3.org/2000/svg" xmlns:xlink="http://www.w3.org/1999/xlink" x="0px" y="0px"
	 viewBox="0 0 78.4 78.4" style="enable-background:new 0 0 78.4 78.4;" xml:space="preserve">
<g>
	<path d="M57.7,34.8c-4.7-2.4-9.4-4.7-14-7.1c0.3-0.6,0.6-1.2,0.9-1.8c0.1,0,0.1,0,0.2,0.1c1.8,0.9,3.6,1.8,5.4,2.8
		c1.4,0.7,2.8,1.4,4.3,2.1c1.3,0.7,2.7,1.4,4,2c0.5,0.3,1,0.5,1.5,0.8c0.4,0.2,0.7,0.5,1,0.8c0.9,1.1,1.8,2.3,2.7,3.4
		c1,1.3,2,2.5,3.1,3.8c0.2,0.2,0.3,0.4,0.5,0.6l-0.1,0.1c-1.4,0.8-2.8,1.5-4.3,2.3c-0.6,0.3-1.2,0.6-1.7,0.9
		c-0.1,0.1-0.1,0.1-0.1,0.2c0,0.5,0,0.9,0,1.4c0,3.2,0,6.3,0,9.5c0,0.1,0,0.1,0,0.2c-0.3,0.2-0.6,0.3-0.9,0.4
		c-1.4,0.7-2.8,1.4-4.2,2.1c-1.2,0.6-2.5,1.2-3.7,1.8c-1.1,0.6-2.3,1.1-3.4,1.7c-1.9,1-3.9,1.9-5.8,2.9c-0.8,0.4-1.7,0.8-2.6,1.3
		c-0.1,0.1-0.2,0.1-0.4,0c-1.4-0.7-2.8-1.4-4.2-2.1c-1.6-0.8-3.2-1.6-4.7-2.4c-1.4-0.7-2.7-1.4-4.1-2.1c-1.2-0.6-2.4-1.2-3.6-1.8
		c-1.3-0.7-2.6-1.3-4-2c-0.1-0.1-0.1-0.1-0.1-0.2c0-3.6,0-7.2,0-10.8c0-0.1,0-0.1,0-0.2c0-0.1,0-0.2-0.1-0.2c-1.3-0.7-2.6-1.3-3.9-2
		c-0.7-0.3-1.3-0.7-2-1.1c0,0-0.1,0-0.1-0.1c0.1-0.2,0.2-0.3,0.3-0.5c0.8-1.1,1.6-2.1,2.4-3.2c1-1.3,2-2.6,3-3.9
		c0.1-0.2,0.3-0.3,0.4-0.5c0.2-0.3,0.5-0.5,0.9-0.7c1.6-0.8,3.1-1.6,4.7-2.3c2.3-1.2,4.7-2.3,7-3.5c1.2-0.6,2.4-1.2,3.6-1.8
		c0.1,0,0.1-0.1,0.2-0.1c0.3,0.6,0.6,1.2,0.9,1.8c-4.7,2.3-9.4,4.7-14.1,7c0.1,0,0.1,0.1,0.2,0.1c2,1,4,2,6,3s4,2,6,3
		c1.7,0.8,3.4,1.7,5.1,2.5c0.3,0.2,0.5,0.2,0.8,0c2.1-1,4.1-2.1,6.2-3.1c1.5-0.8,3-1.5,4.5-2.3c1.3-0.6,2.6-1.3,3.8-1.9
		c0.8-0.4,1.6-0.8,2.4-1.2C57.6,34.8,57.6,34.8,57.7,34.8z M58.9,46.6c-4.8,2.5-9.7,5.1-14.5,7.6c-0.2-0.4-0.4-0.8-0.7-1.2
		c-0.2-0.4-0.4-0.8-0.6-1.2c-0.2-0.4-0.4-0.8-0.7-1.2c-0.2-0.4-0.4-0.8-0.6-1.2c-0.2-0.4-0.4-0.8-0.6-1.1l0,0c0,5.3,0,10.7,0,16h0.1
		c0.4-0.2,0.8-0.4,1.2-0.6c0.2-0.1,0.3-0.2,0.5-0.2c0.2-0.1,0.4-0.2,0.6-0.3c0.3-0.1,0.5-0.3,0.8-0.4c0.7-0.3,1.4-0.7,2-1
		c1.2-0.6,2.4-1.2,3.7-1.8c1.4-0.7,2.9-1.4,4.4-2.2c1.4-0.7,2.9-1.4,4.3-2.2c0.1-0.1,0.2-0.1,0.2-0.3c0-2.1,0-4.2,0-6.3
		c0-0.8,0-1.6,0-2.3C59,46.8,58.9,46.7,58.9,46.6z M39.2,48.5L39.2,48.5c-1.1,1.9-2.2,3.8-3.2,5.7c-4.9-2.6-9.8-5.1-14.7-7.7
		c0,0.1,0,0.2,0,0.2c0,0.4,0,0.9,0,1.4c0,2.4,0,4.8,0,7.2c0,0.1,0,0.2,0.2,0.3c1.7,0.8,3.3,1.6,4.9,2.5c2.2,1.1,4.5,2.2,6.7,3.4
		c2,1,3.9,2,5.9,2.9c0.1,0,0.1,0.1,0.2,0.1C39.2,59.2,39.2,53.8,39.2,48.5z M38.8,45c-0.1,0-0.1-0.1-0.2-0.1
		c-1.2-0.6-2.4-1.2-3.7-1.8c-2.2-1.1-4.5-2.3-6.7-3.4c-1.5-0.8-3-1.5-4.5-2.3c-1-0.5-1.9-1-2.9-1.5c-0.2-0.1-0.2-0.1-0.3,0.1
		c-0.7,0.9-1.4,1.8-2,2.6c-0.7,0.9-1.4,1.8-2.1,2.7c-0.1,0.1-0.1,0.2-0.2,0.3c6.3,3.3,12.7,6.6,19,10C36.4,49.4,37.6,47.2,38.8,45z
		 M45.2,51.6c6.3-3.3,12.6-6.6,19-9.9c-1.5-1.9-3-3.8-4.5-5.7c-6,3-12.1,6-18.1,9C42.8,47.2,44,49.4,45.2,51.6z"/>
	<path d="M41.2,16.3c0,5.1,0,10.1,0,15.2c-0.7,0-1.3,0-1.9,0c0-5.1,0-10.1,0-15.2c0,0,0,0-0.1,0c-0.7,1-1.4,2.1-2.1,3.2
		c-0.5-0.4-1.1-0.7-1.6-1.1c1.6-2.4,3.2-4.7,4.8-7.1c1.6,2.4,3.2,4.7,4.8,7.1c-0.6,0.4-1.1,0.7-1.6,1.1
		C42.6,18.4,41.9,17.3,41.2,16.3L41.2,16.3z"/>
</g>
<path d="M39.2,78.4C17.6,78.4,0,60.8,0,39.2S17.6,0,39.2,0s39.2,17.6,39.2,39.2S60.8,78.4,39.2,78.4z M39.2,3C19.2,3,3,19.2,3,39.2
	s16.2,36.2,36.2,36.2s36.2-16.2,36.2-36.2S59.2,3,39.2,3z"/>
</svg>
