<?xml version="1.0" encoding="utf-8"?>
<!-- Generator: Adobe Illustrator 23.0.3, SVG Export Plug-In . SVG Version: 6.00 Build 0)  -->
<svg version="1.1" id="Слой_1" xmlns="http://www.w3.org/2000/svg" xmlns:xlink="http://www.w3.org/1999/xlink" x="0px" y="0px"
	 viewBox="0 0 78.4 78.4" style="enable-background:new 0 0 78.4 78.4;" xml:space="preserve">
<path d="M39.2,78.4C17.6,78.4,0,60.8,0,39.2S17.6,0,39.2,0s39.2,17.6,39.2,39.2S60.8,78.4,39.2,78.4z M39.2,3C19.2,3,3,19.2,3,39.2
	s16.2,36.2,36.2,36.2s36.2-16.2,36.2-36.2S59.2,3,39.2,3z"/>
<g>
	<path d="M31.5,38.5c0,0.6-0.1,1.1-0.1,1.5c0,4.2,0,8.3,0,12.4c0,2.5,0,5,0,7.5c0,1.7-0.2,1.9-1.8,1.9c-5.2,0-10.4,0-15.6-0.1
		c-0.4,0-0.9-0.1-1.4-0.2c0-0.6-0.1-1.1-0.1-1.6c0-10.2,0-20.3,0-30.4c0-3.5,0-7,0-10.5c0-1.5,0.2-1.6,1.6-1.6c5.2,0,10.5,0,15.7,0
		c1.4,0,1.7,0.3,1.7,1.7c0,3.5,0,7.1,0,10.6c0,0.5,0,1.1,0,1.7c0.6,0,1.2,0.1,1.7,0.1c12.1,0,24.2,0,36.3,0c0.4,0,0.8,0,1.2,0
		c0.6,0,1,0.3,1,1c0,1.7,0,3.4,0,5.1c0,0.6-0.3,0.8-0.9,0.9c-0.3,0.1-0.6,0-0.9,0c-12.3,0-24.7,0-37,0C32.4,38.5,32,38.5,31.5,38.5z
		 M29.3,24.8c-4.3-0.4-14.2-0.2-14.9,0.3c0,2.4,0,4.8,0,7.2c0,8.5,0,17.1,0,25.6c0,0.6,0.1,1.3,0.1,1.9c5,0,9.9,0,14.8,0
		c0-0.5,0.1-0.9,0.1-1.3c0-1.9,0-3.8,0-5.6c0-4.3,0-8.6,0-12.9c0-0.4-0.1-0.9-0.1-1.4c-0.6,0-1.1,0-1.5,0c-3.3,3.6-7.4,4.2-10.3,1.5
		s-3.1-6.9-0.5-9.7c1.3-1.3,2.8-2.1,4.7-2.1c2.7-0.1,4.6,1.2,6.1,3.3c0.5,0,1-0.1,1.5-0.1C29.3,29.2,29.3,27,29.3,24.8z M29.3,19.5
		c-5,0-9.9,0-14.8,0c0,1.1,0,2.2,0,3.2c1.4,0.3,14,0.2,14.8-0.1C29.3,21.6,29.3,20.6,29.3,19.5z M21.8,39.8c2.8,0,5-2.2,5-4.8
		s-2.2-4.8-4.8-4.8c-2.8,0-5,2.1-4.9,4.8C17,37.7,19.2,39.8,21.8,39.8z M46.8,33.5c-0.7,1-1.4,1.9-2.3,3c2.5,0,4.8,0,7.2,0
		c0.7-0.9,1.4-1.9,2.3-3C51.4,33.5,49.2,33.5,46.8,33.5z M35.8,33.5c-2.6,0-4.9,0-7.2,0c0,1,0,2,0,3c1.6,0,3.2,0,4.9,0
		C34.2,35.6,34.9,34.7,35.8,33.5z M42.1,36.4c0.7-0.9,1.3-1.8,2-2.7c-2.1,0-4,0-5.9,0c-0.7,0.9-1.3,1.7-2,2.7
		C38.3,36.4,40.1,36.4,42.1,36.4z M61.7,33.6c-1.8,0-3.3,0-4.8,0c-0.2,0-0.5,0.1-0.6,0.2c-0.7,0.8-1.3,1.6-2,2.5c1.9,0,3.6,0,5.4,0
		C60.3,35.5,61,34.6,61.7,33.6z M64.4,33.5c-0.7,1-1.4,1.9-2.3,3c1.3,0,2.4,0,3.5,0c0-1.1,0-2,0-3C65.2,33.5,64.8,33.5,64.4,33.5z
		 M69.6,33.5c-0.7,0-1.2,0-1.8,0c0,1,0,2,0,3c0.7,0,1.2,0,1.8,0C69.6,35.5,69.6,34.6,69.6,33.5z"/>
	<path d="M22,42.9c0.8,0.3,1.8,0.6,2.5,1.1c1.2,0.9,1.2,2.4,0,3.3c-1.4,1.1-3.9,1.1-5.3-0.1c-1-0.8-1.1-2.2-0.1-3.1
		C19.6,43.6,20.9,43.1,22,42.9z M23.2,45.7c-1-0.8-2-0.8-2.7,0.1C21.6,46.4,22.3,46.4,23.2,45.7z"/>
	<path d="M18.4,35c0-1.9,1.5-3.4,3.4-3.5c1.9,0,3.4,1.5,3.4,3.5c0,1.9-1.5,3.4-3.4,3.4C20,38.5,18.4,36.9,18.4,35z M23.3,35
		c0-0.8-0.7-1.4-1.5-1.4s-1.4,0.7-1.3,1.4c0,0.8,0.6,1.3,1.4,1.4C22.7,36.4,23.3,35.8,23.3,35z"/>
</g>
</svg>
