<?xml version="1.0" encoding="utf-8"?>
<!-- Generator: Adobe Illustrator 23.0.3, SVG Export Plug-In . SVG Version: 6.00 Build 0)  -->
<svg version="1.1" id="Слой_1" xmlns="http://www.w3.org/2000/svg" xmlns:xlink="http://www.w3.org/1999/xlink" x="0px" y="0px"
	 viewBox="0 0 78.4 78.4" style="enable-background:new 0 0 78.4 78.4;" xml:space="preserve">
<style type="text/css">
	.st0{fill:#0E0F0F;}
</style>
<g>
	<path d="M25.1,40.5c0.1-0.7,0.3-1.4,0.4-2.1c0.3-1.9,0.7-3.7,1-5.6c0.1-0.6-0.1-0.9-0.5-1s-0.9-0.1-1.3-0.2
		c-1.9-0.3-3.7-0.6-5.6-0.9c-0.1,0-0.1,0-0.2,0c-0.2,0-0.3-0.1-0.4-0.4c0-0.3,0.1-0.5,0.2-0.6s0.3-0.1,0.5,0.1
		c0.1,0.2,0.3,0.2,0.5,0.3c0.8,0.1,1.6,0.3,2.4,0.4c1,0.2,2.1,0.4,3.1,0.6c0.4,0.1,0.9,0.2,1.3,0.2c0.1,0,0.3,0.1,0.4,0.1
		c0.6,0.3,0.8,0.6,0.6,1.5c-0.5,2.5-1,5-1.4,7.5c0,0.2-0.1,0.3-0.1,0.5c-0.1,0.3-0.4,0.4-0.6,0.3C25.2,41.2,25.1,41,25.1,40.5z"/>
	<path d="M24.9,34.4c0,0,0,0.1,0,0.2c-0.3,1.9-0.7,3.8-1,5.6c-0.1,0.4-0.2,0.6-0.5,0.6c-0.4,0.1-0.6-0.3-0.5-0.8
		c0.2-0.9,0.3-1.8,0.5-2.6c0.1-0.7,0.3-1.5,0.4-2.2c0.2-0.8,0-1.1-0.6-1.3c-0.5-0.1-1-0.2-1.4-0.3c-0.8-0.1-1.6-0.3-2.5-0.4
		c-0.2,0-0.5,0-0.7-0.1c-0.3,0-0.4-0.2-0.4-0.5s0.1-0.5,0.3-0.6c0.2-0.1,0.3,0,0.4,0.2s0.3,0.2,0.4,0.3c0.8,0.2,1.7,0.2,2.5,0.4
		c0.5,0.2,1,0.1,1.5,0.2c0.5,0.1,1,0.1,1.4,0.5C24.9,33.8,24.9,34,24.9,34.4z"/>
	<path d="M18.2,34.5c0.1,0.4,0.3,0.5,0.5,0.5c0.7,0.1,1.3,0.2,2,0.4c0.3,0.1,0.6,0.1,0.8,0.2c0.4,0.2,0.6,0.5,0.5,1.1
		c-0.2,1.1-0.4,2.1-0.6,3.2c-0.1,0.3-0.2,0.5-0.4,0.6c-0.2,0.1-0.4,0-0.5-0.2c-0.2-0.2-0.2-0.4-0.1-0.6c0.2-0.7,0.3-1.4,0.4-2.1
		c0-0.1,0-0.3,0.1-0.4c0.1-0.6,0-1-0.5-1c-0.7-0.1-1.5-0.3-2.2-0.4c-0.1,0-0.2,0-0.2,0c-0.3-0.1-0.4-0.2-0.5-0.5
		c0-0.3,0.1-0.5,0.3-0.7C18,34.5,18.1,34.5,18.2,34.5z"/>
	<path d="M37.1,29.1L37.1,29.1L37.1,29.1z"/>
	<path d="M20.4,35h-0.1H20.4z"/>
	<polygon points="0.7,52.4 0.6,52.4 0.7,52.5 	"/>
	<path d="M0.7,52.5l0.1,0.1L0.7,52.5L0.7,52.5L0.7,52.5z"/>
	<path d="M35.6,26.6L35.6,26.6L35.6,26.6L35.6,26.6z"/>
</g>
<g>
	<path d="M37.8,42.5L37.8,42.5v1.9H15.5V22.9h22.3v0.7c0.6-0.3,1.3-0.5,2.2-0.5c0.1,0,0.2,0,0.2,0c0-0.2,0-0.5,0-0.7
		c0-1.1-0.3-1.4-1.8-1.4c-7.8,0-15.6,0-23.4,0c-1.6,0-1.9,0.3-1.9,1.6c0,3.7,0,7.3,0,11c0,3.8,0,7.5,0,11.3c0,1.1,0.4,1.5,1.8,1.5
		c7.9,0,15.8,0,23.7,0c1,0,1.4-0.2,1.6-0.7C38.8,45,38.1,43.8,37.8,42.5z"/>
</g>
<path d="M39.2,78.4C17.6,78.4,0,60.8,0,39.2S17.6,0,39.2,0s39.2,17.6,39.2,39.2S60.8,78.4,39.2,78.4z M39.2,3C19.2,3,3,19.2,3,39.2
	s16.2,36.2,36.2,36.2s36.2-16.2,36.2-36.2S59.2,3,39.2,3z"/>
<g>
	<path class="st0" d="M48.5,60.1c-0.6,0.1-1,0.3-1.6,0.3c-1.1,0.2-2,0-2.8-0.8c-0.6-0.6-0.9-1.4-1-2.2c-0.1-0.7,0-1.4,0.4-2.1
		c-1.4-0.1-2.4-0.8-2.9-2c-0.5-1.3-0.1-2.4,0.8-3.4c-1.4-1.8-2.9-3.5-4.3-5.3c-1.3-1.6-2.7-3.3-4-4.9c-1.3-1.6-2.7-3.2-4-4.9
		c-0.6-0.7-1.2-1.4-1.8-2.1c-0.4-0.5-0.3-0.9,0.1-1.3c0.9-0.8,1.8-1.5,2.8-2.3s2-1.6,3-2.4c1.3-1.1,2.6-2.2,3.9-3.2
		c0.2-0.2,0.5-0.4,0.7-0.6c0.5-0.4,1-0.4,1.4,0.1c1.7,2.1,3.4,4.2,5.1,6.3c0.2,0.2,0.4,0.3,0.6,0.4c1.2,0.9,2.4,1.7,3.7,2.6
		c0.8,0.5,1.6,1,2.3,1.5c1.5,1.1,3.1,2.2,4.6,3.3c0.3,0.2,0.4,0.4,0.6,0.7c0.5,1.2,1,2.3,1.4,3.4c0.9,2.3,1.8,4.6,2.7,6.9
		c0.5,1.4,1.1,2.7,1.6,4.1c0.1,0.2,0.2,0.4,0.3,0.7c0.2,0.4,0.4,0.5,0.8,0.6c0.5,0.1,1.1,0.2,1.6,0.3c0.4,0.1,8.9,1.2,8.9,1.6
		c-0.1,0.5-1.3,0.9-1.8,0.8c-0.6-0.1-8.6-1-9.2-1.1c-0.8-0.2-1.5-0.7-1.8-1.4c-0.3-0.6-0.6-1.2-0.8-1.8c-1.1-2.7-2.1-5.5-3.2-8.2
		c-0.6-1.6-1.2-3.1-1.8-4.7c-0.1-0.3-0.3-0.4-0.5-0.6c-1.7-1.3-3.5-2.5-5.2-3.8c-0.2-0.1-0.4-0.3-0.6-0.4c0,0,0,0-0.1,0
		c0.1,0.1,0.2,0.3,0.3,0.4c1.4,1.7,2.7,3.3,4.1,5c0.4,0.5,0.8,1.1,1.3,1.6c0.5,0.6,0.3,1.1-0.2,1.5c-0.1,0-0.1,0.1-0.2,0.1
		c0,0.1,0.1,0.2,0.1,0.3c0.4,1.5,0.9,3,1.3,4.5c0.1,0.4,0.2,0.8,0.4,1.2c0.3,0.9,0,1.7-0.7,2.3c-0.5,0.5-1.2,0.8-1.9,1
		c-0.4,0.1-0.9,0.2-1.3,0.2c-0.4-0.1-0.8-0.2-1.1-0.6c-0.7-0.9-1.3-1.8-1.9-2.7c-0.8-1.1-1.6-2.3-2.3-3.4c-0.5-0.7-1.7-0.9-2.4-0.4
		s-0.9,1.3-0.4,2c1.3,2.1,2.7,4.3,4,6.4c0.4,0.7,0.8,1.4,1.1,2.2c0.3,0.9,0.7,1.7,1,2.6c0.5,1.3,1.4,2.3,2.5,3
		c0.8,0.5,1.6,0.7,2.5,0.9c1.6,0.2,3.1,0.5,4.6,0.8c1.7,0.3,3.4,0.6,5.1,0.8c0.2,0,0.4,0.1,0.5,0.1c0.4,0.1,0.7,0.5,0.6,0.9
		s-0.4,0.7-0.8,0.7c-0.6-0.1-1.1-0.1-1.6-0.2c-2-0.3-3.9-0.7-5.9-1c-1.2-0.2-2.5-0.4-3.7-0.6c-1.1-0.2-2-0.7-2.9-1.3
		C49.8,61.9,49,61.1,48.5,60.1z M29.2,32.2c4.2,5.1,8.4,10.2,12.6,15.3c0,0,0,0,0.1,0c0-0.1,0-0.2-0.1-0.2c-0.2-0.8-0.1-1.5,0.3-2.2
		c0.5-0.8,1.2-1.3,2.1-1.6c1.4-0.4,3.1,0.2,3.8,1.3c0.1,0.2,0.2,0.3,0.4,0.5c1.4-1.2,2.9-2.3,4.3-3.5C48,36,43.3,30.3,38.6,24.5
		C35.4,27.1,32.3,29.6,29.2,32.2z M52,50.6c0.8,0.1,1.7-0.2,2.1-0.7c0.1-0.1,0.1-0.3,0.1-0.4c-0.5-1.5-0.9-3-1.4-4.5
		c-0.1-0.3-0.2-0.5-0.3-0.8c-1.1,0.9-2.2,1.8-3.3,2.7C50.2,48,51.1,49.3,52,50.6z M46.5,55.2c-0.4,0.3-0.8,0.5-1.1,0.8
		c-0.5,0.4-0.7,1-0.5,1.6s0.6,1,1.3,1.2c0.6,0.1,1.1-0.2,1.7-0.3C47.4,57.4,47,56.3,46.5,55.2z M45.3,52.8c-0.6-1-1.1-1.9-1.7-2.8
		c-0.4,0.5-0.8,0.9-1.1,1.4c-0.4,0.5-0.4,1.2,0,1.7s1.1,0.7,1.7,0.4C44.5,53.3,44.9,53.1,45.3,52.8z"/>
	<path class="st0" d="M34.5,36.7c0.1-1,0.4-1.9,0.9-2.8c0.7-1.2,1.7-2.1,2.9-2.7c1.4-0.7,2.9-0.9,4.4-0.2c0.4,0.2,0.8,0.5,1.2,0.8
		s0.4,0.8,0,1.2c-0.3,0.3-0.8,0.3-1.2,0C42,32.3,41,32.2,40,32.5c-1.3,0.3-2.2,1.1-3,2.2c-0.5,0.7-0.8,1.4-0.7,2.3
		c0,0.2,0.1,0.5,0.2,0.7c0.1,0.4,0,0.8-0.3,1s-0.7,0.2-1,0c-0.1-0.1-0.3-0.3-0.3-0.4C34.7,37.7,34.6,37.2,34.5,36.7z"/>
	<path class="st0" d="M41.8,33.9c1.2,0,2.1,0.4,2.9,1.2c0.3,0.3,0.3,0.9,0,1.1c-0.4,0.4-0.8,0.4-1.2,0.1c-0.6-0.5-1.2-0.8-2-0.7
		c-1,0.2-1.7,0.7-2.3,1.6c-0.4,0.7-0.5,1.5-0.2,2.2c0.2,0.4-0.1,0.9-0.5,1.1c-0.5,0.2-0.9,0-1.1-0.5c-0.5-1.5-0.3-2.9,0.7-4.2
		c0.7-0.9,1.7-1.5,2.9-1.8C41.4,33.9,41.7,33.9,41.8,33.9z"/>
	<path class="st0" d="M39.8,39.9c0-0.9,0.4-1.6,1-2.1c0.7-0.7,1.6-1.1,2.6-0.9c0.5,0.1,0.9,0.3,1.3,0.7c0.3,0.3,0.3,0.8,0,1.1
		s-0.8,0.4-1.1,0.2c-0.3-0.3-0.7-0.3-1.1-0.1c-0.3,0.2-0.7,0.4-0.9,0.7c-0.1,0.2-0.2,0.5-0.2,0.8c0.1,0.5-0.1,1-0.6,1.1
		c-0.4,0.1-0.9-0.2-1-0.7C39.9,40.3,39.8,40.1,39.8,39.9z"/>
</g>
</svg>
