<?xml version="1.0" encoding="utf-8"?>
<!-- Generator: Adobe Illustrator 23.0.3, SVG Export Plug-In . SVG Version: 6.00 Build 0)  -->
<svg version="1.1" id="Слой_1" xmlns="http://www.w3.org/2000/svg" xmlns:xlink="http://www.w3.org/1999/xlink" x="0px" y="0px"
	 viewBox="0 0 78.4 78.4" style="enable-background:new 0 0 78.4 78.4;" xml:space="preserve">
<path d="M39.2,78.4C17.6,78.4,0,60.8,0,39.2S17.6,0,39.2,0s39.2,17.6,39.2,39.2S60.8,78.4,39.2,78.4z M39.2,3C19.2,3,3,19.2,3,39.2
	s16.2,36.2,36.2,36.2s36.2-16.2,36.2-36.2S59.2,3,39.2,3z"/>
<g>
	<path d="M47.8,45.4c0.2,1.2,0.3,2.3,0.5,3.4c0.3,0,0.5,0.1,0.7,0.1c0.4,0.1,0.6,0.3,0.6,0.7s-0.2,0.7-0.6,0.8
		c-0.2,0.1-0.4,0.1-0.6,0.1c-2.4,0-4.7,0-7.1,0c-0.2,0-0.4,0-0.7-0.1c-0.4-0.1-0.7-0.4-0.7-0.8c0-0.4,0.2-0.7,0.7-0.8
		c0.2-0.1,0.4-0.1,0.7-0.1c0.2-1.1,0.5-2.2,0.4-3.4c-0.4,0-0.7-0.1-1.1-0.1c-2.9,0-5.7,0-8.6,0c-1.6,0-2.5-0.8-2.5-2.4
		c0-4.6,0-9.2,0-13.8c0-1.7,0.9-2.5,2.6-2.5c1.5,0,3.1,0,4.6,0c0.6,0,1.1-0.2,1.6-0.5c1.8-1.4,3.7-2.8,5.6-4.1c0.7-0.5,1-0.5,1.7,0
		c1.8,1.4,3.7,2.7,5.6,4.1c0.5,0.4,1,0.6,1.6,0.5c1.5,0,2.9,0,4.4,0c1.8-0.1,2.8,1.1,2.8,2.7c-0.1,4.4,0,8.9,0,13.3
		c0,0.3,0,0.6,0,0.8c-0.1,1.1-0.9,1.8-2,1.9c-0.4,0-0.9,0-1.3,0c-2.6,0-5.2,0-7.9,0C48.5,45.4,48.2,45.4,47.8,45.4z M58.3,40.8
		c0-0.3,0.1-0.4,0.1-0.5c0-3.7,0-7.3,0-11c0-0.8-0.3-1.1-1.1-1.1c-1,0-2.1,0-3.1,0c-0.6,0-1.1,0-1.7,0c0,0.5-0.1,0.8-0.1,1.1
		c0,2.6,0,5.2,0,7.9c0,1-0.3,1.2-1.2,1.3c-0.6,0-1.3,0-1.9,0c-3.7,0-7.3,0-11,0c-1,0-1.3-0.3-1.3-1.3c0-2.6,0-5.2,0-7.8
		c0-0.3,0-0.7-0.1-1c-0.3,0-0.6-0.1-0.8-0.1c-1.3,0-2.5,0-3.7,0c-1.1,0-1.3,0.2-1.3,1.3c0,3.5,0,7,0,10.6c0,0.2,0.1,0.5,0.1,0.8
		C40.3,40.8,49.3,40.8,58.3,40.8z M42,36.7c0-0.5,0-0.8,0-1.2c0-1.1,0-2.1,0-3.2c0-0.8,0.2-1,1.1-1.1c1.2,0,2.3,0,3.5,0
		c0.9,0,1.1,0.2,1.1,1.1c0,1.1,0,2.2,0,3.3c0,0.3,0,0.7,0.1,1c1.2,0.2,2.6,0.2,3.2-0.1c0-0.1,0.1-0.2,0.1-0.3c0-2.6,0-5.2,0-7.8
		c0-0.4-0.2-0.7-0.5-0.9c-1.7-1.3-3.5-2.5-5.2-3.8c-0.3-0.2-0.6-0.2-0.9,0c-1.7,1.2-3.3,2.5-5.1,3.7c-0.5,0.3-0.6,0.7-0.6,1.2
		c0,2.4,0,4.7,0,7.1c0,0.3,0,0.6,0.1,0.9C39.8,36.7,40.8,36.7,42,36.7z M31.3,42.4c-0.2,1.2,0,1.4,1,1.4c0.2,0,0.4,0,0.6,0
		c4.6,0,9.2,0,13.7,0c3.6,0,7.2,0,10.7,0c1,0,1.2-0.3,1-1.4C49.3,42.4,40.3,42.4,31.3,42.4z M46.6,48.8c-0.2-1.2-0.3-2.4-0.5-3.4
		c-0.9,0-1.7,0-2.6,0c-0.2,1.2-0.4,2.2-0.6,3.4C44.2,48.8,45.4,48.8,46.6,48.8z M46.1,32.9c-0.9,0-1.7,0-2.6,0c0,1.3-0.1,2.5,0,3.8
		c0.9,0,1.7,0,2.4,0c0-0.3,0.1-0.6,0.1-0.8C46.1,34.9,46.1,33.9,46.1,32.9z"/>
</g>
<path d="M26.8,53.2c0.7,0,1.2,0,1.7,0c9.7,0,19.3,0,29,0c0.2,0,0.4,0,0.6,0c1.4,0,1.6,0.2,1.6,1.5c0,1.8,0,3.7,0,5.5
	c0,1.3-0.3,1.6-1.7,1.7c-0.2,0-0.4,0-0.6,0c-12.3,0-24.6,0-36.9,0c-0.4,0-0.8,0-1.2,0c-0.9-0.1-1.2-0.4-1.2-1.3c0-0.3,0-0.6,0-0.9
	c0-12.5,0-25,0-37.6c0-1.7,0.3-2,2-2s3.4,0,5.1,0c1.2,0,1.5,0.3,1.6,1.5s0,2.3,0,3.5c0,8.8,0,17.6,0,26.4
	C26.8,52.1,26.8,52.6,26.8,53.2z M24.4,59.7c0-12.5,0-24.8,0-37.3c-1.4,0-2.8,0-4.2,0c0,1.5-0.1,2.9,0.1,4.5c0.6,0,1.1,0,1.5,0
	c0.7,0,1,0.3,1.1,1c0.1,0.6-0.4,1-1.1,1.1c-0.5,0-1,0.1-1.5,0.1c0,1.5,0,2.9,0,4.3c0.5,0,1,0,1.5,0.1c0.8,0.1,1.2,0.5,1.2,1.1
	s-0.4,1-1.2,1.1c-0.5,0.1-1,0.1-1.5,0.2c0,1.5,0,2.8,0,4.2c0.5,0,1,0,1.5,0.1C22.5,40,23,40.4,23,41s-0.4,1-1.2,1
	c-0.5,0-1,0.1-1.4,0.1c0,1.6,0,2.9,0,4.3c0.3,0,0.5,0.1,0.7,0.1c0.3,0,0.5,0,0.8,0c0.8,0.1,1.2,0.5,1.2,1.1c-0.1,0.6-0.5,1-1.1,1
	c-0.5,0-1,0.1-1.6,0.1c-0.1,1.5-0.1,2.9,0,4.4c0.5,0,0.9,0.1,1.2,0.1c1,0.1,1.5,0.4,1.5,1c0,0.7-0.5,1-1.6,1.1
	c-0.4,0-0.7,0.1-1.1,0.1c0,1.5,0,2.8,0,4.2C21.7,59.7,23,59.7,24.4,59.7z M57.5,55.4c-10.3,0-20.4,0-30.5,0c0,1.4,0,2.8,0,4.2
	c1.5,0.1,2.8,0.2,4.1-0.1c0-0.6,0-1.2,0.2-1.7c0.1-0.6,0.5-1,1.2-1c0.6,0.1,0.8,0.5,0.9,1.1c0.1,0.5,0.2,1.1,0.3,1.6
	c1.5,0.1,2.8,0.2,4.2-0.1c0-0.3,0.1-0.6,0.1-0.8c0-0.3,0-0.5,0-0.8c0.1-0.7,0.5-1.1,1-1.1c0.6,0,1,0.4,1.1,1.1
	c0.1,0.5,0.1,1,0.1,1.6c1.4,0,2.8,0,4.2,0c0.1-0.6,0.2-1,0.3-1.5c0.1-0.8,0.5-1.2,1-1.2c0.6,0,1,0.5,1.1,1.2
	c0.1,0.4,0.1,0.9,0.1,1.5c1.4,0.1,2.8,0.2,4.1-0.1c0.1-0.6,0.1-1.1,0.2-1.6c0.1-0.6,0.5-1,1.1-1s0.9,0.4,1,1
	c0.1,0.5,0.2,1.1,0.3,1.7c1.4,0,2.7,0,4.1,0C57.5,58.2,57.5,56.9,57.5,55.4z"/>
</svg>
