<?xml version="1.0" encoding="utf-8"?>
<!-- Generator: Adobe Illustrator 23.0.3, SVG Export Plug-In . SVG Version: 6.00 Build 0)  -->
<svg version="1.1" id="Слой_1" xmlns="http://www.w3.org/2000/svg" xmlns:xlink="http://www.w3.org/1999/xlink" x="0px" y="0px"
	 viewBox="0 0 78.4 78.4" style="enable-background:new 0 0 78.4 78.4;" xml:space="preserve">
<style type="text/css">
	.st0{fill:#0E0F0F;}
</style>
<g>
	<path class="st0" d="M47.8,56.8c0,0.2,0,0.4,0,0.7c0,6.2,0,12.4,0,18.6c0,0.4-0.1,0.8-0.4,1.1c-0.2,0.2-0.5,0.3-0.8,0.3
		c-0.1,0-0.3,0-0.4,0c-4.2,0-8.3,0-12.5,0c-0.4,0-0.9-0.1-1.3,0c-0.5,0.1-1.2-0.6-1.2-1.1c0-0.1,0-0.2,0-0.3c0-5.5,0-11.1,0-16.6
		c0-0.3,0-0.6,0-0.9c0-0.1,0-0.3,0-0.4c0-0.1,0-0.2,0-0.3c0-0.4,0-0.8,0-1.2c-1.9-0.8-3.7-1.9-5.3-3.2c-1.7-1.4-3.2-3-4.3-4.8
		c-0.3-0.5-0.6-1-0.9-1.5c-0.5-0.9-0.9-1.8-1.3-2.7c-0.6-1.5-1-3-1.2-4.6c-0.3-1.6-0.3-3.2-0.2-4.8c0.1-2.2,0.6-4.4,1.5-6.5
		c0.2-0.4,0.4-0.8,0.5-1.2c0.2-0.6,0.6-1,0.8-1.6c0.1-0.3,0.4-0.7,0.6-1c0.4-0.7,0.9-1.4,1.4-2c0.4-0.5,0.8-0.9,1.2-1.3
		c0.7-0.7,1.4-1.3,2.1-2c0.5-0.3,1-0.4,1.5-0.2c0.5,0.2,0.7,0.7,0.7,1.2c0,4.5,0,9,0,13.5c0,0.3,0.1,0.5,0.4,0.7c1.7,1,3.3,2,4.9,3
		c1.3,0.8,2.6,1.6,3.9,2.3c0.7,0.4,1.4,0.8,2.1,1.3c0.2,0.1,0.3,0.1,0.5,0c2.4-1.5,4.9-2.9,7.3-4.4c1.2-0.7,2.4-1.5,3.7-2.2
		c0.2-0.1,0.3-0.3,0.3-0.6c0-4.4,0-8.9,0-13.3c0-0.2,0-0.4,0-0.5c0.2-1,1.3-1.4,2.1-0.8c1.5,1.2,2.8,2.6,4,4.1
		c1.9,2.7,3.2,5.6,3.8,8.9c0.3,1.6,0.4,3.1,0.3,4.7c-0.1,2.9-0.7,5.6-1.9,8.2c-0.8,1.8-1.8,3.4-3.1,4.9c-0.9,1.1-1.9,2.1-3,3
		c-1.2,1-2.4,1.8-3.8,2.5c-0.5,0.3-1,0.5-1.5,0.7C48,56.7,47.9,56.8,47.8,56.8z M25.5,23.7C25.4,23.7,25.4,23.7,25.5,23.7
		c-0.2,0.1-0.3,0.3-0.5,0.4s-0.3,0.3-0.4,0.5c0,0.1-0.1,0.2-0.2,0.3c-1.2,1.5-2.1,3.2-2.8,4.9c-0.9,2.3-1.3,4.8-1.2,7.3
		c0,1.1,0.1,2.2,0.3,3.2c0.3,1.8,1,3.6,1.8,5.2c0.5,0.9,1.1,1.8,1.7,2.7c1.1,1.5,2.5,2.8,4,4c1.1,0.8,2.2,1.5,3.5,2
		c0.4,0.2,0.8,0.3,1.2,0.5c0.4,0.2,0.6,0.5,0.7,1c0,0.3,0,0.6,0,0.8c0,6.1,0,12.1,0,18.1c0,0.1,0,0.3,0,0.4c0.9,0,1.7,0,2.6,0
		c0-0.2,0-0.3,0-0.5c0-3.4,0-6.9,0-10.3c0-1,0.4-1.8,1.2-2.5c1.2-1,3-1,4.2,0.1c0.7,0.7,1.1,1.5,1.1,2.5c0,3.4,0,6.9,0,10.3
		c0,0.2,0,0.3,0,0.4c0.4,0.1,2.2,0.1,2.5,0c0-0.1,0-0.3,0-0.4c0-0.9,0-1.7,0-2.6s0-1.8,0-2.6c0-0.9,0-1.7,0-2.6c0-0.8,0-1.5,0-2.3
		c0-2.7,0-5.5,0-8.2c0-0.1,0-0.1,0-0.2c0-0.6,0.3-1.1,0.9-1.3c0.1,0,0.2-0.1,0.3-0.1c0.5-0.2,1-0.4,1.6-0.7c1.3-0.6,2.4-1.3,3.5-2.2
		c1.2-0.9,2.2-2,3.1-3.1c1.1-1.4,2-2.8,2.7-4.4c1-2.3,1.5-4.8,1.6-7.3c0-0.7-0.1-1.5-0.1-2.2c-0.1-1.3-0.4-2.7-0.8-4
		c-0.6-1.9-1.5-3.6-2.7-5.2c-0.4-0.6-0.9-1.2-1.5-1.8c0,0.2,0,0.3,0,0.4c0,3.7,0,7.3,0,11c0,0.7-0.3,1.2-0.9,1.5
		c-1,0.5-1.9,1.1-2.8,1.7c-0.9,0.5-1.7,1-2.6,1.6c-1.2,0.7-2.4,1.4-3.6,2.2c-1.1,0.7-2.3,1.4-3.4,2.1c-0.6,0.3-1.1,0.3-1.7,0
		c-0.8-0.5-1.7-1-2.5-1.5c-2-1.2-3.9-2.3-5.9-3.5c-1.3-0.8-2.6-1.6-4-2.4c-0.6-0.3-0.9-0.8-0.9-1.5c0-3.7,0-7.3,0-10.9
		C25.5,24,25.5,23.9,25.5,23.7z M40.1,75c0-0.2,0-0.3,0-0.4c0-3.4,0-6.8,0-10.2c0-0.1,0-0.2,0-0.3c-0.1-0.3-0.3-0.4-0.6-0.5
		c-0.2,0-0.5,0.1-0.6,0.3s-0.1,0.4-0.1,0.6c0,3.4,0,6.8,0,10.2c0,0.1,0,0.2,0,0.3C39.2,75,39.6,75,40.1,75z"/>
	<path class="st0" d="M49.1,27.7c0,1.7,0,3.3,0,5c0,0.6-0.3,1.1-0.8,1.4c-2.4,1.4-4.7,2.9-7.1,4.3c-0.3,0.2-0.7,0.4-1,0.6
		c-0.5,0.3-1,0.3-1.4,0c-0.9-0.6-1.8-1.1-2.7-1.7c-0.7-0.4-1.5-0.9-2.3-1.4c-1.1-0.7-2.2-1.3-3.3-2c-0.5-0.3-0.7-0.7-0.7-1.2
		c0-3.3,0-6.6,0-9.9c0-0.2,0-0.4,0.1-0.6c0.1-0.3,0.3-0.5,0.5-0.7c1.2-0.8,2.5-1.5,3.7-2.3c1.5-0.9,3-1.9,4.6-2.8
		c0.5-0.3,1-0.3,1.6,0c2.3,1.5,4.7,2.9,7.1,4.3c0.3,0.2,0.7,0.4,1.1,0.7c0.4,0.3,0.7,0.7,0.7,1.2C49.1,24.3,49.1,26,49.1,27.7
		L49.1,27.7z M45.3,22.5C45.2,22.5,45.2,22.5,45.3,22.5c-1.9-1.2-3.7-2.3-5.6-3.5c-0.2-0.1-0.3-0.1-0.5,0c-1.8,1.1-3.5,2.2-5.3,3.2
		c-0.1,0-0.2,0.1-0.3,0.2c2,1.2,3.9,2.4,5.8,3.6C41.4,24.9,43.3,23.7,45.3,22.5z M38.1,35.6C38.1,35.5,38.1,35.5,38.1,35.6
		c0-2.4,0-4.6,0-6.9c0-0.2-0.1-0.3-0.3-0.4c-1.8-1.1-3.5-2.1-5.2-3.2c-0.1,0-0.2-0.1-0.3-0.1c0,0.2,0,0.3,0,0.4c0,2.1,0,4.2,0,6.3
		c0,0.3,0.1,0.5,0.4,0.7c0.9,0.6,1.8,1.1,2.8,1.7C36.4,34.5,37.2,35,38.1,35.6z M40.8,35.6c0.2-0.1,0.3-0.2,0.4-0.2
		c0.3-0.2,0.7-0.4,1.1-0.7c1.3-0.8,2.7-1.6,4-2.4c0.2-0.1,0.3-0.3,0.3-0.5c0-2.2,0-4.3,0-6.5c0-0.1,0-0.2,0-0.3
		c-0.9,0.6-1.8,1.1-2.7,1.7c-0.9,0.5-1.8,1.1-2.7,1.7c-0.2,0.1-0.3,0.3-0.3,0.5c0,2.1,0,4.3,0,6.4C40.8,35.2,40.8,35.3,40.8,35.6z"
		/>
</g>
<path d="M39.2,78.4C17.6,78.4,0,60.8,0,39.2S17.6,0,39.2,0s39.2,17.6,39.2,39.2S60.8,78.4,39.2,78.4z M39.2,3C19.2,3,3,19.2,3,39.2
	s16.2,36.2,36.2,36.2s36.2-16.2,36.2-36.2S59.2,3,39.2,3z"/>
</svg>
