<?xml version="1.0" encoding="utf-8"?>
<!-- Generator: Adobe Illustrator 23.0.3, SVG Export Plug-In . SVG Version: 6.00 Build 0)  -->
<svg version="1.1" id="Слой_1" xmlns="http://www.w3.org/2000/svg" xmlns:xlink="http://www.w3.org/1999/xlink" x="0px" y="0px"
	 viewBox="0 0 78.4 78.4" style="enable-background:new 0 0 78.4 78.4;" xml:space="preserve">
<g>
	<path d="M38.9,53.4c-0.1-0.6,0.3-2.5,0.5-3c0.6-1.5,2.3-1.6,3.5-2.6c-0.2-0.4-0.1-2.4-0.3-2.3C42.2,45.6,20,45.6,20,45.6V24.8h37.8
		c0,0,0,21.2,0,21.4c0,0.3,0,0.7,0,1c0,2.1,0,4.2,0,6.3c0.1-0.1,0.2-0.1,0.4-0.1c0.5-0.2,0.9-0.2,1.3-0.1c0-0.1,0-0.1,0-0.2
		c0.2,0,0.3-0.1,0.3-0.1s0.2-0.1,0.3-0.1c1.5-0.5,2.5-1.5,2.9-3.1c0.1-0.5,0.1-1,0.1-1.4c0-6,0-12,0-17.9c0-2.2,0-4.5,0-6.7
		c0-1.2-0.3-2.2-1.1-3.1c-0.9-1-2-1.4-3.3-1.4c-13.3,0-26.6,0-39.9,0c-0.1,0-0.2,0-0.3,0c-0.8,0-1.5,0.2-2.2,0.7
		c-1.3,0.9-1.9,2.2-1.9,3.7c0,2.1,0,4.2,0,6.3c0,6.2,0,12.3,0,18.5c0,0.7,0,1.4,0.3,2.1c0.7,1.6,2.2,2.6,4,2.6c5.3,0,10.5,0,15.8,0
		C34.7,53.3,38.2,53.2,38.9,53.4z M18.9,51.6c-1.5,0-2.7-1.2-2.7-2.7c0-8.3,0-16.7,0-25c0-1.7,1.1-2.7,2.7-2.7c13.3,0,26.6,0,39.8,0
		c1.7,0,2.7,1,2.7,2.7c0,8.4,0,16.7,0,25.1c0,1.1-0.4,1.9-1.4,2.4c-0.2,0.1-0.4,0.1-0.6,0.2c0-0.3,0-0.5,0-0.7c0-8.8,0-17.5,0-26.3
		c0-0.2,0-0.3,0-0.5c0-0.7-0.3-1-1-1c-0.2,0-0.3,0-0.5,0c-12.8,0-25.6,0-38.4,0c-0.1,0-0.3,0-0.4,0c-0.5,0-0.8,0.3-0.9,0.9
		c0,0.1,0,0.3,0,0.4c0,7.2,0,14.4,0,21.5c0,0.1,0,0.2,0,0.3c0,0.7,0.3,1,1,1c1.3,0,2.5,0,3.8,0c4.2,0,8.3,0,12.5,0
		c0.2,0,5.2-0.1,5.4-0.1c-2.8,0.4-3.6,2.9-3.5,4.4c-0.3,0-2.8,0-3,0C29.3,51.6,24.1,51.5,18.9,51.6z"/>
	<g>
		<path d="M59.4,53.6c0-0.3,0-4.2,0-6c-0.2-0.1-0.4-0.2-0.6-0.3c-0.4-0.2-0.7-0.4-0.9-0.8v0.3c-0.9-0.2-1.7-0.3-2.6,0.2
			c-1.1-1.6-2.5-1.6-4.1-0.9c-0.1-0.1-0.2-0.3-0.4-0.3c-0.4-0.3-0.9-0.6-1.5-0.5c-0.4,0-0.9,0-1.4,0c0-0.2-0.1-0.5-0.1-0.8
			c0-1.9,0-3.7,0-5.6c0-1.8-1.3-2.7-2.7-2.7c-0.7,0-1.4,0.2-1.9,0.7c-0.4,0.4-0.7,1-0.7,1.6c0,2.2,0,4.4,0,6.6c0,0.8,0,1.7,0,2.5
			c-0.8,0.1-1.6,0.4-2.3,0.8c0,0-0.1,0-0.2,0c-0.1,0.2-0.2,0.3-0.4,0.5c-0.2,0.5-0.5,1-1,1.3c-0.6,1.1-0.9,2.3-0.8,3.6
			c-0.1,0,0.2,1.1,0.2,1.5h0.1c0.1,0.7,0.2,1.2,0.3,1.8c0.3,1.4,0.6,2.8,0.7,4.3c0.3,2.3,2.3,4.5,5.2,4.4s5.9,0,8.8-0.1
			c0.8,0,1.7,0.3,2.5-0.2c0.6,0.1,1-0.2,1.4-0.5c1.5-0.9,2.1-2.3,2.2-4.1c0-1.7,0-3.4,0-5.2C59.4,55.4,59.5,53.5,59.4,53.6z
			 M57.9,60.7c0,1.6-0.9,2.8-2.4,3.3c-0.2,0.1-0.4,0.1-0.6,0.1c-3.6,0-7.2,0-10.7,0c-2.1,0-3.3-1.8-3.4-3.3
			c-0.1-1.1-0.4-2.2-0.6-3.3c-0.3-1.4-0.5-2.8-0.8-4.1c-0.3-1.8,0.9-3.7,2.6-4.3c0.2-0.1,0.4-0.1,0.6-0.2c0,0.3,0,0.4,0,0.6
			c0,1.8,0,3.7,0,5.5c0,0.2,0,0.3,0,0.5c0.1,0.4,0.3,0.6,0.7,0.6s0.7-0.3,0.7-0.7c0-0.1,0-0.2,0-0.3c0-2.6,0-5.3,0-7.9
			c0-2.8,0-5.7,0-8.5c0-0.3,0-0.7,0.3-0.9c0.4-0.4,1-0.3,1.5-0.2c0.4,0.1,0.6,0.5,0.6,1c0,3.8,0,7.6,0,11.3c0,0.2,0,0.3,0,0.5
			c0.1,0.3,0.3,0.6,0.7,0.6s0.7-0.2,0.8-0.6c0-0.2,0-0.3,0-0.5c0-0.8,0-1.7,0-2.6c0-0.8,0.4-1.1,1.2-1.1c0.9,0,1.2,0.3,1.2,1.2
			c0,0.8,0,1.6,0,2.5c0,0.1,0,0.3,0,0.4c0.1,0.4,0.4,0.6,0.7,0.6c0.4,0,0.7-0.3,0.7-0.6c0-0.1,0-0.3,0-0.4c0-0.7,0-1.4,0-2.1
			c0-0.6,0.4-1,1-1c0.9,0,1.3,0.3,1.3,1.3c0,0.8,0,1.5,0,2.3c0,0.1,0,0.2,0,0.3c0,0.5,0.3,0.8,0.7,0.8s0.7-0.3,0.7-0.8
			c0-0.6,0-1.1,0-1.7c0-0.4,0.1-0.8,0.5-1c0.5-0.2,1-0.2,1.4,0c0.3,0.2,0.4,0.4,0.4,0.8c0,0.3,0,0.6,0,0.9
			C57.9,53.4,57.9,57.1,57.9,60.7z"/>
	</g>
</g>
<path d="M39.2,78.4C17.6,78.4,0,60.8,0,39.2S17.6,0,39.2,0s39.2,17.6,39.2,39.2S60.8,78.4,39.2,78.4z M39.2,3C19.2,3,3,19.2,3,39.2
	s16.2,36.2,36.2,36.2s36.2-16.2,36.2-36.2S59.2,3,39.2,3z"/>
</svg>
