<?xml version="1.0" encoding="utf-8"?>
<!-- Generator: Adobe Illustrator 23.0.3, SVG Export Plug-In . SVG Version: 6.00 Build 0)  -->
<svg version="1.1" id="Слой_1" xmlns="http://www.w3.org/2000/svg" xmlns:xlink="http://www.w3.org/1999/xlink" x="0px" y="0px"
	 viewBox="0 0 78.4 78.4" style="enable-background:new 0 0 78.4 78.4;" xml:space="preserve">
<style type="text/css">
	.st0{stroke:#000000;stroke-miterlimit:10;}
</style>
<g>
	<path class="st0" d="M18.6,48.9c14,0,27.8,0,41.7,0c0-0.5,0-0.8,0-1.2c0-7.4,0-14.8,0-22.2c0-0.3,0-0.5,0-0.8
		c-0.1-1.4-1-2.3-2.4-2.3c-0.4,0-0.8,0-1.2,0c-0.7,0-1-0.3-1.1-0.8c0-0.5,0.3-0.9,1-0.9c2.2-0.2,4,0.2,5,2.4
		c0.3,0.5,0.4,1.2,0.4,1.8c0,5.3,0,10.6,0,15.9c0,2.9,0,5.7,0,8.6c1.6,0.9,3.1,1.7,4.6,2.5c0.3,0.2,0.6,0.3,0.9,0.5
		c0.9,0.6,1.2,1.7,0.9,2.7c-0.3,1-1.1,1.7-2.2,1.8c-0.3,0-0.7,0-1.1,0c-17.2,0-34.3,0-51.4,0c-0.3,0-0.7,0-1,0
		c-1.2-0.1-2.1-0.8-2.4-1.8c-0.3-1.1,0.1-2.2,1.2-2.8c1-0.6,2.1-1.2,3.2-1.7c0.7-0.4,1.3-0.8,2.1-1.2c0-0.4,0-0.9,0-1.4
		c0-7.7,0-15.4,0-23c0-1.8,0.7-3.1,2.3-3.9c0.4-0.2,1-0.3,1.4-0.4c0.5-0.1,0.8,0.2,1,0.7c0.1,0.5-0.2,0.8-0.6,1
		c-0.1,0.1-0.3,0-0.5,0.1c-1.1,0.3-1.7,1-1.8,2.2c0,0.2,0,0.5,0,0.7c0,7.6,0,15.1,0,22.7C18.6,48.2,18.6,48.5,18.6,48.9z M39.3,55.1
		c8.6,0,17.2,0,25.8,0c0.3,0,0.7,0.1,0.9,0c0.3-0.1,0.6-0.3,0.7-0.6c0.1-0.2-0.2-0.6-0.4-0.8c-0.2-0.2-0.5-0.3-0.7-0.4
		c-1.3-0.7-2.6-1.4-3.9-2.1c-0.6-0.3-1.1-0.4-1.8-0.4c-13.8,0-27.5,0-41.3,0c-0.6,0-1.2,0.1-1.8,0.4c-1.3,0.8-2.7,1.4-4,2.2
		c-0.2,0.1-0.5,0.2-0.7,0.4s-0.3,0.5-0.3,0.7c0.1,0.3,0.3,0.5,0.6,0.6s0.7,0.1,1,0.1C22.3,55.1,30.8,55.1,39.3,55.1z"/>
	<path d="M42.3,37.1c-0.4-0.1-0.7-0.1-0.9-0.2c-2.8-0.7-5.6-1.3-8.4-2c-0.7-0.2-1.1-0.5-1.3-1.3c-0.6-2.7-1.2-5.4-1.9-8.1
		c-0.1-0.6,0-1,0.4-1.4c1.9-1.9,3.9-3.9,5.8-5.8c0.4-0.4,0.9-0.6,1.5-0.4c2.7,0.8,5.4,1.7,8.1,2.5c0.5,0.2,0.8,0.5,1,1
		c0.8,2.7,1.7,5.3,2.5,8c0.2,0.6,0.1,1-0.3,1.5c-1.9,1.9-3.8,3.8-5.7,5.7C42.8,36.8,42.5,37,42.3,37.1z M34.4,33.5
		c2.6,0.6,5.1,1.2,7.2,1.7c1.7-1.7,3.2-3.2,4.8-4.8c-2.1-0.7-4.3-1.4-6.5-2.1C38.1,30,36.3,31.7,34.4,33.5z M38.6,27.1
		c-0.7-2.2-1.4-4.4-2.1-6.5c-1.7,1.7-3.3,3.3-5,5c0.5,2.1,0.9,4.3,1.6,6.7C35.1,30.4,36.8,28.8,38.6,27.1z M38.3,20
		c0.7,2.3,1.4,4.4,2.1,6.5c1.8,0.8,5.8,2,6.6,1.9c-0.7-2.1-1.3-4.2-2-6.3C42.7,21.4,40.6,20.8,38.3,20z"/>
	<path d="M29.3,22.8c-0.2,0.5-0.4,1.1-0.7,1.8c-1-1.2-1.8-2.4-2.2-3.8c-0.6-2.2,0.4-3.6,2.7-3.7c1.4,0,2.8,0.3,4.2,1
		c-0.6,0.5-1,0.8-1.5,1.2c-1.2-0.1-2.3-0.6-3.6-0.2C27.7,20.7,28.8,21.6,29.3,22.8z"/>
	<path d="M45.5,18.2c1.9-0.7,3.5-1.3,5.3-0.8c1.4,0.4,2.2,1.5,1.8,3c-0.3,1.6-1.2,2.9-2.3,4.3c-0.3-0.8-0.5-1.3-0.7-1.8
		c0.5-1.2,1.5-2.1,1.2-3.5c-1.2-0.5-2.4,0-3.6,0.2C46.7,19.1,46.2,18.7,45.5,18.2z"/>
	<path d="M47.1,35.8c1.3,0.2,2.4,0.8,3.7,0.2c0.3-1.4-0.7-2.3-1.2-3.5c0.2-0.5,0.4-1.1,0.7-1.8c0.3,0.3,0.5,0.4,0.6,0.6
		c0.8,1.1,1.5,2.3,1.8,3.6c0.3,1.5-0.5,2.7-2,3c-1.7,0.3-3.3-0.2-4.9-0.8C46.1,36.5,46.7,36.3,47.1,35.8z"/>
	<path d="M43.4,17c-1.2-0.1-2.1-0.3-2.4-1.5c-0.2-0.8-0.7-1.6-1.5-1.9c-0.9,0.4-1.3,1.2-1.6,2.1c-0.4,1.2-1.3,1.3-2.4,1.4
		c0.5-1.7,1-3.3,2.3-4.5c1.1-1.1,2.5-1,3.6,0.1C42.4,13.8,43,15.3,43.4,17z"/>
	<path d="M31.8,35.9c0.4,0.3,0.9,0.7,1.5,1.3c-1.9,0.8-3.6,1.3-5.4,0.8c-1.2-0.3-1.9-1.4-1.7-2.7c0.3-1.7,1.1-3.1,2.3-4.5
		c0.3,0.7,0.5,1.3,0.7,1.7c-0.4,1-0.8,1.9-1.2,2.8c-0.1,0.2,0,0.5,0,0.8C29.4,36.7,30.5,36,31.8,35.9z"/>
	<path d="M35.5,38.4c0.2-0.1,0.3-0.1,0.4-0.1c0.5,0.1,1,0.3,1.5,0.4c0.1,0.2,0.2,0.5,0.3,0.7c0.2,0.5,0.4,0.9,0.6,1.4
		c0.7,1.2,1.3,1.2,2.1,0.1c0.4-0.6,0.7-1.3,1.2-2.2c0.4-0.1,1-0.3,1.9-0.5c-0.7,2.1-1.2,3.8-2.8,5c-0.8,0.6-1.6,0.5-2.4,0
		c-0.4-0.2-0.8-0.6-1-0.9C36.4,41.1,35.8,39.8,35.5,38.4z"/>
</g>
<path d="M39.2,78.4C17.6,78.4,0,60.8,0,39.2S17.6,0,39.2,0s39.2,17.6,39.2,39.2S60.8,78.4,39.2,78.4z M39.2,3C19.2,3,3,19.2,3,39.2
	s16.2,36.2,36.2,36.2s36.2-16.2,36.2-36.2S59.2,3,39.2,3z"/>
</svg>
