<?xml version="1.0" encoding="utf-8"?>
<!-- Generator: Adobe Illustrator 23.0.3, SVG Export Plug-In . SVG Version: 6.00 Build 0)  -->
<svg version="1.1" id="Слой_1" xmlns="http://www.w3.org/2000/svg" xmlns:xlink="http://www.w3.org/1999/xlink" x="0px" y="0px"
	 viewBox="0 0 78.4 78.4" style="enable-background:new 0 0 78.4 78.4;" xml:space="preserve">
<path d="M39.2,78.4C17.6,78.4,0,60.8,0,39.2S17.6,0,39.2,0s39.2,17.6,39.2,39.2S60.8,78.4,39.2,78.4z M39.2,3C19.2,3,3,19.2,3,39.2
	s16.2,36.2,36.2,36.2s36.2-16.2,36.2-36.2S59.2,3,39.2,3z"/>
<g>
	<path d="M46.3,30.9c-0.4,1-0.3,1.9,0,2.8c1.2,3.8,2.3,7.7,3.4,11.6c0.1,0.3,0.2,0.6,0.2,0.9c0.1,0.8-0.4,1.5-1.2,1.7
		s-1.5-0.2-1.8-1c-0.7-2.1-1.2-4.2-1.9-6.3c-0.4-1.4-0.9-2.9-1.3-4.4c-1.1,0-2.1,0-3.3,0c0,7.7,0,15.4,0,23.3c0.6,0,1.1,0.1,1.7,0.1
		c1.8,0.1,2.7,1.1,2.7,2.8c0,2.3,0,2.3-2.2,2.3c-7.2,0-14.5,0-21.7,0c-1.5,0-1.5-0.1-1.5-1.5c0-2.2,0.2-2.5,1.8-3.6
		c0-0.3,0.1-0.8,0.1-1.2c0-6.3,0-12.5,0-18.8c0-5.5,0-11,0-16.4c0-3.1,1.7-5.4,4.5-6.7c0.6-0.3,1-0.5,1.3-1.1c0.4-0.7,1-1,1.9-1
		c1.1,0,2.3,0,3.4,0c1.1,0,1.8,0.5,2.4,1.4c3.5,0.1,7-0.1,10.5,0.1c0.3,1.4-0.7,2.4-0.8,3.7c2.1,0.5,3.2,1.9,3,4.2
		c0.5-0.1,0.8-0.2,1.2-0.3c4-1.3,8.1-2.5,12.1-3.8c0.3-0.1,0.5-0.2,0.8-0.2c0.9-0.1,1.6,0.3,1.8,1.2c0.2,0.7-0.2,1.5-1,1.7
		c-1.9,0.6-3.9,1.2-5.8,1.8c-2.9,0.9-5.8,1.8-8.7,2.7c-0.4,0.1-0.7,0.3-1.1,0.5c0,0.1,0,0.2,0.1,0.3c0.4,0.1,0.9,0.2,1.3,0.3
		c4.5,0.8,9,1.7,13.5,2.5c0.3,0.1,0.7,0.1,1,0.3c0.8,0.3,1.2,1,1,1.8c-0.2,0.7-0.7,1.2-1.6,1.1c-1.2-0.1-2.5-0.4-3.7-0.6
		c-3.7-0.7-7.3-1.4-10.9-2.1C47.1,31,46.7,30.9,46.3,30.9z M48.2,46.3c0.1,0,0.2-0.1,0.3-0.1c-0.4-1-2.8-9.4-3.1-10.6
		c-0.1,0-0.3,0.1-0.4,0.1C45.4,36.9,47.9,45.3,48.2,46.3z M39,31c-5.5,0-10.9,0-16.2,0c0,9.5,0,19,0,28.4c0.6,0,13.3,0.1,16.2,0.1
		C39,50.2,39,40.5,39,31z M43.8,17.3c-3.1,0-5.9,0-8.8,0c0,0.4,0,0.6,0,0.9c0,1.7,0,3.4,0,5.2c0,1.7-0.8,2.5-2.5,2.5
		c-1.1,0-2.1,0-3.2,0c-1.4,0-2.3-0.9-2.4-2.3c-0.1-1.6,0-3.2,0-4.8c0-0.3,0-0.7-0.1-1.1c-0.4,0.2-0.8,0.3-1.1,0.5
		c-1.7,1.1-2.8,2.6-3,4.6c-0.2,2.2,0,4.5,0,6.8c5.6,0,11.1,0,16.6,0C40.8,25.4,42.3,21.4,43.8,17.3z M20.9,63.2
		c1.2,0.3,21.8,0.2,22.6-0.1c0.2-1.8-0.2-2.2-1.9-2.2c-6.3,0-12.6,0-18.9,0C20.9,60.9,20.6,61.4,20.9,63.2z M40.4,34.6
		c0.8,0.1,1.4,0.3,2,0.3c1,0,1.7-0.5,1.9-1.5c0.6-3.3,1.2-6.6,1.8-9.9c0.2-1.4-0.7-2.3-2.3-2.2c-0.2,0.4-0.3,0.8-0.5,1.2
		c-0.8,2.2-1.5,4.3-2.4,6.5C40.2,30.6,40.5,32.5,40.4,34.6z M33.5,24.2c0-2.6,0-5,0-7.5c0-0.7-0.4-1-1.1-1c-1,0-2.1,0-3.2,0
		c-0.8,0-1.1,0.3-1.1,1.1c0,2.2,0,4.4,0,6.5c0,0.8,0.2,1.1,1,1.1c1.1,0,2.2,0,3.3,0C32.8,24.5,33.1,24.4,33.5,24.2z M62.1,32.4
		c0-0.1,0-0.2,0-0.4c-5.2-1-10.3-1.9-15.4-2.9c0,0.1,0,0.2-0.1,0.4C51.8,30.5,57,31.5,62.1,32.4z M47.2,25.4
		c1.3,0.1,14.1-4,14.9-4.7C57,22.4,52.1,23.9,47.2,25.4z"/>
</g>
</svg>
