<svg width="17" height="17" viewBox="0 0 17 17" fill="none" xmlns="http://www.w3.org/2000/svg">
<g clip-path="url(#clip0)">
<path d="M7.57918 11.3355C7.57132 11.2521 7.55843 11.1691 7.54064 11.087C7.53427 11.0566 7.52582 11.029 7.51826 11.0001C7.50329 10.943 7.48787 10.8866 7.46668 10.8308C7.45571 10.8004 7.44533 10.77 7.43318 10.7397C7.40279 10.6635 7.36796 10.5892 7.32882 10.5172C7.31459 10.4914 7.29844 10.4668 7.28302 10.4416C7.25501 10.3955 7.22595 10.3506 7.19497 10.3062C7.17363 10.2759 7.15214 10.2475 7.1296 10.2194C7.09714 10.1783 7.0632 10.1395 7.02822 10.1015C7.00732 10.0789 6.9876 10.0548 6.96596 10.0329C6.91171 9.9794 6.85464 9.9287 6.79505 9.88112C6.77149 9.862 6.74658 9.84451 6.72198 9.82657C6.67617 9.79278 6.63082 9.76091 6.58175 9.73126C6.55863 9.71688 6.5358 9.70265 6.51253 9.68902C6.36638 9.60616 6.21103 9.54079 6.04961 9.4941C6.02886 9.48832 6.00796 9.48357 5.98706 9.47809C5.92303 9.46164 5.85795 9.4477 5.79244 9.43821C5.76961 9.43495 5.74693 9.43066 5.72381 9.42799C5.63769 9.41687 5.55112 9.41109 5.46426 9.41064C5.28446 9.41094 5.10525 9.43347 4.93094 9.4775C3.99117 9.71896 3.33437 10.5664 3.33496 11.5367C3.33541 12.5068 3.99309 13.3535 4.93301 13.5941C5.01468 13.6144 5.09754 13.63 5.181 13.6409L5.21746 13.6452C5.28876 13.6532 5.3605 13.6577 5.43239 13.6586H5.49583C5.54593 13.6586 5.59515 13.6552 5.64391 13.6509C5.68097 13.6476 5.71832 13.643 5.75627 13.6375C5.76991 13.6357 5.78354 13.6334 5.79703 13.6311C5.9881 13.6 6.17427 13.5437 6.35067 13.4636L6.37586 13.4515C6.41292 13.4344 6.44998 13.4159 6.48763 13.3962C7.04897 13.0863 7.44088 12.5399 7.55428 11.9087C7.56673 11.8349 7.57622 11.7615 7.5817 11.688C7.5817 11.6631 7.58437 11.6379 7.58526 11.6127C7.58807 11.5423 7.58689 11.4722 7.58259 11.4024C7.58111 11.3802 7.58111 11.3578 7.57918 11.3355Z" fill="#1D68D9"/>
<path d="M10.625 12.4465C10.7926 12.4465 10.9286 12.3106 10.9286 12.143V10.9287C10.9286 10.761 10.7926 10.6251 10.625 10.6251H10.291C9.9135 10.6238 9.57569 10.3902 9.4411 10.0374C9.40894 9.95304 9.37395 9.86914 9.3366 9.78688C9.18052 9.44239 9.253 9.03728 9.51877 8.7681L9.75653 8.5302C9.87497 8.41161 9.87497 8.21951 9.75653 8.10093L8.89859 7.24298C8.77956 7.12529 8.58805 7.12529 8.46902 7.24298L8.23141 7.48044C7.96238 7.74651 7.55712 7.81885 7.21249 7.66262C7.13022 7.62526 7.04647 7.59058 6.96154 7.55811C6.60965 7.42308 6.37663 7.08601 6.375 6.70906V6.3751C6.375 6.20746 6.23907 6.07153 6.07143 6.07153H4.85714C4.6895 6.07153 4.55357 6.20746 4.55357 6.3751V6.70906C4.55224 7.0866 4.31863 7.42441 3.96585 7.559C3.8815 7.59117 3.79761 7.62615 3.71534 7.66351C3.37086 7.81989 2.9656 7.7474 2.69657 7.48133L2.45866 7.24357C2.34008 7.12514 2.14798 7.12514 2.02939 7.24357L1.17145 8.10093C1.11453 8.15785 1.08251 8.23507 1.08251 8.31571C1.08251 8.3962 1.11453 8.47357 1.17145 8.53049L1.40891 8.7681C1.67468 9.03728 1.74717 9.44239 1.59108 9.78688C1.55373 9.86929 1.51904 9.95304 1.48658 10.038C1.35184 10.3902 1.01462 10.6233 0.63753 10.6251H0.303571C0.135925 10.6251 0 10.761 0 10.9287V12.143C0 12.3106 0.135925 12.4465 0.303571 12.4465H0.63753C1.01507 12.4479 1.35288 12.6815 1.48747 13.0343C1.51964 13.1186 1.55462 13.2025 1.59197 13.2848C1.74806 13.6292 1.67557 14.0344 1.4098 14.3035L1.17204 14.5414C1.05361 14.66 1.05361 14.8521 1.17204 14.9707L2.02999 15.8287C2.08691 15.8856 2.16413 15.9176 2.24477 15.9176C2.32526 15.9176 2.40263 15.8856 2.45955 15.8287L2.69716 15.5912C2.96634 15.3256 3.37145 15.2531 3.71608 15.409C3.79835 15.4465 3.8821 15.4814 3.96703 15.5135C4.31893 15.6486 4.55194 15.9856 4.55357 16.3626V16.6965C4.55357 16.8642 4.6895 17.0001 4.85714 17.0001H6.07143C6.23907 17.0001 6.375 16.8642 6.375 16.6965V16.3626C6.37633 15.985 6.60994 15.6472 6.96273 15.5126C7.04707 15.4805 7.13096 15.4455 7.21323 15.4081C7.55771 15.2518 7.96297 15.3242 8.232 15.5903L8.46991 15.8281C8.58849 15.9465 8.7806 15.9465 8.89918 15.8281L9.75712 14.9701C9.81404 14.9132 9.84606 14.836 9.84606 14.7553C9.84606 14.6749 9.81404 14.5975 9.75712 14.5406L9.51966 14.3029C9.25389 14.0338 9.18141 13.6287 9.33749 13.284C9.37499 13.2018 9.40983 13.118 9.44199 13.0331C9.57703 12.6812 9.9141 12.4482 10.291 12.4465H10.625ZM8.19406 11.5868C8.19406 11.6415 8.18976 11.6961 8.18546 11.751C8.18101 11.8118 8.17331 11.8695 8.16486 11.928C8.10023 12.3708 7.94459 12.7955 7.70772 13.1751C7.66266 13.2485 7.60796 13.3155 7.54497 13.3743C7.31195 13.5955 7.05018 13.7844 6.76692 13.9362H6.76514C6.71385 13.9635 6.66316 13.9866 6.61335 14.0099C6.57407 14.0281 6.53494 14.047 6.49492 14.0634C6.4549 14.0797 6.40954 14.0936 6.36714 14.1101C6.3246 14.1266 6.28428 14.1405 6.24174 14.1523C6.18705 14.1684 6.13398 14.1827 6.08047 14.1939C6.05023 14.2005 6.02251 14.2082 5.99287 14.2139C5.91668 14.2291 5.84108 14.2401 5.76815 14.2483C5.75852 14.2483 5.74874 14.2512 5.73777 14.2523C5.64675 14.2613 5.55559 14.2671 5.46977 14.2671C5.42056 14.2671 5.37653 14.2601 5.32925 14.2576C5.2581 14.2543 5.1874 14.2525 5.11669 14.2437C5.00967 14.2294 4.90339 14.2091 4.79859 14.183C4.7934 14.183 4.78822 14.1814 4.78333 14.1802C3.57645 13.8688 2.73288 12.7805 2.73244 11.534C2.73199 10.2876 3.57452 9.19856 4.78125 8.88624C4.87819 8.86267 4.97647 8.84429 5.07548 8.83125C5.10972 8.8265 5.14426 8.8225 5.17865 8.8188C5.24387 8.81213 5.30879 8.80857 5.37357 8.80664C5.40381 8.80664 5.4342 8.80101 5.46458 8.80101C6.05157 8.80101 6.62254 8.99148 7.09198 9.34367L7.14178 9.38073C7.18003 9.41097 7.21768 9.44195 7.25444 9.47367C7.28482 9.50035 7.31521 9.52837 7.34545 9.55653C7.37035 9.58025 7.39526 9.60322 7.41897 9.62783C7.46418 9.67378 7.50732 9.72165 7.54926 9.77116C7.55831 9.78184 7.56839 9.79206 7.57713 9.80303C7.68 9.92725 7.77131 10.0605 7.85032 10.201C7.85432 10.208 7.85669 10.2156 7.86069 10.2225C7.91079 10.3146 7.95556 10.4094 7.99454 10.5067C8.01159 10.5483 8.02493 10.5901 8.04064 10.6324C8.06199 10.6931 8.08111 10.7547 8.09801 10.8172C8.11149 10.8664 8.12543 10.9153 8.13595 10.9648C8.15211 11.0404 8.16367 11.1166 8.17331 11.1952C8.1822 11.2675 8.18739 11.34 8.19035 11.4129C8.19213 11.453 8.19643 11.4924 8.19643 11.5343C8.19643 11.5532 8.19435 11.5695 8.19406 11.5868Z" fill="#1D68D9"/>
<path d="M13.0605 6.09033C13.0727 6.12072 13.0822 6.15111 13.0933 6.17957C13.0822 6.14977 13.0727 6.11983 13.0605 6.09033Z" fill="#1D68D9"/>
<path d="M13.0933 8.99902C13.0822 9.02941 13.0727 9.0598 13.0605 9.08826C13.0727 9.05876 13.0822 9.02882 13.0933 8.99902Z" fill="#1D68D9"/>
<path d="M12.8943 5.73755C12.9152 5.77668 12.9325 5.81774 12.9522 5.85895C12.9322 5.81626 12.9152 5.7755 12.8943 5.73755Z" fill="#1D68D9"/>
<path d="M13.2028 8.6731C13.1982 8.68866 13.1951 8.70348 13.1907 8.71964C13.1951 8.70408 13.1982 8.68866 13.2028 8.6731Z" fill="#1D68D9"/>
<path d="M10.4946 3.79712C10.5099 3.80171 10.525 3.80483 10.5412 3.80927C10.5256 3.80483 10.5102 3.80171 10.4946 3.79712Z" fill="#1D68D9"/>
<path d="M7.91162 3.9395C7.94201 3.92734 7.97239 3.91786 8.00085 3.90674C7.97106 3.91786 7.94112 3.92734 7.91162 3.9395Z" fill="#1D68D9"/>
<path d="M13.1907 6.45898C13.1951 6.47425 13.1982 6.48937 13.2028 6.50553C13.1982 6.48996 13.1951 6.47455 13.1907 6.45898Z" fill="#1D68D9"/>
<path d="M11.1438 4.04785C11.1838 4.06757 11.2249 4.08491 11.2652 4.10581C11.2246 4.08491 11.1838 4.06786 11.1438 4.04785Z" fill="#1D68D9"/>
<path d="M11.4634 4.22339C11.5086 4.25096 11.5544 4.27645 11.599 4.30566C11.5547 4.27616 11.5086 4.24977 11.4634 4.22339Z" fill="#1D68D9"/>
<path d="M11.79 4.44604C11.8302 4.47643 11.8723 4.50489 11.9114 4.53706C11.872 4.50459 11.8305 4.47673 11.79 4.44604Z" fill="#1D68D9"/>
<path d="M12.4631 5.08838C12.4934 5.12751 12.5238 5.16961 12.5541 5.20978C12.5232 5.16931 12.4953 5.12781 12.4631 5.08838Z" fill="#1D68D9"/>
<path d="M10.8206 3.90674C10.8509 3.91786 10.8813 3.92734 10.9098 3.9395C10.8803 3.92734 10.8504 3.91786 10.8206 3.90674Z" fill="#1D68D9"/>
<path d="M12.6943 5.40088C12.7247 5.4449 12.749 5.49189 12.7766 5.53651C12.7502 5.4913 12.7238 5.4452 12.6943 5.40088Z" fill="#1D68D9"/>
<path d="M8.28052 3.80927C8.29578 3.80483 8.3109 3.80171 8.32706 3.79712C8.3115 3.80171 8.29608 3.80483 8.28052 3.80927Z" fill="#1D68D9"/>
<path d="M6.90991 4.53681C6.94904 4.50494 6.99084 4.47619 7.03131 4.4458C6.99084 4.47678 6.94934 4.50465 6.90991 4.53681Z" fill="#1D68D9"/>
<path d="M12.5537 9.96899C12.5233 10.0092 12.4951 10.051 12.4626 10.0904C12.4954 10.0507 12.5233 10.0092 12.5537 9.96899Z" fill="#1D68D9"/>
<path d="M7.22241 4.30585C7.26614 4.27546 7.31342 4.25115 7.35745 4.22388C7.31254 4.24997 7.26673 4.27635 7.22241 4.30585Z" fill="#1D68D9"/>
<path d="M7.55884 4.10581C7.59797 4.08491 7.63903 4.06757 7.68024 4.04785C7.63755 4.06786 7.59678 4.08491 7.55884 4.10581Z" fill="#1D68D9"/>
<path d="M12.9522 9.32251C12.9325 9.36253 12.9152 9.40359 12.8943 9.44391C12.9152 9.40329 12.9322 9.36253 12.9522 9.32251Z" fill="#1D68D9"/>
<path d="M12.7763 9.64258C12.749 9.68749 12.7235 9.73359 12.6943 9.77762C12.7238 9.7333 12.7502 9.68749 12.7763 9.64258Z" fill="#1D68D9"/>
<path d="M16.6966 6.375H15.7418C15.3533 6.37648 15.0075 6.12939 14.883 5.76148C14.7975 5.50653 14.6942 5.25795 14.5737 5.01738C14.4002 4.66919 14.4692 4.24896 14.7449 3.9743L15.4218 3.29615C15.5403 3.17772 15.5403 2.98576 15.4218 2.86718L14.1333 1.57863C14.0147 1.46005 13.8226 1.46005 13.704 1.57863L13.0259 2.25559C12.7512 2.53085 12.3314 2.59992 11.9831 2.42709C11.7425 2.30643 11.4938 2.20297 11.2387 2.11744C10.8706 1.99293 10.6235 1.64682 10.6252 1.25831V0.303571C10.6252 0.135925 10.4892 0 10.3216 0H8.50016C8.33251 0 8.19658 0.135925 8.19658 0.303571V1.25831C8.19807 1.64667 7.95097 1.99248 7.58307 2.11714C7.32812 2.20267 7.07954 2.30599 6.83896 2.4265C6.49077 2.60022 6.0704 2.53129 5.79588 2.25529L5.11774 1.57863C4.99915 1.46005 4.80705 1.46005 4.68847 1.57863L3.40022 2.86688C3.28163 2.98547 3.28163 3.17757 3.40022 3.29615L5.56583 5.46429H6.07158H6.08804C6.24086 5.22312 6.41933 4.99915 6.62047 4.79637C6.71252 4.70432 6.80917 4.61687 6.91011 4.53445C6.94954 4.50228 6.99104 4.47368 7.03151 4.44344C7.09466 4.39541 7.15691 4.34679 7.22273 4.30277C7.26705 4.27253 7.31374 4.24822 7.35776 4.2208C7.42402 4.18048 7.48924 4.13913 7.55787 4.10281C7.5973 4.08176 7.63806 4.06457 7.67927 4.04485C7.75635 4.00691 7.83357 3.96926 7.91332 3.93635C7.94371 3.92419 7.97409 3.91486 8.00255 3.90359C8.09371 3.86846 8.18725 3.83437 8.28226 3.8062C8.29768 3.80161 8.3125 3.79865 8.32866 3.79405C9.03645 3.58846 9.78826 3.58846 10.4962 3.79405C10.5116 3.79865 10.5264 3.80161 10.5426 3.8062C10.6376 3.83437 10.7302 3.86846 10.8222 3.90359C10.8525 3.91486 10.8829 3.92419 10.9114 3.93635C10.9913 3.96926 11.0684 4.00691 11.1454 4.04485C11.1856 4.06457 11.2262 4.08176 11.2668 4.10281C11.3355 4.13913 11.4005 4.18018 11.4664 4.2205C11.5116 4.24822 11.5574 4.27342 11.602 4.30277C11.6679 4.34679 11.7302 4.39393 11.793 4.44314C11.8334 4.47338 11.875 4.50169 11.9144 4.53415C12.1162 4.69913 12.301 4.88397 12.466 5.08571C12.4982 5.12514 12.5268 5.16679 12.557 5.20711C12.6047 5.26996 12.6534 5.33221 12.6974 5.39818C12.7276 5.4425 12.7519 5.48919 12.7797 5.5338C12.82 5.59962 12.861 5.66469 12.8973 5.73332C12.9184 5.77275 12.9356 5.81336 12.9553 5.85472C12.9932 5.9318 13.0309 6.00888 13.0638 6.08877C13.076 6.11916 13.0853 6.1494 13.0966 6.178C13.1317 6.26902 13.1658 6.36255 13.194 6.45756C13.1985 6.47313 13.2015 6.48795 13.2061 6.50396C13.4117 7.2119 13.4117 7.96371 13.2061 8.6715C13.2015 8.68706 13.1985 8.70189 13.194 8.7179C13.1658 8.81291 13.1333 8.90555 13.0966 8.9976C13.0853 9.02784 13.076 9.05823 13.0638 9.08684C13.0309 9.16658 12.9932 9.24381 12.9553 9.32089C12.9356 9.36091 12.9184 9.40167 12.8973 9.44229C12.861 9.51092 12.8197 9.57614 12.7794 9.6424C12.7519 9.68731 12.7267 9.73341 12.6974 9.77743C12.6534 9.84324 12.6062 9.9055 12.5567 9.96865C12.5265 10.0088 12.4985 10.0503 12.4657 10.09C12.3833 10.191 12.2958 10.2876 12.2038 10.3797C12.001 10.5808 11.777 10.7593 11.5359 10.9121C11.5359 10.9179 11.5374 10.9231 11.5374 10.9286V11.4343L13.704 13.5999C13.8224 13.7184 14.0144 13.7184 14.133 13.5999L15.4215 12.3117C15.5401 12.1931 15.5401 12.001 15.4215 11.8824L14.7446 11.2043C14.469 10.9298 14.3999 10.5097 14.5731 10.1615C14.6937 9.92092 14.7972 9.67219 14.8827 9.41709C15.0072 9.04904 15.3533 8.80194 15.7418 8.80357H16.6966C16.8642 8.80357 17.0002 8.66765 17.0002 8.5V6.67857C17.0002 6.51093 16.8642 6.375 16.6966 6.375Z" fill="#1D68D9"/>
<path d="M10.9097 3.93945C10.989 3.97191 11.0663 4.01016 11.1437 4.04781C11.0666 4.00986 10.9893 3.97221 10.9097 3.93945Z" fill="#1D68D9"/>
<path d="M11.2642 4.10571C11.3322 4.14188 11.3977 4.18309 11.4637 4.22356C11.3977 4.18309 11.3328 4.14218 11.2642 4.10571Z" fill="#1D68D9"/>
<path d="M8.00098 3.90686C8.09199 3.87158 8.18611 3.83734 8.28053 3.80933C8.18552 3.83764 8.09303 3.87158 8.00098 3.90686Z" fill="#1D68D9"/>
<path d="M10.541 3.80933C10.6354 3.83734 10.7279 3.87158 10.8206 3.90686C10.7285 3.87158 10.636 3.83764 10.541 3.80933Z" fill="#1D68D9"/>
<path d="M7.35742 4.22385C7.42368 4.18339 7.48949 4.14188 7.55753 4.10571C7.4889 4.14218 7.42368 4.18339 7.35742 4.22385Z" fill="#1D68D9"/>
<path d="M7.03101 4.44619C7.09415 4.39816 7.157 4.34939 7.22222 4.30566C7.15641 4.34969 7.09415 4.39816 7.03101 4.44619Z" fill="#1D68D9"/>
<path d="M7.67749 4.04781C7.75487 4.01016 7.83224 3.97191 7.91154 3.93945C7.83194 3.97221 7.75457 4.00986 7.67749 4.04781Z" fill="#1D68D9"/>
<path d="M6.62036 4.79893C6.71315 4.7057 6.81039 4.61884 6.91 4.53687C6.80906 4.61928 6.71241 4.70673 6.62036 4.79893Z" fill="#1D68D9"/>
<path d="M12.6942 9.77759C12.6505 9.84281 12.6032 9.90566 12.5537 9.9688C12.6017 9.90566 12.6502 9.8434 12.6942 9.77759Z" fill="#1D68D9"/>
<path d="M13.0605 9.08838C13.028 9.16768 12.9898 9.24506 12.9521 9.32243C12.9901 9.24535 13.0277 9.16798 13.0605 9.08838Z" fill="#1D68D9"/>
<path d="M12.8943 9.44116C12.8581 9.5092 12.8166 9.57501 12.7761 9.64112C12.8166 9.57649 12.8578 9.51127 12.8943 9.44116Z" fill="#1D68D9"/>
<path d="M11.5991 4.30566C11.6643 4.34939 11.7269 4.39668 11.79 4.44589C11.7272 4.39816 11.6649 4.34969 11.5991 4.30566Z" fill="#1D68D9"/>
<path d="M13.2029 8.67276C13.4085 7.96497 13.4085 7.21316 13.2029 6.50537C13.4036 7.2139 13.4036 7.96423 13.2029 8.67276Z" fill="#1D68D9"/>
<path d="M10.4943 3.79702C9.78651 3.59142 9.03469 3.59142 8.3269 3.79702C9.03544 3.59632 9.78577 3.59632 10.4943 3.79702Z" fill="#1D68D9"/>
<path d="M12.4632 10.0901C12.3813 10.1897 12.2944 10.2869 12.2012 10.3797C12.2934 10.2877 12.3808 10.191 12.4632 10.0901Z" fill="#1D68D9"/>
<path d="M12.2012 4.79883C12.2944 4.89162 12.3813 4.98886 12.4632 5.08847C12.3808 4.98752 12.2934 4.89088 12.2012 4.79883Z" fill="#1D68D9"/>
<path d="M12.554 5.20996C12.6017 5.27311 12.6505 5.33566 12.6942 5.40088C12.6502 5.33507 12.6017 5.27281 12.554 5.20996Z" fill="#1D68D9"/>
<path d="M11.9116 4.53687C12.0112 4.61884 12.1085 4.7057 12.2013 4.79893C12.1092 4.70673 12.0126 4.61928 11.9116 4.53687Z" fill="#1D68D9"/>
<path d="M13.0933 6.17944C13.1285 6.27046 13.1628 6.36458 13.1908 6.459C13.1625 6.36399 13.1285 6.27149 13.0933 6.17944Z" fill="#1D68D9"/>
<path d="M12.7766 5.53662C12.8171 5.60258 12.8583 5.6681 12.8945 5.73614C12.858 5.66751 12.8171 5.60258 12.7766 5.53662Z" fill="#1D68D9"/>
<path d="M13.1908 8.71948C13.1628 8.8139 13.13 8.9064 13.0933 8.99904C13.1285 8.90699 13.1625 8.8145 13.1908 8.71948Z" fill="#1D68D9"/>
<path d="M12.9521 5.8562C12.9898 5.93358 13.028 6.01095 13.0605 6.09025C13.0277 6.01065 12.9901 5.93328 12.9521 5.8562Z" fill="#1D68D9"/>
</g>
<defs>
<clipPath id="clip0">
<rect width="17" height="17" fill="white"/>
</clipPath>
</defs>
</svg>
