<svg width="31" height="31" viewBox="0 0 31 31" fill="none" xmlns="http://www.w3.org/2000/svg">
<g clip-path="url(#clip0)">
<path d="M2.32502 28.9333V2.06666C2.32567 1.49626 2.78795 1.03398 3.35835 1.03333H21.9584V3.61666C21.9593 4.47226 22.6528 5.16569 23.5084 5.16666H26.0917V22.2167H27.125V4.65C27.125 4.51295 27.0706 4.38152 26.9737 4.28465L22.8404 0.151315C22.7435 0.0544399 22.6121 -3.8147e-06 22.475 -3.8147e-06H3.35835C2.21749 0.00128785 1.29298 0.925798 1.29169 2.06666V28.9333C1.29298 30.0742 2.21749 30.9987 3.35835 31H17.825V29.9667H3.35835C2.78795 29.966 2.32567 29.5037 2.32502 28.9333ZM22.9917 1.76396L25.3611 4.13333H23.5084C23.2232 4.13301 22.992 3.90186 22.9917 3.61666V1.76396Z" fill="#BCCBD7"/>
<path d="M3.35834 2.06667H4.39167V3.1H3.35834V2.06667Z" fill="#BCCBD7"/>
<path d="M5.42505 2.06667H6.45838V3.1H5.42505V2.06667Z" fill="#BCCBD7"/>
<path d="M7.4917 2.06667H8.52503V3.1H7.4917V2.06667Z" fill="#BCCBD7"/>
<path d="M3.35834 4.13333H20.925V5.16666H3.35834V4.13333Z" fill="#BCCBD7"/>
<path d="M9.55834 11.8839C9.55911 11.0438 9.02146 10.2978 8.22424 10.0329C8.0952 9.99007 8.00821 9.86937 8.00834 9.73342V9.73271C8.00789 9.66502 8.03049 9.59928 8.07241 9.54613C8.43213 9.10231 8.58836 8.52758 8.50285 7.96274C8.33616 6.83356 7.28572 6.05333 6.15654 6.22002C5.14194 6.36979 4.39057 7.24102 4.39167 8.26667C4.39264 8.74077 4.55817 9.19989 4.85997 9.56557C4.89426 9.61458 4.91131 9.67368 4.90834 9.73348C4.90847 9.86943 4.82147 9.99007 4.6925 10.033C3.89528 10.2979 3.35756 11.0438 3.35834 11.8839V12.4C3.35834 12.6853 3.58968 12.9167 3.875 12.9167H9.04167C9.327 12.9167 9.55834 12.6853 9.55834 12.4V11.8839ZM4.39167 11.8833C4.39154 11.4883 4.64445 11.1377 5.01929 11.0132C5.57045 10.83 5.94219 10.3142 5.94167 9.73342C5.94516 9.43369 5.8446 9.14203 5.65718 8.90811C5.50683 8.72824 5.42462 8.5011 5.425 8.26667C5.42533 7.69523 5.88884 7.23223 6.46028 7.23256C6.52421 7.23262 6.58796 7.23856 6.6508 7.25038C7.08034 7.3355 7.41139 7.67922 7.48031 8.11167C7.52299 8.39215 7.44562 8.67767 7.26718 8.89829C7.07782 9.13512 6.97475 9.42942 6.97501 9.73271V9.73329C6.97449 10.3141 7.34623 10.8299 7.89745 11.0131C8.27229 11.1377 8.5252 11.4883 8.52501 11.8833H4.39167Z" fill="#BCCBD7"/>
<path d="M9.55834 19.6339C9.55911 18.7939 9.02146 18.0479 8.22424 17.7829C8.0952 17.7401 8.00821 17.6194 8.00834 17.4834V17.4827C8.00789 17.415 8.03049 17.3493 8.0724 17.2961C8.43213 16.8523 8.58836 16.2777 8.50285 15.7128C8.33616 14.5836 7.28572 13.8034 6.15654 13.9701C5.14194 14.1199 4.39064 14.991 4.39167 16.0167C4.39264 16.4908 4.55817 16.95 4.85997 17.3157C4.89432 17.3647 4.91137 17.4238 4.90834 17.4836C4.90847 17.6196 4.82147 17.7402 4.6925 17.7831C3.89535 18.048 3.35769 18.7939 3.35834 19.6339V20.15C3.35834 20.4353 3.58968 20.6667 3.875 20.6667H9.04167C9.327 20.6667 9.55834 20.4353 9.55834 20.15V19.6339ZM4.39167 19.6333C4.39154 19.2383 4.64445 18.8877 5.01929 18.7632C5.57045 18.58 5.94219 18.0642 5.94167 17.4834C5.94522 17.1837 5.84467 16.892 5.65718 16.6582C5.50683 16.4782 5.42462 16.2511 5.425 16.0167C5.42526 15.4453 5.88871 14.9824 6.46008 14.9826C6.52408 14.9826 6.58789 14.9886 6.6508 15.0005C7.08034 15.0855 7.41139 15.4292 7.4803 15.8617C7.52299 16.1422 7.44562 16.4277 7.26718 16.6482C7.07782 16.8851 6.97475 17.1794 6.975 17.4827V17.4833C6.97449 18.0641 7.34623 18.5799 7.89745 18.7631C8.27229 18.8877 8.5252 19.2383 8.525 19.6333H4.39167Z" fill="#BCCBD7"/>
<path d="M14.3597 7.38465L13.1907 8.55361C12.2065 7.97294 10.938 8.30012 10.3573 9.28431C9.77663 10.2685 10.1038 11.537 11.088 12.1177C12.0722 12.6984 13.3407 12.3712 13.9214 11.387C14.304 10.7383 14.304 9.93298 13.9214 9.28431L15.0904 8.11535L14.3597 7.38465ZM12.1417 11.3667C11.571 11.369 11.1065 10.9082 11.1041 10.3375C11.1018 9.76687 11.5626 9.30232 12.1333 9.3C12.2261 9.29961 12.3186 9.31175 12.4082 9.3361L11.7763 9.96798L12.507 10.6987L13.1389 10.0668C13.2882 10.6155 12.9644 11.1813 12.4157 11.3306C12.3264 11.3548 12.2342 11.367 12.1417 11.3667Z" fill="#BCCBD7"/>
<path d="M19.5263 7.38465L18.3573 8.55361C17.3731 7.97294 16.1046 8.30012 15.5239 9.28431C14.9433 10.2685 15.2704 11.537 16.2546 12.1177C17.2388 12.6984 18.5074 12.3712 19.088 11.387C19.4707 10.7383 19.4707 9.93298 19.088 9.28431L20.257 8.11535L19.5263 7.38465ZM17.3083 11.3667C16.7376 11.369 16.2731 10.9082 16.2708 10.3375C16.2684 9.76687 16.7292 9.30232 17.2999 9.3C17.3928 9.29961 17.4852 9.31175 17.5748 9.3361L16.9429 9.96798L17.6736 10.6987L18.3055 10.0668C18.4548 10.6155 18.131 11.1813 17.5823 11.3306C17.493 11.3548 17.4008 11.367 17.3083 11.3667Z" fill="#BCCBD7"/>
<path d="M24.693 7.38465L23.524 8.55361C22.5398 7.97294 21.2713 8.30012 20.6906 9.28431C20.1099 10.2685 20.4371 11.537 21.4213 12.1177C22.4055 12.6984 23.674 12.3712 24.2547 11.387C24.6374 10.7383 24.6374 9.93298 24.2547 9.28431L25.4237 8.11535L24.693 7.38465ZM22.475 11.3667C21.9043 11.369 21.4398 10.9082 21.4375 10.3375C21.4351 9.76687 21.8959 9.30232 22.4666 9.3C22.5595 9.29961 22.6519 9.31175 22.7415 9.3361L22.1096 9.96798L22.8403 10.6987L23.4722 10.0668C23.6215 10.6155 23.2977 11.1813 22.749 11.3306C22.6597 11.3548 22.5675 11.367 22.475 11.3667Z" fill="#BCCBD7"/>
<path d="M14.3597 15.1347L13.1907 16.3036C12.2065 15.7229 10.938 16.0501 10.3573 17.0343C9.77663 18.0185 10.1038 19.287 11.088 19.8677C12.0722 20.4484 13.3407 20.1212 13.9214 19.137C14.304 18.4883 14.304 17.683 13.9214 17.0343L15.0904 15.8653L14.3597 15.1347ZM12.1417 19.1167C11.571 19.119 11.1065 18.6582 11.1041 18.0875C11.1018 17.5169 11.5626 17.0523 12.1333 17.05C12.2261 17.0496 12.3186 17.0618 12.4082 17.0861L11.7763 17.718L12.507 18.4487L13.1389 17.8168C13.2882 18.3655 12.9644 18.9313 12.4157 19.0806C12.3264 19.1048 12.2342 19.117 12.1417 19.1167Z" fill="#BCCBD7"/>
<path d="M19.5263 15.1347L18.3573 16.3036C17.3731 15.7229 16.1046 16.0501 15.5239 17.0343C14.9433 18.0185 15.2704 19.287 16.2546 19.8677C17.2388 20.4484 18.5074 20.1212 19.088 19.137C19.4707 18.4883 19.4707 17.683 19.088 17.0343L20.257 15.8653L19.5263 15.1347ZM17.3083 19.1167C16.7376 19.119 16.2731 18.6582 16.2708 18.0875C16.2684 17.5169 16.7292 17.0523 17.2999 17.05C17.3928 17.0496 17.4852 17.0618 17.5748 17.0861L16.9429 17.718L17.6736 18.4487L18.3055 17.8168C18.4548 18.3655 18.131 18.9313 17.5823 19.0806C17.493 19.1048 17.4008 19.117 17.3083 19.1167Z" fill="#BCCBD7"/>
<path d="M24.0152 19.4613C24.7763 18.6107 24.7036 17.3041 23.8529 16.5431C23.0023 15.782 21.6958 15.8548 20.9347 16.7054C20.5957 17.0843 20.4083 17.5749 20.4083 18.0833H21.4417C21.4417 17.5126 21.9043 17.05 22.4751 17.0501C23.0458 17.0501 23.5084 17.5127 23.5083 18.0835C23.5083 18.3376 23.4147 18.5828 23.2453 18.7722L24.0152 19.4613Z" fill="#BCCBD7"/>
<path d="M4.6925 25.5329C3.89528 25.7978 3.35756 26.5438 3.35834 27.3839V27.9C3.35834 28.1853 3.58968 28.4167 3.875 28.4167H9.04167C9.327 28.4167 9.55834 28.1853 9.55834 27.9V27.3839C9.55911 26.5439 9.02146 25.7979 8.22424 25.5329C8.0952 25.4901 8.00821 25.3694 8.00834 25.2334V25.2327C8.00789 25.165 8.03049 25.0993 8.07241 25.0461C8.43213 24.6023 8.58836 24.0277 8.50285 23.4628C8.33616 22.3336 7.28572 21.5534 6.15654 21.7201C5.14194 21.8699 4.39064 22.741 4.39167 23.7667C4.39264 24.2408 4.55817 24.7 4.85997 25.0657C4.89432 25.1147 4.91137 25.1738 4.90834 25.2336C4.9084 25.3694 4.82141 25.4901 4.6925 25.5329ZM5.01929 26.5132C5.57045 26.33 5.94219 25.8142 5.94167 25.2334C5.94522 24.9337 5.84467 24.642 5.65718 24.4082C5.50683 24.2282 5.42462 24.0011 5.425 23.7667C5.42526 23.1953 5.88871 22.7324 6.46008 22.7326C6.52408 22.7326 6.58789 22.7386 6.6508 22.7505C7.08034 22.8355 7.41139 23.1792 7.48031 23.6117C7.52299 23.8922 7.44562 24.1777 7.26718 24.3982C7.07782 24.6351 6.97475 24.9294 6.97501 25.2327V25.2333C6.97449 25.8141 7.34623 26.3299 7.89745 26.5131C8.27229 26.6377 8.5252 26.9883 8.52501 27.3833H4.39167C4.39154 26.9883 4.64445 26.6377 5.01929 26.5132Z" fill="#BCCBD7"/>
<path d="M12.1417 23.7667C11.0003 23.7667 10.075 24.692 10.075 25.8333C10.075 26.9747 11.0003 27.9 12.1417 27.9C13.2831 27.9 14.2083 26.9747 14.2083 25.8333C14.2071 24.6925 13.2825 23.768 12.1417 23.7667ZM12.1417 26.8667C11.571 26.8667 11.1083 26.4041 11.1083 25.8333C11.1083 25.2626 11.571 24.8 12.1417 24.8C12.7124 24.8 13.175 25.2626 13.175 25.8333C13.1744 26.4037 12.7121 26.866 12.1417 26.8667Z" fill="#BCCBD7"/>
<path d="M17.3083 24.8C17.7462 24.7998 18.1368 25.0756 18.2832 25.4883L19.2579 25.145C18.8777 24.0683 17.6968 23.5036 16.62 23.8837C15.5433 24.2638 14.9786 25.4448 15.3587 26.5215L16.3334 26.1785C16.144 25.6389 16.4278 25.0479 16.9674 24.8584C17.077 24.82 17.1922 24.8003 17.3083 24.8Z" fill="#BCCBD7"/>
<path d="M28.4148 23.2709C27.964 23.1961 27.5031 23.3234 27.1545 23.6189C27.1444 23.6276 27.1343 23.6363 27.1245 23.6452C26.5366 23.1181 25.646 23.1183 25.0583 23.6456C24.6367 23.2676 24.0423 23.1498 23.5083 23.3385V20.722C23.5083 19.9387 22.9523 19.2575 22.2148 19.1375C21.3702 18.9962 20.5709 19.5665 20.4296 20.4112C20.4154 20.4956 20.4083 20.5811 20.4083 20.6667V26.9875L19.0369 26.1647C18.6183 25.912 18.0993 25.892 17.6626 26.1119L17.5816 26.1524C16.8756 26.5052 16.5893 27.3634 16.9421 28.0694C17.0464 28.2781 17.2002 28.4581 17.3901 28.5936L20.6247 30.9038C20.7123 30.9664 20.8173 31 20.925 31H29.1917C29.477 31 29.7083 30.7687 29.7083 30.4833V24.8553C29.7083 24.072 29.1523 23.3909 28.4148 23.2709ZM28.675 29.9667H21.0905L17.9905 27.7524C17.8127 27.6254 17.7716 27.3782 17.8986 27.2004C17.9361 27.1479 17.9859 27.1054 18.0436 27.0766L18.1246 27.0361C18.2456 26.9753 18.3893 26.9808 18.5052 27.0507L20.659 28.343C20.9037 28.4899 21.221 28.4107 21.368 28.166C21.4162 28.0857 21.4417 27.9937 21.4417 27.9V20.6667C21.4418 20.3809 21.6737 20.1494 21.9595 20.1496C21.9894 20.1496 22.0193 20.1523 22.0487 20.1574C22.2877 20.1962 22.475 20.4443 22.475 20.722V24.8C22.475 25.0853 22.7063 25.3167 22.9917 25.3167C23.277 25.3167 23.5083 25.0853 23.5083 24.8C23.5083 24.5147 23.7397 24.2833 24.025 24.2833C24.3103 24.2833 24.5417 24.5147 24.5417 24.8C24.5417 25.0853 24.773 25.3167 25.0583 25.3167C25.3436 25.3167 25.575 25.0853 25.575 24.8C25.575 24.5147 25.8063 24.2833 26.0917 24.2833C26.377 24.2833 26.6083 24.5147 26.6083 24.8C26.6083 25.0853 26.8397 25.3167 27.125 25.3167C27.4103 25.3167 27.6417 25.0853 27.6417 24.8C27.6418 24.5142 27.8737 24.2828 28.1595 24.2829C28.1894 24.2829 28.2193 24.2856 28.2487 24.2908C28.4877 24.3295 28.675 24.5776 28.675 24.8553V29.9667Z" fill="#BCCBD7"/>
</g>
<defs>
<clipPath id="clip0">
<rect width="31" height="31" fill="white"/>
</clipPath>
</defs>
</svg>
