<svg width="18" height="18" viewBox="0 0 18 18" fill="none" xmlns="http://www.w3.org/2000/svg">
<path d="M6.46875 11.8125H7.03125V13.5H6.46875V11.8125Z" fill="#1D68D9"/>
<path d="M13.3684 4.23399C12.2811 3.23667 10.8532 2.60611 9.28125 2.53833V3.67008C10.5424 3.73617 11.6876 4.23877 12.5693 5.03302L13.3684 4.23399Z" fill="#1D68D9"/>
<path d="M7.59375 11.8125H8.15625V13.5H7.59375V11.8125Z" fill="#1D68D9"/>
<path d="M9.44599 10.1251L9.81358 9.75748L8.99993 6.50342L8.18628 9.75748L8.55387 10.1251H9.44599Z" fill="#1D68D9"/>
<path d="M8.71872 3.67008V2.53833C7.14681 2.60583 5.7189 3.23639 4.63159 4.23399L5.43062 5.03302C6.31234 4.23877 7.45759 3.73617 8.71872 3.67008Z" fill="#1D68D9"/>
<path d="M5.03165 5.4295L4.23374 4.63159C3.23643 5.7189 2.60587 7.14681 2.53809 8.71872H3.66337C3.72918 7.45675 4.23712 6.31178 5.03165 5.4295Z" fill="#1D68D9"/>
<path d="M8.71875 11.8125H9.28125V13.5H8.71875V11.8125Z" fill="#1D68D9"/>
<path d="M13.7811 9C13.7811 6.36356 11.6362 4.21875 8.9998 4.21875C6.36337 4.21875 4.21855 6.36356 4.21855 9C4.21855 9.15553 4.09255 9.28125 3.9373 9.28125H2.53809C2.68602 12.7181 5.52721 15.4688 8.9998 15.4688C12.4724 15.4688 15.3136 12.7181 15.4615 9.28125H14.0623C13.9071 9.28125 13.7811 9.15553 13.7811 9ZM7.60199 9.77569L8.72699 5.27569C8.75821 5.15025 8.87071 5.0625 8.9998 5.0625C9.1289 5.0625 9.2414 5.15025 9.27262 5.27569L10.3976 9.77569C10.4215 9.87159 10.3934 9.97284 10.3236 10.0426L9.76115 10.6051C9.70856 10.658 9.63684 10.6875 9.5623 10.6875H8.4373C8.36277 10.6875 8.29105 10.658 8.23846 10.6051L7.67596 10.0426C7.60593 9.97284 7.57809 9.87159 7.60199 9.77569ZM12.0936 13.7812C12.0936 13.9368 11.9676 14.0625 11.8123 14.0625H6.1873C6.03205 14.0625 5.90605 13.9368 5.90605 13.7812V11.5312C5.90605 11.3757 6.03205 11.25 6.1873 11.25H11.8123C11.9676 11.25 12.0936 11.3757 12.0936 11.5312V13.7812Z" fill="#1D68D9"/>
<path d="M9.84375 11.8125H10.4062V13.5H9.84375V11.8125Z" fill="#1D68D9"/>
<path d="M9 0.84375C4.50253 0.84375 0.84375 4.50281 0.84375 9C0.84375 13.4972 4.50253 17.1562 9 17.1562C13.4975 17.1562 17.1562 13.4972 17.1562 9C17.1562 4.50281 13.4975 0.84375 9 0.84375ZM9 16.0312C5.12297 16.0312 1.96875 12.877 1.96875 9C1.96875 5.12297 5.12297 1.96875 9 1.96875C12.877 1.96875 16.0312 5.12297 16.0312 9C16.0312 12.877 12.877 16.0312 9 16.0312Z" fill="#1D68D9"/>
<path d="M14.3363 8.71872H15.4616C15.3941 7.14681 14.7632 5.7189 13.7659 4.63159L12.968 5.4295C13.7625 6.31178 14.2705 7.45675 14.3363 8.71872Z" fill="#1D68D9"/>
<path d="M10.9688 11.8125H11.5312V13.5H10.9688V11.8125Z" fill="#1D68D9"/>
</svg>
