<svg width="28" height="28" viewBox="0 0 28 28" fill="none" xmlns="http://www.w3.org/2000/svg">
<g clip-path="url(#clip0)">
<path d="M14 9.03225C15.7432 9.03225 17.1613 7.61413 17.1613 5.87096C17.1613 4.1278 15.7432 2.70967 14 2.70967C12.2569 2.70967 10.8387 4.1278 10.8387 5.87096C10.8387 7.61413 12.2569 9.03225 14 9.03225ZM14 3.6129C15.2451 3.6129 16.2581 4.62594 16.2581 5.87096C16.2581 6.96119 15.4808 7.87345 14.4516 8.08338V6.32258H13.5484V8.08338C12.5193 7.87345 11.742 6.96163 11.742 5.87096C11.742 4.62594 12.755 3.6129 14 3.6129Z" fill="#BCCBD7"/>
<path d="M13.5484 4.51613H14.4516V5.41935H13.5484V4.51613Z" fill="#BCCBD7"/>
<path d="M26.2315 21.374L23.9355 20.8637V20.2037C24.7534 19.6317 25.2903 18.6846 25.2903 17.6133V16.7101C25.2903 15.1209 24.1104 13.8053 22.5806 13.585V11.4367L18.4072 9.76701L19.0518 9.12267L18.4068 8.15527C18.5369 7.90455 18.6453 7.64302 18.7307 7.37311L19.871 7.14444V4.5975L18.7311 4.36927C18.6458 4.09936 18.5369 3.83783 18.4072 3.5871L19.0522 2.61971L17.2517 0.81921L16.2843 1.46421C16.0336 1.33411 15.7721 1.22562 15.5021 1.14028L15.2735 0H12.7265L12.4983 1.13984C12.2284 1.22518 11.9669 1.33411 11.7161 1.46377L10.7487 0.818769L8.94824 2.61927L9.59325 3.58666C9.46314 3.83739 9.35465 4.09892 9.26931 4.36883L8.12903 4.5975V7.14444L9.26887 7.37267C9.35421 7.64258 9.46314 7.90411 9.5928 8.15483L8.9478 9.12223L9.59236 9.76657L5.41935 11.4363V13.5846C3.88965 13.8048 2.70968 15.1204 2.70968 16.7097V17.6129C2.70968 18.6846 3.24663 19.6317 4.06452 20.2033V20.8631L1.76852 21.3736C0.727035 21.6051 0 22.5116 0 23.5778V28H28V23.5778C28 22.5116 27.273 21.6051 26.2315 21.374ZM23.0323 21.1017C22.9202 21.2745 22.6091 21.6774 22.129 21.6774C21.649 21.6774 21.3378 21.2741 21.2258 21.1017V20.6414C21.512 20.7268 21.8152 20.7742 22.129 20.7742C22.4428 20.7742 22.746 20.7268 23.0323 20.641V21.1017ZM24.3871 16.7097V17.6129C24.3871 18.8579 23.3741 19.871 22.129 19.871C20.884 19.871 19.871 18.8579 19.871 17.6129V16.7097C19.871 15.4647 20.884 14.4516 22.129 14.4516C23.3741 14.4516 24.3871 15.4647 24.3871 16.7097ZM21.6774 12.0476V13.5846C20.1477 13.8048 18.9677 15.1204 18.9677 16.7097V17.6129C18.9677 18.6846 19.5047 19.6317 20.3226 20.2033V20.8631L18.0645 21.365L15.8065 20.8631V20.2033C16.6243 19.6313 17.1613 18.6842 17.1613 17.6129V16.7097C17.1613 15.1204 15.9813 13.8048 14.4516 13.5846V11.7419H15.2735L15.5017 10.6021C15.7716 10.5168 16.0331 10.4078 16.2839 10.2782L17.2513 10.9232L17.7124 10.4621L21.6774 12.0476ZM18.9677 27.0968H9.03226V23.5778C9.03226 22.9379 9.46843 22.3941 10.0932 22.2549L12.4383 21.7339C12.6965 22.0761 13.2101 22.5806 14 22.5806C14.7899 22.5806 15.3035 22.0761 15.5617 21.7343L17.9068 22.2554C18.5316 22.3941 18.9677 22.9383 18.9677 23.5778V27.0968ZM14 14.4516C15.245 14.4516 16.2581 15.4647 16.2581 16.7097V17.6129C16.2581 18.8579 15.245 19.871 14 19.871C12.755 19.871 11.7419 18.8579 11.7419 17.6129V16.7097C11.7419 15.4647 12.755 14.4516 14 14.4516ZM14 20.7742C14.3138 20.7742 14.617 20.7268 14.9032 20.641V21.1012C14.7912 21.2745 14.4801 21.6774 14 21.6774C13.5199 21.6774 13.2088 21.2741 13.0968 21.1017V20.6414C13.383 20.7268 13.6862 20.7742 14 20.7742ZM9.03226 6.40395V5.33799L9.99502 5.14526L10.0651 4.86983C10.1613 4.49121 10.3108 4.13045 10.509 3.79725L10.6548 3.55248L10.1099 2.73504L10.8636 1.98132L11.6811 2.52643L11.9258 2.38045C12.259 2.18221 12.6198 2.03226 12.9984 1.93655L13.2738 1.86643L13.467 0.903226H14.533L14.7257 1.86599L15.0011 1.93611C15.3798 2.03226 15.7405 2.18177 16.0737 2.38001L16.3185 2.52577L17.1359 1.98088L17.8896 2.7346L17.3445 3.55204L17.4905 3.79681C17.6888 4.13001 17.8387 4.49077 17.9344 4.86939L18.0045 5.14481L18.9677 5.33799V6.40395L18.005 6.59668L17.9349 6.8721C17.8387 7.25072 17.6892 7.61149 17.491 7.94468L17.3452 8.18945L17.8901 9.0069L17.1364 9.76062L16.3189 9.2155L16.0742 9.36149C15.741 9.55973 15.3802 9.70968 15.0016 9.80538L14.7262 9.8755L14.533 10.8387H13.467L13.2743 9.87595L12.9989 9.80582C12.6202 9.70968 12.2595 9.56017 11.9263 9.36193L11.6815 9.21617L10.8641 9.76106L10.1104 9.00734L10.6555 8.18989L10.5095 7.94512C10.3112 7.61193 10.1613 7.25117 10.0656 6.87254L9.99546 6.59712L9.03226 6.40395ZM10.2876 10.4616L10.7487 10.9227L11.7161 10.2777C11.9669 10.4078 12.2284 10.5163 12.4983 10.6017L12.7265 11.7419H13.5484V13.5846C12.0187 13.8048 10.8387 15.1204 10.8387 16.7097V17.6129C10.8387 18.6846 11.3757 19.6317 12.1935 20.2033V20.8631L9.93548 21.365L7.67742 20.8631V20.2033C8.49531 19.6313 9.03226 18.6842 9.03226 17.6129V16.7097C9.03226 15.1204 7.85229 13.8048 6.32258 13.5846V12.0476L10.2876 10.4616ZM3.6129 17.6129V16.7097C3.6129 15.4647 4.62595 14.4516 5.87097 14.4516C7.11599 14.4516 8.12903 15.4647 8.12903 16.7097V17.6129C8.12903 18.8579 7.11599 19.871 5.87097 19.871C4.62595 19.871 3.6129 18.8579 3.6129 17.6129ZM5.87097 20.7742C6.18476 20.7742 6.48797 20.7268 6.77419 20.641V21.1012C6.66217 21.2745 6.35103 21.6774 5.87097 21.6774C5.39003 21.6774 5.07844 21.2728 4.96774 21.1017V20.641C5.25397 20.7268 5.55718 20.7742 5.87097 20.7742ZM0.903226 23.5778C0.903226 22.9379 1.3394 22.3941 1.96412 22.2549L4.30929 21.7339C4.56751 22.0761 5.08109 22.5806 5.87097 22.5806C6.66085 22.5806 7.17443 22.0761 7.43265 21.7343L8.75132 22.0274C8.36476 22.4342 8.12903 22.978 8.12903 23.5778V27.0968H0.903226V23.5778ZM27.0968 27.0968H19.871V23.5778C19.871 22.978 19.6352 22.4338 19.2487 22.0269L20.5674 21.7339C20.8256 22.0761 21.3391 22.5806 22.129 22.5806C22.9189 22.5806 23.4325 22.0761 23.6907 21.7343L26.0359 22.2554C26.6606 22.3941 27.0968 22.9383 27.0968 23.5778V27.0968Z" fill="#BCCBD7"/>
<path d="M21.6774 3.16129H22.5807V4.06451H21.6774V3.16129Z" fill="#BCCBD7"/>
<path d="M21.6774 5.87097H22.5807V6.7742H21.6774V5.87097Z" fill="#BCCBD7"/>
<path d="M21.6774 8.58064H22.5807V9.48387H21.6774V8.58064Z" fill="#BCCBD7"/>
<path d="M23.4839 5.87097H24.3871V6.7742H23.4839V5.87097Z" fill="#BCCBD7"/>
<path d="M23.4839 8.58064H24.3871V9.48387H23.4839V8.58064Z" fill="#BCCBD7"/>
<path d="M23.4839 11.2903H24.3871V12.1936H23.4839V11.2903Z" fill="#BCCBD7"/>
<path d="M5.41937 3.16129H6.3226V4.06451H5.41937V3.16129Z" fill="#BCCBD7"/>
<path d="M5.41937 5.87097H6.3226V6.7742H5.41937V5.87097Z" fill="#BCCBD7"/>
<path d="M5.41937 8.58064H6.3226V9.48387H5.41937V8.58064Z" fill="#BCCBD7"/>
<path d="M3.61292 5.87097H4.51614V6.7742H3.61292V5.87097Z" fill="#BCCBD7"/>
<path d="M3.61292 8.58064H4.51614V9.48387H3.61292V8.58064Z" fill="#BCCBD7"/>
<path d="M3.61292 11.2903H4.51614V12.1936H3.61292V11.2903Z" fill="#BCCBD7"/>
</g>
<defs>
<clipPath id="clip0">
<rect width="28" height="28" fill="white"/>
</clipPath>
</defs>
</svg>
