<svg width="32" height="32" viewBox="0 0 32 32" fill="none" xmlns="http://www.w3.org/2000/svg">
<g clip-path="url(#clip0)">
<path d="M31.4667 24H27.7334V16C27.7334 15.7055 27.4946 15.4667 27.2 15.4667H25.6V7.46667C25.6 7.17213 25.3612 6.93333 25.0667 6.93333H18.1334V5.33333C18.1334 5.0388 17.8946 4.8 17.6 4.8H9.06671C8.77218 4.8 8.53338 5.0388 8.53338 5.33333V12.2667H7.46671V4.53333C7.46671 3.20786 6.39218 2.13333 5.06671 2.13333C3.74124 2.13333 2.66671 3.20786 2.66671 4.53333V6.4C2.66671 6.69453 2.90551 6.93333 3.20004 6.93333C3.49458 6.93333 3.73338 6.69453 3.73338 6.4V4.53333C3.73338 3.79693 4.33031 3.2 5.06671 3.2C5.80311 3.2 6.40004 3.79693 6.40004 4.53333V12.2667H1.60004C1.30551 12.2667 1.06671 12.5055 1.06671 12.8C1.06671 13.0945 1.30551 13.3333 1.60004 13.3333H6.40004V24H5.86671C5.57218 24 5.33338 24.2388 5.33338 24.5333C5.33338 24.8279 5.57218 25.0667 5.86671 25.0667H31.4667C31.7612 25.0667 32 24.8279 32 24.5333C32 24.2388 31.7612 24 31.4667 24ZM8.53338 24H7.46671V13.3333H8.53338V24ZM12.2667 5.86667H14.4V9.6H12.2667V5.86667ZM17.0667 24H9.60005V13.3333H10.6667C10.9612 13.3333 11.2 13.0945 11.2 12.8C11.2 12.5055 10.9612 12.2667 10.6667 12.2667H9.60005V5.86667H11.2V10.1333C11.2 10.4279 11.4388 10.6667 11.7334 10.6667H14.9334C15.2279 10.6667 15.4667 10.4279 15.4667 10.1333V5.86667H17.0667V24ZM20.8 8H21.8667V10.1333H20.8V8ZM18.1334 8H19.7334V10.6667C19.7334 10.9612 19.9722 11.2 20.2667 11.2H22.4C22.6946 11.2 22.9334 10.9612 22.9334 10.6667V8H24.5334V15.4667H18.1334V8ZM23.4667 16.5333V18.6667H21.3334V16.5333H23.4667ZM26.6667 24H18.1334V16.5333H20.2667V19.2C20.2667 19.4945 20.5055 19.7333 20.8 19.7333H24C24.2946 19.7333 24.5334 19.4945 24.5334 19.2V16.5333H26.6667V24Z" fill="#BCCBD7"/>
<path d="M9.06668 25.6C7.88848 25.6 6.93335 26.5551 6.93335 27.7333C6.93335 28.9115 7.88848 29.8667 9.06668 29.8667C10.2449 29.8667 11.2 28.9115 11.2 27.7333C11.2 26.5551 10.2449 25.6 9.06668 25.6ZM9.06668 28.8C8.47755 28.8 8.00002 28.3225 8.00002 27.7333C8.00002 27.1442 8.47755 26.6667 9.06668 26.6667C9.65581 26.6667 10.1333 27.1442 10.1333 27.7333C10.1333 28.3225 9.65581 28.8 9.06668 28.8Z" fill="#BCCBD7"/>
<path d="M28.2667 25.6C27.0885 25.6 26.1333 26.5551 26.1333 27.7333C26.1333 28.9115 27.0885 29.8667 28.2667 29.8667C29.4449 29.8667 30.4 28.9115 30.4 27.7333C30.4 26.5551 29.4449 25.6 28.2667 25.6ZM28.2667 28.8C27.6775 28.8 27.2 28.3225 27.2 27.7333C27.2 27.1442 27.6775 26.6667 28.2667 26.6667C28.8558 26.6667 29.3333 27.1442 29.3333 27.7333C29.3333 28.3225 28.8558 28.8 28.2667 28.8Z" fill="#BCCBD7"/>
<path d="M4.26667 10.1333H0.533333C0.2388 10.1333 0 10.3721 0 10.6667C0 10.9612 0.2388 11.2 0.533333 11.2H4.26667C4.5612 11.2 4.8 10.9612 4.8 10.6667C4.8 10.3721 4.5612 10.1333 4.26667 10.1333Z" fill="#BCCBD7"/>
</g>
<defs>
<clipPath id="clip0">
<rect width="32" height="32" fill="white"/>
</clipPath>
</defs>
</svg>
