<svg width="23" height="36" viewBox="0 0 23 36" fill="none" xmlns="http://www.w3.org/2000/svg">
<path d="M8.36363 10.611H5.57575C5.39091 10.611 5.21363 10.6844 5.08292 10.8151C4.95221 10.9458 4.87878 11.1231 4.87878 11.3079V14.0958C4.87878 14.2807 4.95221 14.4579 5.08292 14.5886C5.21363 14.7193 5.39091 14.7928 5.57575 14.7928H8.36363C8.54848 14.7928 8.72576 14.7193 8.85647 14.5886C8.98717 14.4579 9.0606 14.2807 9.0606 14.0958V11.3079C9.0606 11.1231 8.98717 10.9458 8.85647 10.8151C8.72576 10.6844 8.54848 10.611 8.36363 10.611ZM7.66666 13.3988H6.27272V12.0049H7.66666V13.3988Z" fill="#D03839"/>
<path d="M6.27272 16.1868H4.87878V17.5807H6.27272V16.1868Z" fill="#D03839"/>
<path d="M9.06057 16.1868H7.66663V17.5807H9.06057V16.1868Z" fill="#D03839"/>
<path d="M6.27272 18.9746H4.87878V20.3685H6.27272V18.9746Z" fill="#D03839"/>
<path d="M9.06057 18.9746H7.66663V20.3685H9.06057V18.9746Z" fill="#D03839"/>
<path d="M20.9091 9.91403H11.8485V8.52009C11.8485 8.33524 11.7751 8.15796 11.6443 8.02726C11.5136 7.89655 11.3364 7.82312 11.1515 7.82312H2.78788C2.60303 7.82312 2.42575 7.89655 2.29505 8.02726C2.16434 8.15796 2.09091 8.33524 2.09091 8.52009V31.5201H0.69697C0.512122 31.5201 0.334844 31.5935 0.204137 31.7242C0.07343 31.8549 0 32.0322 0 32.2171V35.0049C0 35.1898 0.07343 35.3671 0.204137 35.4978C0.334844 35.6285 0.512122 35.7019 0.69697 35.7019H13.2424C13.4273 35.7019 13.6045 35.6285 13.7353 35.4978C13.866 35.3671 13.9394 35.1898 13.9394 35.0049V32.2171C13.9394 32.0322 13.866 31.8549 13.7353 31.7242C13.6045 31.5935 13.4273 31.5201 13.2424 31.5201H11.8485V17.7515L17.6424 22.9669C18.0579 23.3567 18.6096 23.5681 19.1792 23.5555C19.7488 23.543 20.2908 23.3076 20.6887 22.8998C21.0866 22.4921 21.3087 21.9445 21.3073 21.3748C21.3059 20.8051 21.0811 20.2586 20.6812 19.8528L14.3485 14.0958H20.9091C21.4636 14.0958 21.9955 13.8756 22.3876 13.4834C22.7797 13.0913 23 12.5595 23 12.0049C23 11.4504 22.7797 10.9186 22.3876 10.5264C21.9955 10.1343 21.4636 9.91403 20.9091 9.91403ZM3.48485 9.21706H10.4545V31.5201H3.48485V9.21706ZM12.5455 32.914V34.308H1.39394V32.914H12.5455ZM19.7194 20.8613C19.8511 21.0153 19.9235 21.2114 19.9235 21.414C19.9235 21.6167 19.8511 21.8127 19.7194 21.9667C19.5657 22.0993 19.3696 22.1722 19.1667 22.1722C18.9638 22.1722 18.7676 22.0993 18.614 21.9667L18.5875 21.9416L11.8485 15.8766V14.0958H12.2757L19.7194 20.8613ZM20.9091 12.7019H11.8485V11.308H20.9091C21.0939 11.308 21.2712 11.3814 21.4019 11.5121C21.5326 11.6428 21.6061 11.8201 21.6061 12.0049C21.6061 12.1898 21.5326 12.3671 21.4019 12.4978C21.2712 12.6285 21.0939 12.7019 20.9091 12.7019Z" fill="#D03839"/>
<path d="M4.32123 4.61702L5.43638 5.45338C5.85798 4.93286 6.46116 4.59142 7.12444 4.49784C7.53436 4.50518 7.93786 4.60103 8.30729 4.77883C8.67672 4.95663 9.00336 5.21217 9.26483 5.52796L10.2503 4.54244C9.85147 4.08057 9.35554 3.71245 8.79796 3.46439C8.24038 3.21632 7.63491 3.09442 7.02477 3.10738C5.95916 3.23249 4.98678 3.77545 4.32123 4.61702Z" fill="#D03839"/>
<path d="M6.91253 1.40474C8.87868 1.29601 10.8281 2.21322 12.7496 4.13407L13.7352 3.14856C11.5167 0.929404 9.18395 -0.127203 6.81913 0.0121914C3.24368 0.221282 0.943681 3.08652 0.846802 3.20849L1.93965 4.07274C1.95986 4.04974 3.96644 1.57062 6.91253 1.40474Z" fill="#D03839"/>
</svg>
