<svg width="13" height="13" viewBox="0 0 13 13" fill="none" xmlns="http://www.w3.org/2000/svg">
<g clip-path="url(#clip0)">
<mask id="path-1-inside-1" fill="white">
<path d="M5.61235 8.48045V5.2329L6.37405 4.99634V8.48045C6.37405 8.69079 6.20353 8.86131 5.9932 8.86131C5.78287 8.86131 5.61235 8.69079 5.61235 8.48045Z"/>
</mask>
<path d="M5.61235 8.48045V5.2329L6.37405 4.99634V8.48045C6.37405 8.69079 6.20353 8.86131 5.9932 8.86131C5.78287 8.86131 5.61235 8.69079 5.61235 8.48045Z" fill="#D03839" stroke="#1D68D9" stroke-width="1.99998" mask="url(#path-1-inside-1)"/>
<mask id="path-2-inside-2" fill="white">
<path d="M0.381902 0H6.75489C6.96522 0 7.13574 0.170522 7.13574 0.380856V3.6816C7.13574 3.84844 7.02717 3.99584 6.86785 4.04532L3.04789 5.23166V10.4827L6.85226 11.4891C7.01935 11.5333 7.13572 11.6845 7.13572 11.8573V12.619C7.13572 12.8294 6.96519 12.9999 6.75486 12.9999L0.381877 13C0.171543 13 0.00102139 12.8295 0.00102139 12.6192V0.380856C0.00104666 0.170522 0.171543 0 0.381902 0ZM4.75539 2.66599C4.96517 2.66599 5.13625 2.49488 5.13625 2.28513C5.13625 2.07538 4.96517 1.90428 4.75539 1.90428C4.54562 1.90428 4.37454 2.07536 4.37454 2.28513C4.37454 2.49488 4.54562 2.66599 4.75539 2.66599ZM2.38139 2.66599C2.59117 2.66599 2.76225 2.49488 2.76225 2.28513C2.76225 2.07538 2.59117 1.90428 2.38139 1.90428C2.17162 1.90428 2.00054 2.07536 2.00054 2.28513C2.00054 2.49488 2.17162 2.66599 2.38139 2.66599Z"/>
</mask>
<path d="M0.381902 0H6.75489C6.96522 0 7.13574 0.170522 7.13574 0.380856V3.6816C7.13574 3.84844 7.02717 3.99584 6.86785 4.04532L3.04789 5.23166V10.4827L6.85226 11.4891C7.01935 11.5333 7.13572 11.6845 7.13572 11.8573V12.619C7.13572 12.8294 6.96519 12.9999 6.75486 12.9999L0.381877 13C0.171543 13 0.00102139 12.8295 0.00102139 12.6192V0.380856C0.00104666 0.170522 0.171543 0 0.381902 0ZM4.75539 2.66599C4.96517 2.66599 5.13625 2.49488 5.13625 2.28513C5.13625 2.07538 4.96517 1.90428 4.75539 1.90428C4.54562 1.90428 4.37454 2.07536 4.37454 2.28513C4.37454 2.49488 4.54562 2.66599 4.75539 2.66599ZM2.38139 2.66599C2.59117 2.66599 2.76225 2.49488 2.76225 2.28513C2.76225 2.07538 2.59117 1.90428 2.38139 1.90428C2.17162 1.90428 2.00054 2.07536 2.00054 2.28513C2.00054 2.49488 2.17162 2.66599 2.38139 2.66599Z" fill="#1D68D9" stroke="#1D68D9" stroke-width="1.99998" mask="url(#path-2-inside-2)"/>
<mask id="path-3-inside-3" fill="white">
<path d="M13.0009 2.99609C13.0009 3.20642 12.8304 3.37694 12.6201 3.37694H7.89745V2.61523H12.6201C12.8304 2.61523 13.0009 2.78576 13.0009 2.99609Z"/>
</mask>
<path d="M13.0009 2.99609C13.0009 3.20642 12.8304 3.37694 12.6201 3.37694H7.89745V2.61523H12.6201C12.8304 2.61523 13.0009 2.78576 13.0009 2.99609Z" fill="#D03839" stroke="#1D68D9" stroke-width="1.99998" mask="url(#path-3-inside-3)"/>
</g>
<defs>
<clipPath id="clip0">
<rect width="13" height="13" fill="white" transform="matrix(-1 0 0 1 13.001 0)"/>
</clipPath>
</defs>
</svg>
