<?xml version="1.0" encoding="utf-8"?>
<!-- Generator: Adobe Illustrator 23.0.3, SVG Export Plug-In . SVG Version: 6.00 Build 0)  -->
<svg version="1.1" id="Слой_1" xmlns="http://www.w3.org/2000/svg" xmlns:xlink="http://www.w3.org/1999/xlink" x="0px" y="0px"
	 viewBox="0 0 300 300" style="enable-background:new 0 0 300 300;" xml:space="preserve">
<style type="text/css">
	.st0{fill:#494948;}
</style>
<g>
	<g>
		<path class="st0" d="M110.2,94.9c47.7,0,95.3,0,143,0c6.8,0,13.5,0,20.3,0c6.4,0,6.5-10,0-10c-47.7,0-95.3,0-143,0
			c-6.8,0-13.5,0-20.3,0C103.8,84.9,103.8,94.9,110.2,94.9L110.2,94.9z"/>
	</g>
</g>
<g>
	<g>
		<path class="st0" d="M103.8,95.8c33.7,33.7,67.4,67.4,101.1,101.1c4.8,4.8,9.6,9.6,14.4,14.4c4.6,4.6,11.6-2.5,7.1-7.1
			c-33.7-33.7-67.4-67.4-101.1-101.1c-4.8-4.8-9.6-9.6-14.3-14.3C106.4,84.2,99.3,91.3,103.8,95.8L103.8,95.8z"/>
	</g>
</g>
<g>
	<g>
		<path class="st0" d="M110.2,259.5c0-47.7,0-95.3,0-143c0-6.8,0-13.5,0-20.3c0-6.4-10-6.4-10,0c0,47.7,0,95.3,0,143
			c0,6.8,0,13.5,0,20.3C100.2,265.9,110.2,265.9,110.2,259.5L110.2,259.5z"/>
	</g>
</g>
<path class="st0" d="M66.6,133.5L130.2,70l-29.7-29.8l-72.7,72.7v187h64.5l-25.6-16.6V133.5z M57.5,291.8l-20.8,0.1V117l63.8-63.8
	l16.7,16.7l-59.7,59.6V291.8z"/>
</svg>
