<svg width="13" height="13" viewBox="0 0 13 13" fill="none" xmlns="http://www.w3.org/2000/svg">
<g clip-path="url(#clip0)">
<mask id="path-1-inside-1" fill="white">
<path d="M5.61137 8.48052V5.23296L6.37308 4.9964V8.48052C6.37308 8.69085 6.20256 8.86137 5.99222 8.86137C5.78189 8.86137 5.61137 8.69085 5.61137 8.48052Z"/>
</mask>
<path d="M5.61137 8.48052V5.23296L6.37308 4.9964V8.48052C6.37308 8.69085 6.20256 8.86137 5.99222 8.86137C5.78189 8.86137 5.61137 8.69085 5.61137 8.48052Z" fill="#D03839"/>
<path d="M5.61137 5.23296H4.61138V4.49642L5.31478 4.27797L5.61137 5.23296ZM6.37308 4.9964L6.07649 4.0414L7.37307 3.63873V4.9964H6.37308ZM4.61138 8.48052V5.23296H6.61136V8.48052H4.61138ZM5.31478 4.27797L6.07649 4.0414L6.66967 5.95139L5.90796 6.18796L5.31478 4.27797ZM7.37307 4.9964V8.48052H5.37309V4.9964H7.37307ZM7.37307 8.48052C7.37307 9.24312 6.75484 9.86136 5.99222 9.86136V7.86138C5.65027 7.86138 5.37309 8.13858 5.37309 8.48052H7.37307ZM5.99222 9.86136C5.22961 9.86136 4.61138 9.24312 4.61138 8.48052H6.61136C6.61136 8.13858 6.33417 7.86138 5.99222 7.86138V9.86136Z" fill="#1D68D9" mask="url(#path-1-inside-1)"/>
<path d="M2.54692 5.23166V4.86339L2.89862 4.75416L6.63477 3.59385V0.499995H0.50004V12.5L6.63474 12.4999V11.9491L2.91904 10.966L2.54692 10.8676V10.4827V5.23166ZM5.63527 2.28513C5.63527 2.771 5.24035 3.16598 4.75442 3.16598C4.26848 3.16598 3.87357 2.771 3.87357 2.28513C3.87357 1.79922 4.2685 1.40428 4.75442 1.40428C5.24035 1.40428 5.63527 1.79927 5.63527 2.28513ZM3.26127 2.28513C3.26127 2.771 2.86635 3.16598 2.38042 3.16598C1.89448 3.16598 1.49957 2.771 1.49957 2.28513C1.49957 1.79922 1.8945 1.40428 2.38042 1.40428C2.86635 1.40428 3.26127 1.79927 3.26127 2.28513Z" fill="#1D68D9" stroke="#1D68D9" stroke-width="0.99999"/>
<mask id="path-4-inside-2" fill="white">
<path d="M12.9999 2.99609C12.9999 3.20642 12.8294 3.37694 12.6191 3.37694H7.89647V2.61523H12.6191C12.8294 2.61523 12.9999 2.78576 12.9999 2.99609Z"/>
</mask>
<path d="M12.9999 2.99609C12.9999 3.20642 12.8294 3.37694 12.6191 3.37694H7.89647V2.61523H12.6191C12.8294 2.61523 12.9999 2.78576 12.9999 2.99609Z" fill="#D03839"/>
<path d="M7.89647 3.37694V4.37693H6.89648V3.37694H7.89647ZM7.89647 2.61523H6.89648V1.61524H7.89647V2.61523ZM13.9999 2.99609C13.9999 3.7587 13.3817 4.37693 12.6191 4.37693V2.37695C12.2771 2.37695 11.9999 2.65414 11.9999 2.99609H13.9999ZM12.6191 4.37693H7.89647V2.37695H12.6191V4.37693ZM6.89648 3.37694V2.61523H8.89646V3.37694H6.89648ZM7.89647 1.61524H12.6191V3.61522H7.89647V1.61524ZM12.6191 1.61524C13.3817 1.61524 13.9999 2.23347 13.9999 2.99609H11.9999C11.9999 3.33804 12.2771 3.61522 12.6191 3.61522V1.61524Z" fill="#1D68D9" mask="url(#path-4-inside-2)"/>
</g>
<defs>
<clipPath id="clip0">
<rect width="13" height="13" fill="white" transform="matrix(-1 0 0 1 13 0)"/>
</clipPath>
</defs>
</svg>
