<svg width="12" height="12" viewBox="0 0 12 12" fill="none" xmlns="http://www.w3.org/2000/svg">
<path d="M11.2789 0.549316H0.721122C0.323507 0.549316 0 0.872824 0 1.27047V10.7296C0 11.1272 0.323507 11.4507 0.721122 11.4507H11.2789C11.6765 11.4507 12 11.1272 12 10.7296V1.27047C12 0.872854 11.6765 0.549316 11.2789 0.549316ZM10.3427 1.76027C10.3427 1.61322 10.4619 1.49398 10.609 1.49398H10.8753C11.0223 1.49398 11.1415 1.61319 11.1415 1.76027V2.06206C11.1415 2.20911 11.0223 2.32832 10.8753 2.32832H10.609C10.4619 2.32832 10.3427 2.20911 10.3427 2.06206V1.76027ZM9.10462 1.76027C9.10462 1.61322 9.22383 1.49398 9.37085 1.49398H9.63714C9.78425 1.49398 9.90343 1.61319 9.90343 1.76027V2.06206C9.90343 2.20911 9.78422 2.32832 9.63714 2.32832H9.37085C9.22383 2.32832 9.10462 2.20911 9.10462 2.06206V1.76027ZM7.86643 1.76027C7.86643 1.61322 7.98564 1.49398 8.13272 1.49398H8.39895C8.54603 1.49398 8.66524 1.61319 8.66524 1.76027V2.06206C8.66524 2.20911 8.54603 2.32832 8.39895 2.32832H8.13272C7.98564 2.32832 7.86643 2.20911 7.86643 2.06206V1.76027ZM0.865358 3.1282H11.1346V6.05279L10.8312 5.85205C10.7901 5.82484 10.7397 5.81508 10.6915 5.82494C10.6432 5.83476 10.6007 5.86343 10.5735 5.90458L10.1992 6.4703C10.0112 6.40002 9.81314 6.35179 9.60856 6.32848L9.53161 5.65463C9.52001 5.55259 9.42773 5.47928 9.32572 5.4909L8.56791 5.5774C8.4659 5.58903 8.39262 5.68128 8.40415 5.78329L8.48107 6.45714C8.28703 6.52592 8.10494 6.6175 7.93748 6.72836L7.44538 6.26153C7.37091 6.19079 7.25311 6.19394 7.18239 6.26848L6.65762 6.8218C6.62362 6.85757 6.60526 6.90539 6.60652 6.95472C6.6079 7.00401 6.6287 7.05085 6.6645 7.08476L7.15706 7.55195C7.05462 7.72593 6.97283 7.91272 6.91445 8.1087L6.23754 8.06743C6.13507 8.06118 6.0468 8.13924 6.04056 8.24177L5.99408 9.00301C5.99114 9.05224 6.00782 9.10061 6.04053 9.13754C6.07327 9.17453 6.11916 9.19693 6.16852 9.19999L6.84607 9.2413C6.88034 9.44584 6.93893 9.64075 7.01818 9.82369L6.47311 10.2272C6.43343 10.2566 6.40711 10.3005 6.3998 10.3492C6.39261 10.3981 6.40503 10.4477 6.43429 10.4874L6.50674 10.5853H0.86545V3.1282H0.865358ZM9.20296 7.77859C9.76442 7.71451 10.2715 8.11767 10.3356 8.6791C10.3996 9.24047 9.99642 9.74753 9.43495 9.8116C8.87352 9.87571 8.36649 9.47249 8.30239 8.91112C8.23835 8.34972 8.64159 7.84266 9.20296 7.77859Z" fill="#1D68D9"/>
</svg>
