<svg width="22" height="22" viewBox="0 0 22 22" fill="none" xmlns="http://www.w3.org/2000/svg">
<path d="M11 0C4.9346 0 0 4.9346 0 11C0 17.0654 4.9346 22 11 22C17.0654 22 22 17.0654 22 11C22 4.9346 17.0654 0 11 0ZM11 1.91054C11.5072 2.55462 13.7013 6.70925 13.9012 10.1191H8.09883C8.29872 6.70925 10.493 2.55462 11 1.91054ZM1.92594 11.6875H6.1875C6.2866 13.5927 8.19946 18.5439 8.67969 20.0895C5.5 19.25 1.375 14.4375 1.92594 11.6875ZM6.32636 9.42857H1.92594C2.38993 7.15168 5.5 2.75 8.9375 1.91054C8.45727 3.4562 6.42547 7.52337 6.32636 9.42857ZM11.0001 20.0895C10.4928 19.4454 8.29872 15.0974 8.09883 11.6875H13.9012C13.7013 15.0974 11.5072 19.4454 11.0001 20.0895ZM13.75 19.9375C14.2302 18.3918 15.8125 14.2515 15.6736 11.6875H20.0741C19.9375 15.125 15.7209 18.8392 13.75 19.9375ZM15.6736 9.42857C15.5745 7.52337 13.6716 3.4561 13.1914 1.91054C15.125 2.75 17.875 4.125 20.0741 9.42857H15.6736Z" fill="#191E22"/>
</svg>
